<?xml version="1.0" encoding="UTF-8" standalone="no"?>
<!-- Created with Inkscape (http://www.inkscape.org/) -->

<svg
   xmlns:ns3="http://ns.adobe.com/AdobeIllustrator/10.0/"
   xmlns:dc="http://purl.org/dc/elements/1.1/"
   xmlns:cc="http://creativecommons.org/ns#"
   xmlns:rdf="http://www.w3.org/1999/02/22-rdf-syntax-ns#"
   xmlns:svg="http://www.w3.org/2000/svg"
   xmlns="http://www.w3.org/2000/svg"
   xmlns:sodipodi="http://sodipodi.sourceforge.net/DTD/sodipodi-0.dtd"
   xmlns:inkscape="http://www.inkscape.org/namespaces/inkscape"
   width="1000"
   height="1000"
   viewBox="0 0 1000 1000"
   id="svg4263"
   version="1.1"
   inkscape:version="0.91 r13725"
   sodipodi:docname="flag.svg">
  <defs
     id="defs4265">
    <clipPath
       clipPathUnits="userSpaceOnUse"
       id="clipPath5076">
      <path
         style="fill:#000000;fill-opacity:1;stroke:#000000;stroke-width:1.23921037;stroke-opacity:1"
         d="M -56.658428,815.83641 930.88574,109.81583 1401.9114,768.66167 414.36731,1474.6822 Z"
         id="path5078"
         inkscape:connector-curvature="0" />
    </clipPath>
  </defs>
  <sodipodi:namedview
     id="base"
     pagecolor="#ffffff"
     bordercolor="#666666"
     borderopacity="1.0"
     inkscape:pageopacity="0.0"
     inkscape:pageshadow="2"
     inkscape:zoom="0.35"
     inkscape:cx="482.24827"
     inkscape:cy="557.51426"
     inkscape:document-units="px"
     inkscape:current-layer="layer1"
     showgrid="false"
     units="px"
     inkscape:window-width="1303"
     inkscape:window-height="744"
     inkscape:window-x="65"
     inkscape:window-y="24"
     inkscape:window-maximized="1" />
  <metadata
     id="metadata4268">
    <rdf:RDF>
      <cc:Work
         rdf:about="">
        <dc:format>image/svg+xml</dc:format>
        <dc:type
           rdf:resource="http://purl.org/dc/dcmitype/StillImage" />
        <dc:title></dc:title>
      </cc:Work>
    </rdf:RDF>
  </metadata>
  <g
     inkscape:label="Layer 1"
     inkscape:groupmode="layer"
     id="layer1"
     transform="translate(0,-52.362161)">
    <rect
       style="fill:#ffffff;fill-opacity:1;stroke:#000000;stroke-width:20;stroke-linejoin:bevel;stroke-miterlimit:4;stroke-dasharray:none;stroke-opacity:1"
       id="rect5728"
       width="1294.2858"
       height="1222.8572"
       x="-82.85714"
       y="-7.6378388" />
    <g
       id="g5280"
       transform="matrix(-5.0650446e-4,0.99999986,-0.99999986,-5.0650446e-4,617.3114,-62.128316)">
      <path
         style="fill:#82d0f4;fill-opacity:1;stroke:#000000;stroke-width:20;stroke-linejoin:bevel;stroke-miterlimit:4;stroke-dasharray:none;stroke-opacity:1"
         inkscape:connector-curvature="0"
         ns3:knockout="Off"
         d="m 1028.5267,208.81031 c 0,5.21226 -3.9081,9.4345 -8.7306,9.4345 l -810.61685,0 c -4.82245,0 -8.73163,-4.22224 -8.73163,-9.4345 l 0,-202.0079064 c 0,-5.2110606 3.90918,-9.4344977 8.73163,-9.4344977 l 810.61575,0 c 4.8236,0 8.7307,4.2234371 8.7307,9.4344977 l 0,202.0079064 z"
         id="path4521" />
      <path
         style="fill:#000000;fill-opacity:1;stroke:#000000;stroke-width:1.82534611"
         inkscape:connector-curvature="0"
         ns3:knockout="Off"
         d="m 933.49919,151.85756 c 0,1.46393 -1.18739,2.6504 -2.64949,2.6504 l -23.13444,0 c -1.46575,0 -2.65131,-1.18647 -2.65131,-2.6504 l 0,-23.13352 c 0,-1.46667 1.18556,-2.65314 2.65131,-2.65314 l 23.13444,0 c 1.46301,0 2.64949,1.18647 2.64949,2.65314 l 0,23.13352 z"
         id="path4523" />
      <path
         style="fill:#000000;fill-opacity:1;stroke:#000000;stroke-width:1.82534611"
         inkscape:connector-curvature="0"
         ns3:knockout="Off"
         d="m 933.49919,118.10156 c 0,1.46393 -1.18739,2.6504 -2.64949,2.6504 l -23.13444,0 c -1.46575,0 -2.65131,-1.18647 -2.65131,-2.6504 l 0,-23.133523 c 0,-1.466666 1.18556,-2.653141 2.65131,-2.653141 l 23.13444,0 c 1.46301,0 2.64949,1.186475 2.64949,2.653141 l 0,23.133523 z"
         id="path4525" />
      <path
         style="fill:#000000;fill-opacity:1;stroke:#000000;stroke-width:1.82534611"
         inkscape:connector-curvature="0"
         ns3:knockout="Off"
         d="m 933.49919,84.34656 c 0,1.463927 -1.18739,2.650402 -2.64949,2.650402 l -23.13444,0 c -1.46575,0 -2.65131,-1.186475 -2.65131,-2.650402 l 0,-23.133523 c 0,-1.466666 1.18556,-2.653141 2.65131,-2.653141 l 23.13444,0 c 1.46301,0 2.64949,1.186475 2.64949,2.653141 l 0,23.133523 z"
         id="path4527" />
      <path
         style="fill:#000000;fill-opacity:1;stroke:#000000;stroke-width:1.82534611"
         inkscape:connector-curvature="0"
         ns3:knockout="Off"
         d="m 933.49919,50.66156 c 0,1.463014 -1.18739,2.650402 -2.64949,2.650402 l -23.13444,0 c -1.46575,0 -2.65131,-1.187388 -2.65131,-2.650402 l 0,-23.132611 c 0,-1.466665 1.18556,-2.654053 2.65131,-2.654053 l 23.13444,0 c 1.46301,0 2.64949,1.187388 2.64949,2.654053 l 0,23.132611 z"
         id="path4529" />
      <path
         style="fill:#000000;fill-opacity:1;stroke:#000000;stroke-width:1.82534611"
         inkscape:connector-curvature="0"
         ns3:knockout="Off"
         d="m 807.78828,186.50547 c 0,1.46393 -1.18557,2.64949 -2.64949,2.64949 l -23.13444,0 c -1.46392,0 -2.64949,-1.18647 -2.64949,-2.64949 l 0,-23.13443 c 0,-1.46667 1.18557,-2.65314 2.64949,-2.65314 l 23.13444,0 c 1.46392,0 2.64949,1.18647 2.64949,2.65314 l 0,23.13443 z"
         id="path4531" />
      <path
         style="fill:#000000;fill-opacity:1;stroke:#000000;stroke-width:1.82534611"
         inkscape:connector-curvature="0"
         ns3:knockout="Off"
         d="m 807.78828,152.76952 c 0,1.46302 -1.18557,2.65041 -2.64949,2.65041 l -23.13444,0 c -1.46392,0 -2.64949,-1.18739 -2.64949,-2.65041 l 0,-23.13353 c 0,-1.46667 1.18557,-2.65406 2.64949,-2.65406 l 23.13444,0 c 1.46392,0 2.64949,1.18739 2.64949,2.65406 l 0,23.13353 z"
         id="path4533" />
      <path
         style="fill:#000000;fill-opacity:1;stroke:#000000;stroke-width:1.82534611"
         inkscape:connector-curvature="0"
         ns3:knockout="Off"
         d="m 807.78828,82.52356 c 0,1.463927 -1.18557,2.650402 -2.64949,2.650402 l -23.13444,0 c -1.46392,0 -2.64949,-1.187388 -2.64949,-2.650402 l 0,-23.133523 c 0,-1.466666 1.18557,-2.653141 2.64949,-2.653141 l 23.13444,0 c 1.46392,0 2.64949,1.186475 2.64949,2.653141 l 0,23.133523 z"
         id="path4535" />
      <path
         style="fill:#000000;fill-opacity:1;stroke:#000000;stroke-width:1.82534611"
         inkscape:connector-curvature="0"
         ns3:knockout="Off"
         d="m 807.78828,48.838559 c 0,1.463015 -1.18557,2.650403 -2.64949,2.650403 l -23.13444,0 c -1.46392,0 -2.64949,-1.187388 -2.64949,-2.650403 l 0,-23.133522 c 0,-1.465753 1.18557,-2.653141 2.64949,-2.653141 l 23.13444,0 c 1.46392,0 2.64949,1.187388 2.64949,2.653141 l 0,23.133522 z"
         id="path4537" />
      <path
         style="fill:#000000;fill-opacity:1;stroke:#000000;stroke-width:1.82534611"
         inkscape:connector-curvature="0"
         ns3:knockout="Off"
         d="m 548.6471,118.7426 c 0,1.46393 -1.18739,2.65041 -2.65131,2.65041 l -23.13535,0 c -1.46393,0 -2.6504,-1.18648 -2.6504,-2.65041 l 0,-23.134432 c 0,-1.463928 1.18647,-2.651316 2.6504,-2.651316 l 23.13535,0 c 1.46392,0 2.65131,1.187388 2.65131,2.651316 l 0,23.134432 z"
         id="path4539" />
      <path
         style="fill:#000000;fill-opacity:1;stroke:#000000;stroke-width:1.82534611"
         inkscape:connector-curvature="0"
         ns3:knockout="Off"
         d="m 540.27916,84.65869 c 0,1.463928 -1.1874,2.651316 -2.65133,2.651316 l -23.13534,0 c -1.46393,0 -2.64951,-1.187388 -2.64951,-2.651316 l 0,-23.132609 c 0,-1.464841 1.18649,-2.652229 2.64951,-2.652229 l 23.13534,0 c 1.46393,0 2.65133,1.187388 2.65133,2.652229 l 0,23.132609 z"
         id="path4541" />
      <path
         style="fill:#000000;fill-opacity:1;stroke:#000000;stroke-width:1.82534611"
         inkscape:connector-curvature="0"
         ns3:knockout="Off"
         d="m 557.19816,50.56769 c 0,1.463928 -1.1874,2.651316 -2.65133,2.651316 l -23.1326,0 c -1.46393,0 -2.65224,-1.187388 -2.65224,-2.651316 l 0,-23.133522 c 0,-1.463928 1.18831,-2.651316 2.65224,-2.651316 l 23.1326,0 c 1.46393,0 2.65133,1.187388 2.65133,2.651316 l 0,23.133522 z"
         id="path4543" />
      <path
         style="fill:#000000;fill-opacity:1;stroke:#000000;stroke-width:1.82534611"
         inkscape:connector-curvature="0"
         ns3:knockout="Off"
         d="m 380.7661,118.7426 c 0,1.46393 -1.18647,2.65041 -2.6504,2.65041 l -23.13535,0 c -1.46392,0 -2.65131,-1.18648 -2.65131,-2.65041 l 0,-23.134432 c 0,-1.463928 1.18647,-2.651316 2.65131,-2.651316 l 23.13535,0 c 1.46393,0 2.6504,1.187388 2.6504,2.651316 l 0,23.134432 z"
         id="path4545" />
      <path
         style="fill:#000000;fill-opacity:1;stroke:#000000;stroke-width:1.82534611"
         inkscape:connector-curvature="0"
         ns3:knockout="Off"
         d="m 372.39915,84.65869 c 0,1.463928 -1.18739,2.651316 -2.65132,2.651316 l -23.13352,0 c -1.46392,0 -2.65132,-1.187388 -2.65132,-2.651316 l 0,-23.132609 c 0,-1.464841 1.18648,-2.652229 2.65132,-2.652229 l 23.13352,0 c 1.46393,0 2.65132,1.187388 2.65132,2.652229 l 0,23.132609 z"
         id="path4547" />
      <path
         style="fill:#000000;fill-opacity:1;stroke:#000000;stroke-width:1.82534611"
         inkscape:connector-curvature="0"
         ns3:knockout="Off"
         d="m 389.3191,50.56769 c 0,1.463928 -1.1883,2.651316 -2.65222,2.651316 l -23.13353,0 c -1.46392,0 -2.65131,-1.187388 -2.65131,-2.651316 l 0,-23.133522 c 0,-1.463928 1.18647,-2.651316 2.65131,-2.651316 l 23.13353,0 c 1.46392,0 2.65222,1.187388 2.65222,2.651316 l 0,23.133522 z"
         id="path4549" />
      <path
         style="fill:#000000;fill-opacity:1;stroke:#000000;stroke-width:1.82534611"
         inkscape:connector-curvature="0"
         ns3:knockout="Off"
         d="m 397.6841,152.74751 c 0,1.46302 -1.18739,2.6495 -2.65222,2.6495 l -23.13444,0 c -1.46393,0 -2.6504,-1.1874 -2.6504,-2.6495 l 0,-23.13625 c 0,-1.46393 1.18739,-2.65041 2.6504,-2.65041 l 23.13444,0 c 1.46392,0 2.65222,1.18648 2.65222,2.65041 l 0,23.13625 z"
         id="path4551" />
      <path
         style="fill:#000000;fill-opacity:1;stroke:#000000;stroke-width:1.82534611"
         inkscape:connector-curvature="0"
         ns3:knockout="Off"
         d="m 565.56316,152.74751 c 0,1.46302 -1.18741,2.6495 -2.65224,2.6495 l -23.13261,0 c -1.46392,0 -2.65133,-1.1874 -2.65133,-2.6495 l 0,-23.13625 c 0,-1.46393 1.18741,-2.65041 2.65133,-2.65041 l 23.13261,0 c 1.46393,0 2.65224,1.18648 2.65224,2.65041 l 0,23.13625 z"
         id="path4553" />
      <path
         style="fill:#000000;fill-opacity:1;stroke:#000000;stroke-width:1.82534611"
         inkscape:connector-curvature="0"
         ns3:knockout="Off"
         d="m 899.99328,151.85756 c 0,1.46393 -1.18557,2.6504 -2.64949,2.6504 l -23.13444,0 c -1.46392,0 -2.64949,-1.18647 -2.64949,-2.6504 l 0,-23.13352 c 0,-1.46667 1.18557,-2.65314 2.64949,-2.65314 l 23.13444,0 c 1.46392,0 2.64949,1.18647 2.64949,2.65314 l 0,23.13352 z"
         id="path4555" />
      <path
         style="fill:#000000;fill-opacity:1;stroke:#000000;stroke-width:1.82534611"
         inkscape:connector-curvature="0"
         ns3:knockout="Off"
         d="m 774.28419,186.50547 c 0,1.46393 -1.18739,2.64949 -2.65131,2.64949 l -23.13262,0 c -1.46575,0 -2.65131,-1.18647 -2.65131,-2.64949 l 0,-23.13443 c 0,-1.46667 1.18556,-2.65314 2.65131,-2.65314 l 23.13262,0 c 1.46392,0 2.65131,1.18647 2.65131,2.65314 l 0,23.13443 z"
         id="path4557" />
      <path
         style="fill:#000000;fill-opacity:1;stroke:#000000;stroke-width:1.82534611"
         inkscape:connector-curvature="0"
         ns3:knockout="Off"
         d="m 899.99328,118.10156 c 0,1.46393 -1.18557,2.6504 -2.64949,2.6504 l -23.13444,0 c -1.46392,0 -2.64949,-1.18647 -2.64949,-2.6504 l 0,-23.133523 c 0,-1.466666 1.18557,-2.653141 2.64949,-2.653141 l 23.13444,0 c 1.46392,0 2.64949,1.186475 2.64949,2.653141 l 0,23.133523 z"
         id="path4559" />
      <path
         style="fill:#000000;fill-opacity:1;stroke:#000000;stroke-width:1.82534611"
         inkscape:connector-curvature="0"
         ns3:knockout="Off"
         d="m 899.99328,84.34656 c 0,1.463927 -1.18557,2.650402 -2.64949,2.650402 l -23.13444,0 c -1.46392,0 -2.64949,-1.186475 -2.64949,-2.650402 l 0,-23.133523 c 0,-1.466666 1.18557,-2.653141 2.64949,-2.653141 l 23.13444,0 c 1.46392,0 2.64949,1.186475 2.64949,2.653141 l 0,23.133523 z"
         id="path4561" />
      <path
         style="fill:#000000;fill-opacity:1;stroke:#000000;stroke-width:1.82534611"
         inkscape:connector-curvature="0"
         ns3:knockout="Off"
         d="m 899.99328,50.66156 c 0,1.463014 -1.18557,2.650402 -2.64949,2.650402 l -23.13444,0 c -1.46392,0 -2.64949,-1.187388 -2.64949,-2.650402 l 0,-23.132611 c 0,-1.466665 1.18557,-2.654053 2.64949,-2.654053 l 23.13444,0 c 1.46392,0 2.64949,1.187388 2.64949,2.654053 l 0,23.132611 z"
         id="path4563" />
      <path
         style="fill:#000000;fill-opacity:1;stroke:#000000;stroke-width:1.82534611"
         inkscape:connector-curvature="0"
         ns3:knockout="Off"
         d="m 774.28419,82.523559 c 0,1.463928 -1.18739,2.650403 -2.65131,2.650403 l -23.13262,0 c -1.46575,0 -2.65131,-1.187388 -2.65131,-2.650403 l 0,-23.133522 c 0,-1.466666 1.18556,-2.653141 2.65131,-2.653141 l 23.13262,0 c 1.46392,0 2.65131,1.186475 2.65131,2.653141 l 0,23.133522 z"
         id="path4565" />
      <path
         style="fill:#000000;fill-opacity:1;stroke:#000000;stroke-width:1.82534611"
         inkscape:connector-curvature="0"
         ns3:knockout="Off"
         d="m 774.28419,48.838559 c 0,1.463015 -1.18739,2.650403 -2.65131,2.650403 l -23.13262,0 c -1.46575,0 -2.65131,-1.187388 -2.65131,-2.650403 l 0,-23.133522 c 0,-1.465753 1.18556,-2.653141 2.65131,-2.653141 l 23.13262,0 c 1.46392,0 2.65131,1.187388 2.65131,2.653141 l 0,23.133522 z"
         id="path4567" />
      <path
         style="fill:#000000;fill-opacity:1;stroke:#000000;stroke-width:1.82534611"
         inkscape:connector-curvature="0"
         ns3:knockout="Off"
         d="m 481.4951,118.7426 c 0,1.46393 -1.18921,2.65041 -2.65131,2.65041 l -23.13444,0 c -1.46484,0 -2.65131,-1.18648 -2.65131,-2.65041 l 0,-23.134432 c 0,-1.463928 1.18647,-2.651316 2.65131,-2.651316 l 23.13444,0 c 1.46301,0 2.65131,1.187388 2.65131,2.651316 l 0,23.134432 z"
         id="path4569" />
      <path
         style="fill:#000000;fill-opacity:1;stroke:#000000;stroke-width:1.82534611"
         inkscape:connector-curvature="0"
         ns3:knockout="Off"
         d="m 447.9191,118.7426 c 0,1.46393 -1.1883,2.65041 -2.65222,2.65041 l -23.13353,0 c -1.46392,0 -2.65131,-1.18648 -2.65131,-2.65041 l 0,-23.134432 c 0,-1.463928 1.18647,-2.651316 2.65131,-2.651316 l 23.13353,0 c 1.46392,0 2.65222,1.187388 2.65222,2.651316 l 0,23.134432 z"
         id="path4571" />
      <path
         style="fill:#000000;fill-opacity:1;stroke:#000000;stroke-width:1.82534611"
         inkscape:connector-curvature="0"
         ns3:knockout="Off"
         d="m 414.34316,118.7426 c 0,1.46393 -1.18832,2.65041 -2.65132,2.65041 l -23.13444,0 c -1.46393,0 -2.65041,-1.18648 -2.65041,-2.65041 l 0,-23.134432 c 0,-1.463928 1.18648,-2.651316 2.65041,-2.651316 l 23.13444,0 c 1.46301,0 2.65132,1.187388 2.65132,2.651316 l 0,23.134432 z"
         id="path4573" />
      <path
         style="fill:#000000;fill-opacity:1;stroke:#000000;stroke-width:1.82534611"
         inkscape:connector-curvature="0"
         ns3:knockout="Off"
         d="m 515.0691,118.7426 c 0,1.46393 -1.18647,2.65041 -2.65131,2.65041 l -23.13444,0 c -1.46392,0 -2.65131,-1.18648 -2.65131,-2.65041 l 0,-23.134432 c 0,-1.463928 1.18647,-2.651316 2.65131,-2.651316 l 23.13444,0 c 1.46392,0 2.65131,1.187388 2.65131,2.651316 l 0,23.134432 z"
         id="path4575" />
      <path
         style="fill:#000000;fill-opacity:1;stroke:#000000;stroke-width:1.82534611"
         inkscape:connector-curvature="0"
         ns3:knockout="Off"
         d="m 473.1271,84.65869 c 0,1.463928 -1.1883,2.651316 -2.65131,2.651316 l -23.13444,0 c -1.46392,0 -2.65131,-1.187388 -2.65131,-2.651316 l 0,-23.132609 c 0,-1.464841 1.18739,-2.652229 2.65131,-2.652229 l 23.13444,0 c 1.46301,0 2.65131,1.187388 2.65131,2.652229 l 0,23.132609 z"
         id="path4577" />
      <path
         style="fill:#000000;fill-opacity:1;stroke:#000000;stroke-width:1.82534611"
         inkscape:connector-curvature="0"
         ns3:knockout="Off"
         d="m 439.5511,84.65869 c 0,1.463928 -1.1883,2.651316 -2.65222,2.651316 l -23.13353,0 c -1.46392,0 -2.65131,-1.187388 -2.65131,-2.651316 l 0,-23.132609 c 0,-1.464841 1.18739,-2.652229 2.65131,-2.652229 l 23.13353,0 c 1.46392,0 2.65222,1.187388 2.65222,2.652229 l 0,23.132609 z"
         id="path4579" />
      <path
         style="fill:#000000;fill-opacity:1;stroke:#000000;stroke-width:1.82534611"
         inkscape:connector-curvature="0"
         ns3:knockout="Off"
         d="m 405.97516,84.65869 c 0,1.463928 -1.1874,2.651316 -2.65132,2.651316 l -23.13353,0 c -1.46484,0 -2.65132,-1.187388 -2.65132,-2.651316 l 0,-23.132609 c 0,-1.464841 1.18648,-2.652229 2.65132,-2.652229 l 23.13353,0 c 1.46392,0 2.65132,1.187388 2.65132,2.652229 l 0,23.132609 z"
         id="path4581" />
      <path
         style="fill:#000000;fill-opacity:1;stroke:#000000;stroke-width:1.82534611"
         inkscape:connector-curvature="0"
         ns3:knockout="Off"
         d="m 506.7021,84.65869 c 0,1.463928 -1.18739,2.651316 -2.65222,2.651316 l -23.13353,0 c -1.46484,0 -2.65131,-1.187388 -2.65131,-2.651316 l 0,-23.132609 c 0,-1.464841 1.18647,-2.652229 2.65131,-2.652229 l 23.13353,0 c 1.46392,0 2.65222,1.187388 2.65222,2.652229 l 0,23.132609 z"
         id="path4583" />
      <path
         style="fill:#000000;fill-opacity:1;stroke:#000000;stroke-width:1.82534611"
         inkscape:connector-curvature="0"
         ns3:knockout="Off"
         d="m 456.47107,50.56769 c 0,1.463928 -1.18831,2.651316 -2.65224,2.651316 l -23.13352,0 c -1.46485,0 -2.65223,-1.187388 -2.65223,-2.651316 l 0,-23.133522 c 0,-1.463928 1.18738,-2.651316 2.65223,-2.651316 l 23.13352,0 c 1.46393,0 2.65224,1.187388 2.65224,2.651316 l 0,23.133522 z"
         id="path4585" />
      <path
         style="fill:#000000;fill-opacity:1;stroke:#000000;stroke-width:1.82534611"
         inkscape:connector-curvature="0"
         ns3:knockout="Off"
         d="m 422.89415,50.56769 c 0,1.463928 -1.18647,2.651316 -2.65131,2.651316 l -23.13444,0 c -1.46393,0 -2.65041,-1.187388 -2.65041,-2.651316 l 0,-23.133522 c 0,-1.463928 1.18648,-2.651316 2.65041,-2.651316 l 23.13443,0 c 1.46393,0 2.65132,1.187388 2.65132,2.651316 l 0,23.133522 z"
         id="path4587" />
      <path
         style="fill:#000000;fill-opacity:1;stroke:#000000;stroke-width:1.82534611"
         inkscape:connector-curvature="0"
         ns3:knockout="Off"
         d="m 523.6231,50.56769 c 0,1.463928 -1.1883,2.651316 -2.65222,2.651316 l -23.13353,0 c -1.46392,0 -2.65131,-1.187388 -2.65131,-2.651316 l 0,-23.133522 c 0,-1.463928 1.18647,-2.651316 2.65131,-2.651316 l 23.13353,0 c 1.46392,0 2.65222,1.187388 2.65222,2.651316 l 0,23.133522 z"
         id="path4589" />
      <path
         style="fill:#000000;fill-opacity:1;stroke:#000000;stroke-width:1.82534611"
         inkscape:connector-curvature="0"
         ns3:knockout="Off"
         d="m 490.0461,50.56769 c 0,1.463928 -1.18739,2.651316 -2.65131,2.651316 l -23.13444,0 c -1.46392,0 -2.65131,-1.187388 -2.65131,-2.651316 l 0,-23.133522 c 0,-1.463928 1.18739,-2.651316 2.65131,-2.651316 l 23.13444,0 c 1.46392,0 2.65131,1.187388 2.65131,2.651316 l 0,23.133522 z"
         id="path4591" />
      <path
         style="fill:#000000;fill-opacity:1;stroke:#000000;stroke-width:1.82534611"
         inkscape:connector-curvature="0"
         ns3:knockout="Off"
         d="m 464.83515,152.74751 c 0,1.46302 -1.1874,2.6495 -2.65132,2.6495 l -23.13353,0 c -1.46484,0 -2.65131,-1.1874 -2.65131,-2.6495 l 0,-23.13625 c 0,-1.46393 1.18648,-2.65041 2.65131,-2.65041 l 23.13353,0 c 1.46392,0 2.65132,1.18648 2.65132,2.65041 l 0,23.13625 z"
         id="path4593" />
      <path
         style="fill:#000000;fill-opacity:1;stroke:#000000;stroke-width:1.82534611"
         inkscape:connector-curvature="0"
         ns3:knockout="Off"
         d="m 431.25915,152.74751 c 0,1.46302 -1.18739,2.6495 -2.65132,2.6495 l -23.13352,0 c -1.46392,0 -2.65132,-1.1874 -2.65132,-2.6495 l 0,-23.13625 c 0,-1.46393 1.18648,-2.65041 2.65132,-2.65041 l 23.13352,0 c 1.46393,0 2.65132,1.18648 2.65132,2.65041 l 0,23.13625 z"
         id="path4595" />
      <path
         style="fill:#000000;fill-opacity:1;stroke:#000000;stroke-width:1.82534611"
         inkscape:connector-curvature="0"
         ns3:knockout="Off"
         d="m 531.9871,152.74751 c 0,1.46302 -1.18739,2.6495 -2.65131,2.6495 l -23.13444,0 c -1.46392,0 -2.65131,-1.1874 -2.65131,-2.6495 l 0,-23.13625 c 0,-1.46393 1.18739,-2.65041 2.65131,-2.65041 l 23.13444,0 c 1.46392,0 2.65131,1.18648 2.65131,2.65041 l 0,23.13625 z"
         id="path4597" />
      <path
         style="fill:#000000;fill-opacity:1;stroke:#000000;stroke-width:1.82534611"
         inkscape:connector-curvature="0"
         ns3:knockout="Off"
         d="m 498.41016,152.74751 c 0,1.46302 -1.1874,2.6495 -2.65132,2.6495 l -23.13444,0 c -1.46393,0 -2.65041,-1.1874 -2.65041,-2.6495 l 0,-23.13625 c 0,-1.46393 1.18739,-2.65041 2.65041,-2.65041 l 23.13444,0 c 1.46392,0 2.65132,1.18648 2.65132,2.65041 l 0,23.13625 z"
         id="path4599" />
      <path
         style="fill:#000000;fill-opacity:1;stroke:#000000;stroke-width:1.82534611"
         inkscape:connector-curvature="0"
         ns3:knockout="Off"
         d="m 930.98119,186.50547 c 0,1.46393 -1.1883,2.64949 -2.65039,2.64949 l -51.60346,0 c -1.46392,0 -2.65039,-1.18647 -2.65039,-2.64949 l 0,-23.13443 c 0,-1.46667 1.18647,-2.65314 2.65039,-2.65314 l 51.60345,0 c 1.46301,0 2.6504,1.18647 2.6504,2.65314 l 0,23.13443 z"
         id="path4601" />
      <path
         style="fill:#000000;fill-opacity:1;stroke:#000000;stroke-width:1.82534611"
         inkscape:connector-curvature="0"
         ns3:knockout="Off"
         d="m 1000.9653,184.67496 c 0,1.46394 -1.1875,2.65041 -2.65142,2.65041 l -23.13444,0 c -1.46393,0 -2.64949,-1.18648 -2.64949,-2.65041 l 0,-54.12333 c 0,-1.46667 1.18556,-2.65315 2.64949,-2.65315 l 23.13444,0 c 1.46392,0 2.65142,1.18648 2.65142,2.65315 l 0,54.12333 z"
         id="path4603" />
      <path
         style="fill:#000000;fill-opacity:1;stroke:#000000;stroke-width:1.82534611"
         inkscape:connector-curvature="0"
         ns3:knockout="Off"
         d="m 966.96519,118.10156 c 0,1.46393 -1.18739,2.6504 -2.65131,2.6504 l -23.13444,0 c -1.46393,0 -2.64949,-1.18647 -2.64949,-2.6504 l 0,-23.133523 c 0,-1.466666 1.18556,-2.653141 2.64949,-2.653141 l 23.13444,0 c 1.46392,0 2.65131,1.186475 2.65131,2.653141 l 0,23.133523 z"
         id="path4605" />
      <path
         style="fill:#000000;fill-opacity:1;stroke:#000000;stroke-width:1.82534611"
         inkscape:connector-curvature="0"
         ns3:knockout="Off"
         d="m 966.96519,84.34656 c 0,1.463927 -1.18739,2.650402 -2.65131,2.650402 l -23.13444,0 c -1.46393,0 -2.64949,-1.186475 -2.64949,-2.650402 l 0,-23.133523 c 0,-1.466666 1.18556,-2.653141 2.64949,-2.653141 l 23.13444,0 c 1.46392,0 2.65131,1.186475 2.65131,2.653141 l 0,23.133523 z"
         id="path4607" />
      <path
         style="fill:#000000;fill-opacity:1;stroke:#000000;stroke-width:1.82534611"
         inkscape:connector-curvature="0"
         ns3:knockout="Off"
         d="m 966.96519,186.50452 c 0,1.46393 -1.18739,2.6495 -2.65131,2.6495 l -23.13444,0 c -1.46393,0 -2.64949,-1.18557 -2.64949,-2.6495 l 0,-23.13352 c 0,-1.46667 1.18556,-2.65315 2.64949,-2.65315 l 23.13444,0 c 1.46392,0 2.65131,1.18648 2.65131,2.65315 l 0,23.13352 z"
         id="path4609" />
      <path
         style="fill:#000000;fill-opacity:1;stroke:#000000;stroke-width:1.82534611"
         inkscape:connector-curvature="0"
         ns3:knockout="Off"
         d="m 966.96519,151.85756 c 0,1.46393 -1.18739,2.6504 -2.65131,2.6504 l -23.13444,0 c -1.46393,0 -2.64949,-1.18647 -2.64949,-2.6504 l 0,-23.13352 c 0,-1.46667 1.18556,-2.65314 2.64949,-2.65314 l 23.13444,0 c 1.46392,0 2.65131,1.18647 2.65131,2.65314 l 0,23.13352 z"
         id="path4611" />
      <path
         style="fill:#000000;fill-opacity:1;stroke:#000000;stroke-width:1.82534611"
         inkscape:connector-curvature="0"
         ns3:knockout="Off"
         d="m 966.96519,50.66156 c 0,1.463014 -1.18739,2.650402 -2.65131,2.650402 l -23.13444,0 c -1.46393,0 -2.64949,-1.187388 -2.64949,-2.650402 l 0,-23.132611 c 0,-1.466665 1.18556,-2.654053 2.64949,-2.654053 l 23.13444,0 c 1.46392,0 2.65131,1.187388 2.65131,2.654053 l 0,23.132611 z"
         id="path4613" />
      <path
         style="fill:#000000;fill-opacity:1;stroke:#000000;stroke-width:1.82534611"
         inkscape:connector-curvature="0"
         ns3:knockout="Off"
         d="m 841.25616,186.50547 c 0,1.46393 -1.18831,2.64949 -2.65224,2.64949 l -23.13261,0 c -1.46575,0 -2.65133,-1.18647 -2.65133,-2.64949 l 0,-23.13443 c 0,-1.46667 1.18558,-2.65314 2.65133,-2.65314 l 23.13261,0 c 1.46393,0 2.65224,1.18647 2.65224,2.65314 l 0,23.13443 z"
         id="path4615" />
      <path
         style="fill:#000000;fill-opacity:1;stroke:#000000;stroke-width:1.82534611"
         inkscape:connector-curvature="0"
         ns3:knockout="Off"
         d="m 841.25616,82.523559 c 0,1.463928 -1.18831,2.650403 -2.65224,2.650403 l -23.13261,0 c -1.46575,0 -2.65133,-1.187388 -2.65133,-2.650403 l 0,-23.133522 c 0,-1.466666 1.18558,-2.653141 2.65133,-2.653141 l 23.13261,0 c 1.46393,0 2.65224,1.186475 2.65224,2.653141 l 0,23.133522 z"
         id="path4617" />
      <path
         style="fill:#000000;fill-opacity:1;stroke:#000000;stroke-width:1.82534611"
         inkscape:connector-curvature="0"
         ns3:knockout="Off"
         d="m 841.25616,48.838559 c 0,1.463015 -1.18831,2.650403 -2.65224,2.650403 l -23.13261,0 c -1.46575,0 -2.65133,-1.187388 -2.65133,-2.650403 l 0,-23.133522 c 0,-1.465753 1.18558,-2.653141 2.65133,-2.653141 l 23.13261,0 c 1.46393,0 2.65224,1.187388 2.65224,2.653141 l 0,23.133522 z"
         id="path4619" />
      <path
         style="fill:#000000;fill-opacity:1;stroke:#000000;stroke-width:1.82534611"
         inkscape:connector-curvature="0"
         ns3:knockout="Off"
         d="m 582.2231,118.7426 c 0,1.46393 -1.1883,2.65041 -2.65131,2.65041 l -23.13444,0 c -1.46301,0 -2.65131,-1.18648 -2.65131,-2.65041 l 0,-23.134432 c 0,-1.463928 1.1883,-2.651316 2.65131,-2.651316 l 23.13444,0 c 1.46392,0 2.65131,1.187388 2.65131,2.651316 l 0,23.134432 z"
         id="path4621" />
      <path
         style="fill:#000000;fill-opacity:1;stroke:#000000;stroke-width:1.82534611"
         inkscape:connector-curvature="0"
         ns3:knockout="Off"
         d="m 573.85515,84.65869 c 0,1.463928 -1.18648,2.651316 -2.65132,2.651316 l -23.13352,0 c -1.46393,0 -2.65132,-1.187388 -2.65132,-2.651316 l 0,-23.132609 c 0,-1.464841 1.1874,-2.652229 2.65132,-2.652229 l 23.13352,0 c 1.46484,0 2.65132,1.187388 2.65132,2.652229 l 0,23.132609 z"
         id="path4623" />
      <path
         style="fill:#000000;fill-opacity:1;stroke:#000000;stroke-width:1.82534611"
         inkscape:connector-curvature="0"
         ns3:knockout="Off"
         d="m 590.7751,50.56769 c 0,1.463928 -1.1883,2.651316 -2.65314,2.651316 l -23.13261,0 c -1.46392,0 -2.65131,-1.187388 -2.65131,-2.651316 l 0,-23.133522 c 0,-1.463928 1.18739,-2.651316 2.65131,-2.651316 l 23.13261,0 c 1.46393,0 2.65314,1.187388 2.65314,2.651316 l 0,23.133522 z"
         id="path4625" />
      <path
         style="fill:#000000;fill-opacity:1;stroke:#000000;stroke-width:1.82534611"
         inkscape:connector-curvature="0"
         ns3:knockout="Off"
         d="m 347.1911,118.7426 c 0,1.46393 -1.1883,2.65041 -2.65222,2.65041 l -23.13353,0 c -1.46392,0 -2.65131,-1.18648 -2.65131,-2.65041 l 0,-23.134432 c 0,-1.463928 1.18739,-2.651316 2.65131,-2.651316 l 23.13353,0 c 1.46392,0 2.65222,1.187388 2.65222,2.651316 l 0,23.134432 z"
         id="path4627" />
      <path
         style="fill:#000000;fill-opacity:1;stroke:#000000;stroke-width:1.82534611"
         inkscape:connector-curvature="0"
         ns3:knockout="Off"
         d="m 338.82315,84.65869 c 0,1.463928 -1.18831,2.651316 -2.65132,2.651316 l -23.13444,0 c -1.46393,0 -2.65041,-1.187388 -2.65041,-2.651316 l 0,-23.132609 c 0,-1.464841 1.18648,-2.652229 2.65041,-2.652229 l 23.13444,0 c 1.46392,0 2.65132,1.187388 2.65132,2.652229 l 0,23.132609 z"
         id="path4629" />
      <path
         style="fill:#000000;fill-opacity:1;stroke:#000000;stroke-width:1.82534611"
         inkscape:connector-curvature="0"
         ns3:knockout="Off"
         d="m 355.74216,50.56769 c 0,1.463928 -1.1874,2.651316 -2.65132,2.651316 l -23.13445,0 c -1.46392,0 -2.6504,-1.187388 -2.6504,-2.651316 l 0,-23.133522 c 0,-1.463928 1.18648,-2.651316 2.6504,-2.651316 l 23.13445,0 c 1.46392,0 2.65132,1.187388 2.65132,2.651316 l 0,23.133522 z"
         id="path4631" />
      <path
         style="fill:#000000;fill-opacity:1;stroke:#000000;stroke-width:1.82534611"
         inkscape:connector-curvature="0"
         ns3:knockout="Off"
         d="m 364.10716,152.74751 c 0,1.46302 -1.1874,2.6495 -2.65042,2.6495 l -23.13443,0 c -1.46393,0 -2.65132,-1.1874 -2.65132,-2.6495 l 0,-23.13625 c 0,-1.46393 1.18739,-2.65041 2.65132,-2.65041 l 23.13443,0 c 1.46393,0 2.65042,1.18648 2.65042,2.65041 l 0,23.13625 z"
         id="path4633" />
      <path
         style="fill:#000000;fill-opacity:1;stroke:#000000;stroke-width:1.82534611"
         inkscape:connector-curvature="0"
         ns3:knockout="Off"
         d="m 599.13815,152.74751 c 0,1.46302 -1.18648,2.6495 -2.65041,2.6495 l -23.13352,0 c -1.46393,0 -2.65223,-1.1874 -2.65223,-2.6495 l 0,-23.13625 c 0,-1.46393 1.1874,-2.65041 2.65223,-2.65041 l 23.13352,0 c 1.46393,0 2.65041,1.18648 2.65041,2.65041 l 0,23.13625 z"
         id="path4635" />
      <path
         style="fill:#000000;fill-opacity:1;stroke:#000000;stroke-width:1.82534611"
         inkscape:connector-curvature="0"
         ns3:knockout="Off"
         d="m 322.16615,50.56769 c 0,1.463928 -1.18739,2.651316 -2.65132,2.651316 l -23.13352,0 c -1.46484,0 -2.65132,-1.187388 -2.65132,-2.651316 l 0,-23.133522 c 0,-1.463928 1.18648,-2.651316 2.65132,-2.651316 l 23.13352,0 c 1.46393,0 2.65132,1.187388 2.65132,2.651316 l 0,23.133522 z"
         id="path4637" />
      <path
         style="fill:#000000;fill-opacity:1;stroke:#000000;stroke-width:1.82534611"
         inkscape:connector-curvature="0"
         ns3:knockout="Off"
         d="m 1000.6263,115.71579 c 0,1.46393 -1.18564,2.65041 -2.64955,2.65041 l -23.13443,0 c -1.46393,0 -2.6504,-1.1874 -2.6504,-2.65041 l 0,-51.953903 c 0,-1.465754 1.18647,-2.652229 2.6504,-2.652229 l 23.13443,0 c 1.46391,0 2.64955,1.186475 2.64955,2.652229 l 0,51.953903 z"
         id="path4639" />
      <path
         style="fill:#000000;fill-opacity:1;stroke:#000000;stroke-width:1.82534611"
         inkscape:connector-curvature="0"
         ns3:knockout="Off"
         d="m 1000.6263,50.66156 c 0,1.463014 -1.18564,2.650402 -2.64955,2.650402 l -23.13443,0 c -1.46393,0 -2.6504,-1.187388 -2.6504,-2.650402 l 0,-23.132611 c 0,-1.466665 1.18647,-2.654053 2.6504,-2.654053 l 23.13443,0 c 1.46391,0 2.64955,1.187388 2.64955,2.654053 l 0,23.132611 z"
         id="path4641" />
      <path
         style="fill:#000000;fill-opacity:1;stroke:#000000;stroke-width:1.82534611"
         inkscape:connector-curvature="0"
         ns3:knockout="Off"
         d="m 615.79719,118.7426 c 0,1.46393 -1.18739,2.65041 -2.65131,2.65041 l -23.13262,0 c -1.46392,0 -2.65131,-1.18648 -2.65131,-2.65041 l 0,-23.134432 c 0,-1.463928 1.18739,-2.651316 2.65131,-2.651316 l 23.13262,0 c 1.46392,0 2.65131,1.187388 2.65131,2.651316 l 0,23.134432 z"
         id="path4643" />
      <path
         style="fill:#000000;fill-opacity:1;stroke:#000000;stroke-width:1.82534611"
         inkscape:connector-curvature="0"
         ns3:knockout="Off"
         d="m 682.95019,118.7426 c 0,1.46393 -1.18556,2.65041 -2.64949,2.65041 l -23.13626,0 c -1.46301,0 -2.64949,-1.18648 -2.64949,-2.65041 l 0,-23.134432 c 0,-1.463928 1.18739,-2.651316 2.64949,-2.651316 l 23.13626,0 c 1.46393,0 2.64949,1.187388 2.64949,2.651316 l 0,23.134432 z"
         id="path4645" />
      <path
         style="fill:#000000;fill-opacity:1;stroke:#000000;stroke-width:1.82534611"
         inkscape:connector-curvature="0"
         ns3:knockout="Off"
         d="m 649.37419,118.7426 c 0,1.46393 -1.18556,2.65041 -2.65131,2.65041 l -23.13262,0 c -1.46392,0 -2.65131,-1.18648 -2.65131,-2.65041 l 0,-23.134432 c 0,-1.463928 1.18739,-2.651316 2.65131,-2.651316 l 23.1317,0 c 1.46575,0 2.65132,1.187388 2.65132,2.651316 l 0,23.134432 z"
         id="path4647" />
      <path
         style="fill:#000000;fill-opacity:1;stroke:#000000;stroke-width:1.82534611"
         inkscape:connector-curvature="0"
         ns3:knockout="Off"
         d="m 607.43016,84.65869 c 0,1.463928 -1.18648,2.651316 -2.65041,2.651316 l -23.13535,0 c -1.46302,0 -2.65042,-1.187388 -2.65042,-2.651316 l 0,-23.132609 c 0,-1.464841 1.18832,-2.652229 2.65042,-2.652229 l 23.13535,0 c 1.46393,0 2.65041,1.187388 2.65041,2.652229 l 0,23.132609 z"
         id="path4649" />
      <path
         style="fill:#000000;fill-opacity:1;stroke:#000000;stroke-width:1.82534611"
         inkscape:connector-curvature="0"
         ns3:knockout="Off"
         d="m 674.58319,84.65869 c 0,1.463928 -1.18921,2.651316 -2.65131,2.651316 l -23.13262,0 c -1.46575,0 -2.65131,-1.187388 -2.65131,-2.651316 l 0,-23.132609 c 0,-1.464841 1.18556,-2.652229 2.65131,-2.652229 l 23.13262,0 c 1.46301,0 2.65131,1.187388 2.65131,2.652229 l 0,23.132609 z"
         id="path4651" />
      <path
         style="fill:#000000;fill-opacity:1;stroke:#000000;stroke-width:1.82534611"
         inkscape:connector-curvature="0"
         ns3:knockout="Off"
         d="m 641.00616,84.65869 c 0,1.463928 -1.18558,2.651316 -2.65133,2.651316 l -23.13443,0 c -1.46393,0 -2.65041,-1.187388 -2.65041,-2.651316 l 0,-23.132609 c 0,-1.464841 1.1874,-2.652229 2.65041,-2.652229 l 23.13443,0 c 1.46575,0 2.65133,1.187388 2.65133,2.652229 l 0,23.132609 z"
         id="path4653" />
      <path
         style="fill:#000000;fill-opacity:1;stroke:#000000;stroke-width:1.82534611"
         inkscape:connector-curvature="0"
         ns3:knockout="Off"
         d="m 657.92428,50.56769 c 0,1.463928 -1.18739,2.651316 -2.64949,2.651316 l -23.13353,0 c -1.46483,0 -2.6504,-1.187388 -2.6504,-2.651316 l 0,-23.133522 c 0,-1.463928 1.18557,-2.651316 2.6504,-2.651316 l 23.13353,0 c 1.46301,0 2.64949,1.187388 2.64949,2.651316 l 0,23.133522 z"
         id="path4655" />
      <path
         style="fill:#000000;fill-opacity:1;stroke:#000000;stroke-width:1.82534611"
         inkscape:connector-curvature="0"
         ns3:knockout="Off"
         d="m 624.34822,50.56769 c 0,1.463928 -1.18373,2.651316 -2.64948,2.651316 l -23.13351,0 c -1.46394,0 -2.65131,-1.187388 -2.65131,-2.651316 l 0,-23.133522 c 0,-1.463928 1.18738,-2.651316 2.65131,-2.651316 l 23.13351,0 c 1.46575,0 2.64948,1.187388 2.64948,2.651316 l 0,23.133522 z"
         id="path4657" />
      <path
         style="fill:#000000;fill-opacity:1;stroke:#000000;stroke-width:1.82534611"
         inkscape:connector-curvature="0"
         ns3:knockout="Off"
         d="m 714.86638,186.50547 c 0,1.46393 -1.18739,2.64949 -2.65041,2.64949 l -28.62781,0 c -1.46393,0 -2.6504,-1.18647 -2.6504,-2.64949 l 0,-23.13443 c 0,-1.46667 1.1874,-2.65314 2.6504,-2.65314 l 28.62781,0 c 1.46394,0 2.65041,1.18647 2.65041,2.65314 l 0,23.13443 z"
         id="path4659" />
      <path
         style="fill:#000000;fill-opacity:1;stroke:#000000;stroke-width:1.82534611"
         inkscape:connector-curvature="0"
         ns3:knockout="Off"
         d="m 711.6815,153.08865 c 0,1.46301 -1.18555,2.65131 -2.64948,2.65131 l -64.6209,0 c -1.46484,0 -2.64948,-1.1883 -2.64948,-2.65131 l 0,-23.13261 c 0,-1.46667 1.18464,-2.65314 2.64948,-2.65314 l 64.6209,0 c 1.46393,0 2.64948,1.18647 2.64948,2.65314 l 0,23.13261 z"
         id="path4661" />
      <path
         style="fill:#000000;fill-opacity:1;stroke:#000000;stroke-width:1.82534611"
         inkscape:connector-curvature="0"
         ns3:knockout="Off"
         d="m 713.56857,50.785472 c 0,1.462102 -1.18738,2.64949 -2.65039,2.64949 l -43.29539,0 c -1.46393,0 -2.65222,-1.187388 -2.65222,-2.64949 l 0,-23.134435 c 0,-1.465753 1.18921,-2.653141 2.65222,-2.653141 l 43.29539,0 c 1.46392,0 2.65039,1.187388 2.65039,2.653141 l 0,23.134435 z"
         id="path4663" />
      <path
         style="fill:#000000;fill-opacity:1;stroke:#000000;stroke-width:1.82534611"
         inkscape:connector-curvature="0"
         ns3:knockout="Off"
         d="m 712.21498,61.428557 -28.62781,0 c -1.46393,0 -2.6504,1.185562 -2.6504,2.651316 l 0,23.134435 c 0,1.463927 1.18739,2.650402 2.6504,2.650402 l 5.21592,0 0,26.31509 c 0,1.46302 1.18739,2.6495 2.65223,2.6495 l 20.75966,0 c 1.46393,0 2.6504,-1.18648 2.6504,-2.6495 l 0,-28.965492 0,-1.524164 0,-21.610271 c 9.1e-4,-1.465754 -1.18647,-2.651316 -2.6504,-2.651316 z"
         id="path4665" />
      <path
         style="fill:#000000;fill-opacity:1;stroke:#000000;stroke-width:1.82534611"
         inkscape:connector-curvature="0"
         ns3:knockout="Off"
         d="m 632.71515,152.74751 c 0,1.46302 -1.1874,2.6495 -2.65131,2.6495 l -23.13444,0 c -1.46394,0 -2.65041,-1.1874 -2.65041,-2.6495 l 0,-23.13625 c 0,-1.46393 1.18647,-2.65041 2.65041,-2.65041 l 23.13444,0 c 1.46391,0 2.65131,1.18648 2.65131,2.65041 l 0,23.13625 z"
         id="path4667" />
      <path
         style="fill:#000000;fill-opacity:1;stroke:#000000;stroke-width:1.82534611"
         inkscape:connector-curvature="0"
         ns3:knockout="Off"
         d="m 313.61506,118.7426 c 0,1.46393 -1.18739,2.65041 -2.65223,2.65041 l -23.13353,0 c -1.46484,0 -2.65223,-1.18648 -2.65223,-2.65041 l 0,-23.134432 c 0,-1.463928 1.18648,-2.651316 2.65223,-2.651316 l 23.13353,0 c 1.46392,0 2.65223,1.187388 2.65223,2.651316 l 0,23.134432 z"
         id="path4669" />
      <path
         style="fill:#000000;fill-opacity:1;stroke:#000000;stroke-width:1.82534611"
         inkscape:connector-curvature="0"
         ns3:knockout="Off"
         d="m 305.24806,84.65869 c 0,1.463928 -1.18831,2.651316 -2.65223,2.651316 l -23.13352,0 c -1.46485,0 -2.65223,-1.187388 -2.65223,-2.651316 l 0,-23.132609 c 0,-1.464841 1.18647,-2.652229 2.65223,-2.652229 l 23.1326,0 c 1.46393,0 2.65224,1.187388 2.65224,2.652229 l 0,23.132609 z"
         id="path4671" />
      <path
         style="fill:#000000;fill-opacity:1;stroke:#000000;stroke-width:1.82534611"
         inkscape:connector-curvature="0"
         ns3:knockout="Off"
         d="m 288.59023,50.56769 c 0,1.463928 -1.18738,2.651316 -2.65131,2.651316 l -23.13352,0 c -1.46393,0 -2.65041,-1.187388 -2.65041,-2.651316 l 0,-23.133522 c 0,-1.463928 1.18648,-2.651316 2.65041,-2.651316 l 23.13444,0 c 1.46392,0 2.65132,1.187388 2.65132,2.651316 l 0,23.133522 z"
         id="path4673" />
      <path
         style="fill:#000000;fill-opacity:1;stroke:#000000;stroke-width:1.82534611"
         inkscape:connector-curvature="0"
         ns3:knockout="Off"
         d="m 254.5271,50.56769 c 0,1.463928 -1.18739,2.651316 -2.65131,2.651316 l -23.13444,0 c -1.46392,0 -2.65131,-1.187388 -2.65131,-2.651316 l 0,-23.133522 c 0,-1.463928 1.18647,-2.651316 2.65131,-2.651316 l 23.13444,0 c 1.46392,0 2.65131,1.187388 2.65131,2.651316 l 0,23.133522 z"
         id="path4675" />
      <path
         style="fill:#000000;fill-opacity:1;stroke:#000000;stroke-width:1.82534611"
         inkscape:connector-curvature="0"
         ns3:knockout="Off"
         d="m 330.53115,152.74751 c 0,1.46302 -1.18831,2.6495 -2.65131,2.6495 l -23.13444,0 c -1.46393,0 -2.65041,-1.1874 -2.65041,-2.6495 l 0,-23.13625 c 0,-1.46393 1.18648,-2.65041 2.65041,-2.65041 l 23.13444,0 c 1.46392,0 2.65131,1.18648 2.65131,2.65041 l 0,23.13625 z"
         id="path4677" />
      <path
         style="fill:#000000;fill-opacity:1;stroke:#000000;stroke-width:1.82534611"
         inkscape:connector-curvature="0"
         ns3:knockout="Off"
         d="m 296.95515,152.74751 c 0,1.46302 -1.18739,2.6495 -2.6504,2.6495 l -23.13444,0 c -1.46393,0 -2.65133,-1.1874 -2.65133,-2.6495 l 0,-23.13625 c 0,-1.46393 1.1874,-2.65041 2.65133,-2.65041 l 23.13444,0 c 1.46301,0 2.6504,1.18648 2.6504,2.65041 l 0,23.13625 z"
         id="path4679" />
      <path
         style="fill:#000000;fill-opacity:1;stroke:#000000;stroke-width:1.82534611"
         inkscape:connector-curvature="0"
         ns3:knockout="Off"
         d="m 262.84138,152.74751 c 0,1.46302 -1.1883,2.6495 -2.65131,2.6495 l -30.57181,0 c -1.46393,0 -2.6504,-1.1874 -2.6504,-2.6495 l 0,-23.13625 c 0,-1.46393 1.18647,-2.65041 2.6504,-2.65041 l 30.57271,0 c 1.46302,0 2.65132,1.18648 2.65132,2.65041 l 0,23.13625 z"
         id="path4681" />
      <path
         style="fill:#000000;fill-opacity:1;stroke:#000000;stroke-width:1.82534611"
         inkscape:connector-curvature="0"
         ns3:knockout="Off"
         d="m 269.42337,186.50547 c 0,1.46393 -1.18831,2.64949 -2.65223,2.64949 l -36.81815,0 c -1.46483,0 -2.65222,-1.18647 -2.65222,-2.64949 l 0,-23.13443 c 0,-1.46667 1.18739,-2.65314 2.65222,-2.65314 l 36.81815,0 c 1.46392,0 2.65223,1.18647 2.65223,2.65314 l 0,23.13443 z"
         id="path4683" />
      <path
         style="fill:#000000;fill-opacity:1;stroke:#000000;stroke-width:1.82534611"
         inkscape:connector-curvature="0"
         ns3:knockout="Off"
         d="m 270.43488,84.658647 c 0,1.463927 -1.1883,2.651315 -2.65223,2.651315 l -37.74816,0 c -1.46484,0 -2.65223,-1.187388 -2.65223,-2.651315 l 0,-23.13261 c 0,-1.465753 1.18648,-2.653141 2.65223,-2.653141 l 37.74816,0 c 1.46393,0 2.65223,1.187388 2.65223,2.653141 l 0,23.13261 z"
         id="path4685" />
      <path
         style="fill:#000000;fill-opacity:1;stroke:#000000;stroke-width:1.82534611"
         inkscape:connector-curvature="0"
         ns3:knockout="Off"
         d="m 278.01855,118.74256 c 0,1.46301 -1.18739,2.6504 -2.65132,2.6504 l -44.71641,0 c -1.46484,0 -2.65223,-1.18739 -2.65223,-2.6504 l 0,-23.134436 c 0,-1.46484 1.18739,-2.652228 2.65223,-2.652228 l 44.71641,0 c 1.46393,0 2.65132,1.187388 2.65132,2.652228 l 0,23.134436 z"
         id="path4687" />
      <path
         style="fill:#000000;fill-opacity:1;stroke:#000000;stroke-width:1.82534611"
         inkscape:connector-curvature="0"
         ns3:knockout="Off"
         d="m 304.9041,186.50547 c 0,1.46393 -1.18739,2.64949 -2.65131,2.64949 l -23.13353,0 c -1.46575,0 -2.65222,-1.18647 -2.65222,-2.64949 l 0,-23.13443 c 0,-1.46667 1.18647,-2.65314 2.65222,-2.65314 l 23.13353,0 c 1.46392,0 2.65131,1.18647 2.65131,2.65314 l 0,23.13443 z"
         id="path4689" />
      <path
         style="fill:#000000;fill-opacity:1;stroke:#000000;stroke-width:1.82534611"
         inkscape:connector-curvature="0"
         ns3:knockout="Off"
         d="m 641.41516,186.50547 c 0,1.46393 -1.18648,2.64949 -2.64951,2.64949 l -23.13535,0 c -1.46392,0 -2.65132,-1.18647 -2.65132,-2.64949 l 0,-23.13443 c 0,-1.46667 1.18648,-2.65314 2.65132,-2.65314 l 23.13535,0 c 1.46393,0 2.64951,1.18647 2.64951,2.65314 l 0,23.13443 z"
         id="path4691" />
      <path
         style="fill:#000000;fill-opacity:1;stroke:#000000;stroke-width:1.82534611"
         inkscape:connector-curvature="0"
         ns3:knockout="Off"
         d="m 674.9931,186.50547 c 0,1.46393 -1.18739,2.64949 -2.65314,2.64949 l -23.13261,0 c -1.46392,0 -2.65131,-1.18647 -2.65131,-2.64949 l 0,-23.13443 c 0,-1.46667 1.18739,-2.65314 2.65131,-2.65314 l 23.13261,0 c 1.46575,0 2.65314,1.18647 2.65314,2.65314 l 0,23.13443 z"
         id="path4693" />
      <path
         style="fill:#000000;fill-opacity:1;stroke:#000000;stroke-width:1.82534611"
         inkscape:connector-curvature="0"
         ns3:knockout="Off"
         d="m 352.09187,186.50547 c 0,1.46393 -1.18921,2.64949 -2.65131,2.64949 l -35.63988,0 c -1.46393,0 -2.6504,-1.18647 -2.6504,-2.64949 l 0,-23.13443 c 0,-1.46667 1.18647,-2.65314 2.6504,-2.65314 l 35.63988,0 c 1.46301,0 2.65131,1.18647 2.65131,2.65314 l 0,23.13443 z"
         id="path4695" />
      <path
         style="fill:#000000;fill-opacity:1;stroke:#000000;stroke-width:1.82534611"
         inkscape:connector-curvature="0"
         ns3:knockout="Off"
         d="m 606.35841,186.50361 c 0,1.46393 -1.18647,2.65132 -2.65132,2.65132 l -36.81813,0 c -1.46394,0 -2.65223,-1.18831 -2.65223,-2.65132 l 0,-23.13535 c 0,-1.46393 1.18829,-2.65132 2.65223,-2.65132 l 36.81813,0 c 1.46485,0 2.65132,1.18648 2.65132,2.65132 l 0,23.13535 z"
         id="path4697" />
      <path
         style="fill:#000000;fill-opacity:1;stroke:#000000;stroke-width:1.82534611"
         inkscape:connector-curvature="0"
         ns3:knockout="Off"
         d="m 545.29733,186.50547 c 0,1.46393 -1.18739,2.64949 -2.65223,2.64949 l -168.77696,0 c -1.46394,0 -2.65132,-1.18647 -2.65132,-2.64949 l 0,-23.13443 c 0,-1.46667 1.18738,-2.65314 2.65132,-2.65314 l 168.77696,0 c 1.46485,0 2.65223,1.18647 2.65223,2.65314 l 0,23.13443 z"
         id="path4699" />
      <g
         style="fill:#000000;fill-opacity:1"
         transform="matrix(0.912673,0,0,1,214.02972,-11.428571)"
         id="g4701">
        <line
           style="fill:#000000;fill-opacity:1;stroke:#000000;stroke-width:2;stroke-linecap:round"
           ns3:knockout="Off"
           x1="203.87801"
           y1="128.35001"
           x2="213.399"
           y2="128.35001"
           id="line4703" />
        <line
           style="fill:#000000;fill-opacity:1;stroke:#000000;stroke-width:2;stroke-linecap:round"
           ns3:knockout="Off"
           x1="304.22198"
           y1="128.35001"
           x2="313.74301"
           y2="128.35001"
           id="line4705" />
      </g>
    </g>
    <g
       id="g5438"
       transform="translate(0,-40)">
      <g
         style="fill:#82d0f4;fill-opacity:1;stroke:#000000;stroke-width:20;stroke-miterlimit:4;stroke-dasharray:none;stroke-opacity:1"
         clip-path="url(#clipPath5076)"
         transform="matrix(0.75477708,0.55925749,-0.54114399,0.78004144,402.58977,-168.95316)"
         id="g5046">
        <path
           style="fill:#82d0f4;fill-opacity:1;stroke:#000000;stroke-width:20;stroke-miterlimit:4;stroke-dasharray:none;stroke-opacity:1"
           inkscape:connector-curvature="0"
           d="m 727.6,161.2 c 22.5,15.1 43.1,32.2 61.7,51 l 70,-39.3 c 33.2,27 56,58.8 68.5,95.5 l -61.5,52.1 c 5.8,11.6 10.9,23.5 15.5,35.7 4.9,12.8 9,25.9 12.6,39.2 l 80.3,1 c 15.2,40 19.1,79 11.6,117 l -79.1,14.4 c -1.8,26.4 -6.2,52.8 -13.3,78.9 l 69,41 c -6.8,42.1 -22.9,77.8 -48.5,107 l -75.7,-27.1 c -15.1,22.5 -32.1,43.1 -50.9,61.8 l 39.3,69.9 c -26.9,33.2 -58.9,56 -95.5,68.5 l -52.1,-61.4 c -11.7,5.7 -23.5,10.9 -35.7,15.4 -12.9,4.9 -25.9,9 -39.2,12.5 l -1,80.4 c -39.9,15.2 -78.9,19 -117,11.6 l -14.4,-79.1 c -26.3,-1.8 -52.8,-6.2 -79,-13.3 l -40.9,69 c -42.2,-6.8 -77.9,-23 -107.1,-48.5 l 27.1,-75.7 c -22.5,-15 -43.1,-32.1 -61.7,-50.9 l -70,39.4 c -33.1,-27 -56,-58.9 -68.5,-95.6 l 61.4,-52 C 127.8,668 122.7,656 118.1,644 113.2,631.1 109,618 105.5,604.8 L 25.2,603.7 C 10,563.8 6.1,524.8 13.6,486.8 l 79.1,-14.4 c 1.8,-26.3 6.2,-52.7 13.3,-78.9 l -69,-41 c 6.8,-42.2 23,-77.8 48.5,-107.1 l 75.7,27.1 c 15.1,-22.5 32.2,-43.1 50.9,-61.7 l -39.3,-70 c 27,-33.1 58.8,-56 95.5,-68.5 l 52.1,61.4 c 11.7,-5.7 23.5,-10.8 35.7,-15.4 12.8,-4.9 25.9,-9 39.2,-12.6 l 1,-80.3 C 436.2,10.2 475.2,6.3 513.2,13.8 l 14.4,79.1 c 26.4,1.8 52.8,6.2 78.9,13.3 l 41,-69 c 42.1,6.8 77.8,23 107.1,48.5 l -27,75.5 0,0 z M 752.3,405 C 728,340.4 679,285.1 611.2,254.4 543.3,223.7 469.5,223.4 404.9,247.7 340.4,272 285.1,321 254.4,388.8 c -30.7,67.8 -31,141.6 -6.7,206.3 24.3,64.5 73.2,119.8 141.1,150.5 67.8,30.8 141.6,31 206.2,6.7 64.6,-24.2 119.9,-73.2 150.5,-141.1 30.8,-67.8 31.1,-141.7 6.8,-206.2 z"
           id="path5048" />
      </g>
      <path
         sodipodi:nodetypes="cc"
         inkscape:connector-curvature="0"
         id="path5377-3"
         d="M 268.15371,446.2931 53.636131,445.47374"
         style="fill:none;fill-rule:evenodd;stroke:#000000;stroke-width:19.85622597;stroke-linecap:butt;stroke-linejoin:miter;stroke-miterlimit:4;stroke-dasharray:none;stroke-opacity:1" />
      <path
         sodipodi:nodetypes="cc"
         inkscape:connector-curvature="0"
         id="path5377-3-6"
         d="M 964.76363,446.97618 747.83534,446.78182"
         style="fill:none;fill-rule:evenodd;stroke:#000000;stroke-width:19.85622597;stroke-linecap:butt;stroke-linejoin:miter;stroke-miterlimit:4;stroke-dasharray:none;stroke-opacity:1" />
    </g>
  </g>
</svg>
