<?xml version="1.0" encoding="UTF-8" standalone="no"?>
<!-- Created with Inkscape (http://www.inkscape.org/) -->

<svg
   xmlns:ns3="http://ns.adobe.com/AdobeIllustrator/10.0/"
   xmlns:dc="http://purl.org/dc/elements/1.1/"
   xmlns:cc="http://creativecommons.org/ns#"
   xmlns:rdf="http://www.w3.org/1999/02/22-rdf-syntax-ns#"
   xmlns:svg="http://www.w3.org/2000/svg"
   xmlns="http://www.w3.org/2000/svg"
   xmlns:sodipodi="http://sodipodi.sourceforge.net/DTD/sodipodi-0.dtd"
   xmlns:inkscape="http://www.inkscape.org/namespaces/inkscape"
   width="2000"
   height="1000"
   viewBox="0 0 2000 1000"
   id="svg4263"
   version="1.1"
   inkscape:version="0.91 r13725"
   sodipodi:docname="flag.svg"
   inkscape:export-filename="/home/kzk/Workspace/yining-map/tools/kaizoku/logo.png"
   inkscape:export-xdpi="90"
   inkscape:export-ydpi="90">
  <defs
     id="defs4265">
    <clipPath
       clipPathUnits="userSpaceOnUse"
       id="clipPath5076">
      <path
         style="fill:#000000;fill-opacity:1;stroke:#000000;stroke-width:1.23921037;stroke-opacity:1"
         d="M -56.658428,815.83641 930.88574,109.81583 1401.9114,768.66167 414.36731,1474.6822 Z"
         id="path5078"
         inkscape:connector-curvature="0" />
    </clipPath>
  </defs>
  <sodipodi:namedview
     id="base"
     pagecolor="#ffffff"
     bordercolor="#666666"
     borderopacity="1.0"
     inkscape:pageopacity="1"
     inkscape:pageshadow="2"
     inkscape:zoom="0.35355339"
     inkscape:cx="1067.4256"
     inkscape:cy="428.54212"
     inkscape:document-units="px"
     inkscape:current-layer="layer1"
     showgrid="false"
     units="px"
     inkscape:window-width="1303"
     inkscape:window-height="744"
     inkscape:window-x="65"
     inkscape:window-y="24"
     inkscape:window-maximized="1"
     inkscape:object-paths="false"
     inkscape:snap-global="true"
     showguides="true"
     inkscape:guide-bbox="true"
     inkscape:snap-midpoints="true"
     inkscape:snap-intersection-paths="false"
     inkscape:snap-bbox="true"
     inkscape:bbox-nodes="true" />
  <metadata
     id="metadata4268">
    <rdf:RDF>
      <cc:Work
         rdf:about="">
        <dc:format>image/svg+xml</dc:format>
        <dc:type
           rdf:resource="http://purl.org/dc/dcmitype/StillImage" />
        <dc:title></dc:title>
      </cc:Work>
    </rdf:RDF>
  </metadata>
  <g
     inkscape:label="Layer 1"
     inkscape:groupmode="layer"
     id="layer1"
     transform="translate(0,-52.362161)">
    <g
       id="g5280"
       transform="matrix(-5.0650446e-4,0.99999986,-0.99999986,-5.0650446e-4,1107.9188,-50.007859)">
      <path
         style="fill:#82d0f4;fill-opacity:1;stroke:#000000;stroke-width:20;stroke-linejoin:bevel;stroke-miterlimit:4;stroke-dasharray:none;stroke-opacity:1"
         inkscape:connector-curvature="0"
         ns3:knockout="Off"
         d="m 1028.5267,208.81031 c 0,5.21226 -3.9081,9.4345 -8.7306,9.4345 l -810.61685,0 c -4.82245,0 -8.73163,-4.22224 -8.73163,-9.4345 l 0,-202.0079064 c 0,-5.2110606 3.90918,-9.4344977 8.73163,-9.4344977 l 810.61575,0 c 4.8236,0 8.7307,4.2234371 8.7307,9.4344977 l 0,202.0079064 z"
         id="path4521" />
      <path
         style="fill:#000000;fill-opacity:1;stroke:#000000;stroke-width:1.82534611"
         inkscape:connector-curvature="0"
         ns3:knockout="Off"
         d="m 933.49919,151.85756 c 0,1.46393 -1.18739,2.6504 -2.64949,2.6504 l -23.13444,0 c -1.46575,0 -2.65131,-1.18647 -2.65131,-2.6504 l 0,-23.13352 c 0,-1.46667 1.18556,-2.65314 2.65131,-2.65314 l 23.13444,0 c 1.46301,0 2.64949,1.18647 2.64949,2.65314 l 0,23.13352 z"
         id="path4523" />
      <path
         style="fill:#000000;fill-opacity:1;stroke:#000000;stroke-width:1.82534611"
         inkscape:connector-curvature="0"
         ns3:knockout="Off"
         d="m 933.49919,118.10156 c 0,1.46393 -1.18739,2.6504 -2.64949,2.6504 l -23.13444,0 c -1.46575,0 -2.65131,-1.18647 -2.65131,-2.6504 l 0,-23.133523 c 0,-1.466666 1.18556,-2.653141 2.65131,-2.653141 l 23.13444,0 c 1.46301,0 2.64949,1.186475 2.64949,2.653141 l 0,23.133523 z"
         id="path4525" />
      <path
         style="fill:#000000;fill-opacity:1;stroke:#000000;stroke-width:1.82534611"
         inkscape:connector-curvature="0"
         ns3:knockout="Off"
         d="m 933.49919,84.34656 c 0,1.463927 -1.18739,2.650402 -2.64949,2.650402 l -23.13444,0 c -1.46575,0 -2.65131,-1.186475 -2.65131,-2.650402 l 0,-23.133523 c 0,-1.466666 1.18556,-2.653141 2.65131,-2.653141 l 23.13444,0 c 1.46301,0 2.64949,1.186475 2.64949,2.653141 l 0,23.133523 z"
         id="path4527" />
      <path
         style="fill:#000000;fill-opacity:1;stroke:#000000;stroke-width:1.82534611"
         inkscape:connector-curvature="0"
         ns3:knockout="Off"
         d="m 933.49919,50.66156 c 0,1.463014 -1.18739,2.650402 -2.64949,2.650402 l -23.13444,0 c -1.46575,0 -2.65131,-1.187388 -2.65131,-2.650402 l 0,-23.132611 c 0,-1.466665 1.18556,-2.654053 2.65131,-2.654053 l 23.13444,0 c 1.46301,0 2.64949,1.187388 2.64949,2.654053 l 0,23.132611 z"
         id="path4529" />
      <path
         style="fill:#000000;fill-opacity:1;stroke:#000000;stroke-width:1.82534611"
         inkscape:connector-curvature="0"
         ns3:knockout="Off"
         d="m 807.78828,186.50547 c 0,1.46393 -1.18557,2.64949 -2.64949,2.64949 l -23.13444,0 c -1.46392,0 -2.64949,-1.18647 -2.64949,-2.64949 l 0,-23.13443 c 0,-1.46667 1.18557,-2.65314 2.64949,-2.65314 l 23.13444,0 c 1.46392,0 2.64949,1.18647 2.64949,2.65314 l 0,23.13443 z"
         id="path4531" />
      <path
         style="fill:#000000;fill-opacity:1;stroke:#000000;stroke-width:1.82534611"
         inkscape:connector-curvature="0"
         ns3:knockout="Off"
         d="m 807.78828,152.76952 c 0,1.46302 -1.18557,2.65041 -2.64949,2.65041 l -23.13444,0 c -1.46392,0 -2.64949,-1.18739 -2.64949,-2.65041 l 0,-23.13353 c 0,-1.46667 1.18557,-2.65406 2.64949,-2.65406 l 23.13444,0 c 1.46392,0 2.64949,1.18739 2.64949,2.65406 l 0,23.13353 z"
         id="path4533" />
      <path
         style="fill:#000000;fill-opacity:1;stroke:#000000;stroke-width:1.82534611"
         inkscape:connector-curvature="0"
         ns3:knockout="Off"
         d="m 807.78828,82.52356 c 0,1.463927 -1.18557,2.650402 -2.64949,2.650402 l -23.13444,0 c -1.46392,0 -2.64949,-1.187388 -2.64949,-2.650402 l 0,-23.133523 c 0,-1.466666 1.18557,-2.653141 2.64949,-2.653141 l 23.13444,0 c 1.46392,0 2.64949,1.186475 2.64949,2.653141 l 0,23.133523 z"
         id="path4535" />
      <path
         style="fill:#000000;fill-opacity:1;stroke:#000000;stroke-width:1.82534611"
         inkscape:connector-curvature="0"
         ns3:knockout="Off"
         d="m 807.78828,48.838559 c 0,1.463015 -1.18557,2.650403 -2.64949,2.650403 l -23.13444,0 c -1.46392,0 -2.64949,-1.187388 -2.64949,-2.650403 l 0,-23.133522 c 0,-1.465753 1.18557,-2.653141 2.64949,-2.653141 l 23.13444,0 c 1.46392,0 2.64949,1.187388 2.64949,2.653141 l 0,23.133522 z"
         id="path4537" />
      <path
         style="fill:#000000;fill-opacity:1;stroke:#000000;stroke-width:1.82534611"
         inkscape:connector-curvature="0"
         ns3:knockout="Off"
         d="m 548.6471,118.7426 c 0,1.46393 -1.18739,2.65041 -2.65131,2.65041 l -23.13535,0 c -1.46393,0 -2.6504,-1.18648 -2.6504,-2.65041 l 0,-23.134432 c 0,-1.463928 1.18647,-2.651316 2.6504,-2.651316 l 23.13535,0 c 1.46392,0 2.65131,1.187388 2.65131,2.651316 l 0,23.134432 z"
         id="path4539" />
      <path
         style="fill:#000000;fill-opacity:1;stroke:#000000;stroke-width:1.82534611"
         inkscape:connector-curvature="0"
         ns3:knockout="Off"
         d="m 540.27916,84.65869 c 0,1.463928 -1.1874,2.651316 -2.65133,2.651316 l -23.13534,0 c -1.46393,0 -2.64951,-1.187388 -2.64951,-2.651316 l 0,-23.132609 c 0,-1.464841 1.18649,-2.652229 2.64951,-2.652229 l 23.13534,0 c 1.46393,0 2.65133,1.187388 2.65133,2.652229 l 0,23.132609 z"
         id="path4541" />
      <path
         style="fill:#000000;fill-opacity:1;stroke:#000000;stroke-width:1.82534611"
         inkscape:connector-curvature="0"
         ns3:knockout="Off"
         d="m 557.19816,50.56769 c 0,1.463928 -1.1874,2.651316 -2.65133,2.651316 l -23.1326,0 c -1.46393,0 -2.65224,-1.187388 -2.65224,-2.651316 l 0,-23.133522 c 0,-1.463928 1.18831,-2.651316 2.65224,-2.651316 l 23.1326,0 c 1.46393,0 2.65133,1.187388 2.65133,2.651316 l 0,23.133522 z"
         id="path4543" />
      <path
         style="fill:#000000;fill-opacity:1;stroke:#000000;stroke-width:1.82534611"
         inkscape:connector-curvature="0"
         ns3:knockout="Off"
         d="m 380.7661,118.7426 c 0,1.46393 -1.18647,2.65041 -2.6504,2.65041 l -23.13535,0 c -1.46392,0 -2.65131,-1.18648 -2.65131,-2.65041 l 0,-23.134432 c 0,-1.463928 1.18647,-2.651316 2.65131,-2.651316 l 23.13535,0 c 1.46393,0 2.6504,1.187388 2.6504,2.651316 l 0,23.134432 z"
         id="path4545" />
      <path
         style="fill:#000000;fill-opacity:1;stroke:#000000;stroke-width:1.82534611"
         inkscape:connector-curvature="0"
         ns3:knockout="Off"
         d="m 372.39915,84.65869 c 0,1.463928 -1.18739,2.651316 -2.65132,2.651316 l -23.13352,0 c -1.46392,0 -2.65132,-1.187388 -2.65132,-2.651316 l 0,-23.132609 c 0,-1.464841 1.18648,-2.652229 2.65132,-2.652229 l 23.13352,0 c 1.46393,0 2.65132,1.187388 2.65132,2.652229 l 0,23.132609 z"
         id="path4547" />
      <path
         style="fill:#000000;fill-opacity:1;stroke:#000000;stroke-width:1.82534611"
         inkscape:connector-curvature="0"
         ns3:knockout="Off"
         d="m 389.3191,50.56769 c 0,1.463928 -1.1883,2.651316 -2.65222,2.651316 l -23.13353,0 c -1.46392,0 -2.65131,-1.187388 -2.65131,-2.651316 l 0,-23.133522 c 0,-1.463928 1.18647,-2.651316 2.65131,-2.651316 l 23.13353,0 c 1.46392,0 2.65222,1.187388 2.65222,2.651316 l 0,23.133522 z"
         id="path4549" />
      <path
         style="fill:#000000;fill-opacity:1;stroke:#000000;stroke-width:1.82534611"
         inkscape:connector-curvature="0"
         ns3:knockout="Off"
         d="m 397.6841,152.74751 c 0,1.46302 -1.18739,2.6495 -2.65222,2.6495 l -23.13444,0 c -1.46393,0 -2.6504,-1.1874 -2.6504,-2.6495 l 0,-23.13625 c 0,-1.46393 1.18739,-2.65041 2.6504,-2.65041 l 23.13444,0 c 1.46392,0 2.65222,1.18648 2.65222,2.65041 l 0,23.13625 z"
         id="path4551" />
      <path
         style="fill:#000000;fill-opacity:1;stroke:#000000;stroke-width:1.82534611"
         inkscape:connector-curvature="0"
         ns3:knockout="Off"
         d="m 565.56316,152.74751 c 0,1.46302 -1.18741,2.6495 -2.65224,2.6495 l -23.13261,0 c -1.46392,0 -2.65133,-1.1874 -2.65133,-2.6495 l 0,-23.13625 c 0,-1.46393 1.18741,-2.65041 2.65133,-2.65041 l 23.13261,0 c 1.46393,0 2.65224,1.18648 2.65224,2.65041 l 0,23.13625 z"
         id="path4553" />
      <path
         style="fill:#000000;fill-opacity:1;stroke:#000000;stroke-width:1.82534611"
         inkscape:connector-curvature="0"
         ns3:knockout="Off"
         d="m 899.99328,151.85756 c 0,1.46393 -1.18557,2.6504 -2.64949,2.6504 l -23.13444,0 c -1.46392,0 -2.64949,-1.18647 -2.64949,-2.6504 l 0,-23.13352 c 0,-1.46667 1.18557,-2.65314 2.64949,-2.65314 l 23.13444,0 c 1.46392,0 2.64949,1.18647 2.64949,2.65314 l 0,23.13352 z"
         id="path4555" />
      <path
         style="fill:#000000;fill-opacity:1;stroke:#000000;stroke-width:1.82534611"
         inkscape:connector-curvature="0"
         ns3:knockout="Off"
         d="m 774.28419,186.50547 c 0,1.46393 -1.18739,2.64949 -2.65131,2.64949 l -23.13262,0 c -1.46575,0 -2.65131,-1.18647 -2.65131,-2.64949 l 0,-23.13443 c 0,-1.46667 1.18556,-2.65314 2.65131,-2.65314 l 23.13262,0 c 1.46392,0 2.65131,1.18647 2.65131,2.65314 l 0,23.13443 z"
         id="path4557" />
      <path
         style="fill:#000000;fill-opacity:1;stroke:#000000;stroke-width:1.82534611"
         inkscape:connector-curvature="0"
         ns3:knockout="Off"
         d="m 899.99328,118.10156 c 0,1.46393 -1.18557,2.6504 -2.64949,2.6504 l -23.13444,0 c -1.46392,0 -2.64949,-1.18647 -2.64949,-2.6504 l 0,-23.133523 c 0,-1.466666 1.18557,-2.653141 2.64949,-2.653141 l 23.13444,0 c 1.46392,0 2.64949,1.186475 2.64949,2.653141 l 0,23.133523 z"
         id="path4559" />
      <path
         style="fill:#000000;fill-opacity:1;stroke:#000000;stroke-width:1.82534611"
         inkscape:connector-curvature="0"
         ns3:knockout="Off"
         d="m 899.99328,84.34656 c 0,1.463927 -1.18557,2.650402 -2.64949,2.650402 l -23.13444,0 c -1.46392,0 -2.64949,-1.186475 -2.64949,-2.650402 l 0,-23.133523 c 0,-1.466666 1.18557,-2.653141 2.64949,-2.653141 l 23.13444,0 c 1.46392,0 2.64949,1.186475 2.64949,2.653141 l 0,23.133523 z"
         id="path4561" />
      <path
         style="fill:#000000;fill-opacity:1;stroke:#000000;stroke-width:1.82534611"
         inkscape:connector-curvature="0"
         ns3:knockout="Off"
         d="m 899.99328,50.66156 c 0,1.463014 -1.18557,2.650402 -2.64949,2.650402 l -23.13444,0 c -1.46392,0 -2.64949,-1.187388 -2.64949,-2.650402 l 0,-23.132611 c 0,-1.466665 1.18557,-2.654053 2.64949,-2.654053 l 23.13444,0 c 1.46392,0 2.64949,1.187388 2.64949,2.654053 l 0,23.132611 z"
         id="path4563" />
      <path
         style="fill:#000000;fill-opacity:1;stroke:#000000;stroke-width:1.82534611"
         inkscape:connector-curvature="0"
         ns3:knockout="Off"
         d="m 774.28419,82.523559 c 0,1.463928 -1.18739,2.650403 -2.65131,2.650403 l -23.13262,0 c -1.46575,0 -2.65131,-1.187388 -2.65131,-2.650403 l 0,-23.133522 c 0,-1.466666 1.18556,-2.653141 2.65131,-2.653141 l 23.13262,0 c 1.46392,0 2.65131,1.186475 2.65131,2.653141 l 0,23.133522 z"
         id="path4565" />
      <path
         style="fill:#000000;fill-opacity:1;stroke:#000000;stroke-width:1.82534611"
         inkscape:connector-curvature="0"
         ns3:knockout="Off"
         d="m 774.28419,48.838559 c 0,1.463015 -1.18739,2.650403 -2.65131,2.650403 l -23.13262,0 c -1.46575,0 -2.65131,-1.187388 -2.65131,-2.650403 l 0,-23.133522 c 0,-1.465753 1.18556,-2.653141 2.65131,-2.653141 l 23.13262,0 c 1.46392,0 2.65131,1.187388 2.65131,2.653141 l 0,23.133522 z"
         id="path4567" />
      <path
         style="fill:#000000;fill-opacity:1;stroke:#000000;stroke-width:1.82534611"
         inkscape:connector-curvature="0"
         ns3:knockout="Off"
         d="m 481.4951,118.7426 c 0,1.46393 -1.18921,2.65041 -2.65131,2.65041 l -23.13444,0 c -1.46484,0 -2.65131,-1.18648 -2.65131,-2.65041 l 0,-23.134432 c 0,-1.463928 1.18647,-2.651316 2.65131,-2.651316 l 23.13444,0 c 1.46301,0 2.65131,1.187388 2.65131,2.651316 l 0,23.134432 z"
         id="path4569" />
      <path
         style="fill:#000000;fill-opacity:1;stroke:#000000;stroke-width:1.82534611"
         inkscape:connector-curvature="0"
         ns3:knockout="Off"
         d="m 447.9191,118.7426 c 0,1.46393 -1.1883,2.65041 -2.65222,2.65041 l -23.13353,0 c -1.46392,0 -2.65131,-1.18648 -2.65131,-2.65041 l 0,-23.134432 c 0,-1.463928 1.18647,-2.651316 2.65131,-2.651316 l 23.13353,0 c 1.46392,0 2.65222,1.187388 2.65222,2.651316 l 0,23.134432 z"
         id="path4571" />
      <path
         style="fill:#000000;fill-opacity:1;stroke:#000000;stroke-width:1.82534611"
         inkscape:connector-curvature="0"
         ns3:knockout="Off"
         d="m 414.34316,118.7426 c 0,1.46393 -1.18832,2.65041 -2.65132,2.65041 l -23.13444,0 c -1.46393,0 -2.65041,-1.18648 -2.65041,-2.65041 l 0,-23.134432 c 0,-1.463928 1.18648,-2.651316 2.65041,-2.651316 l 23.13444,0 c 1.46301,0 2.65132,1.187388 2.65132,2.651316 l 0,23.134432 z"
         id="path4573" />
      <path
         style="fill:#000000;fill-opacity:1;stroke:#000000;stroke-width:1.82534611"
         inkscape:connector-curvature="0"
         ns3:knockout="Off"
         d="m 515.0691,118.7426 c 0,1.46393 -1.18647,2.65041 -2.65131,2.65041 l -23.13444,0 c -1.46392,0 -2.65131,-1.18648 -2.65131,-2.65041 l 0,-23.134432 c 0,-1.463928 1.18647,-2.651316 2.65131,-2.651316 l 23.13444,0 c 1.46392,0 2.65131,1.187388 2.65131,2.651316 l 0,23.134432 z"
         id="path4575" />
      <path
         style="fill:#000000;fill-opacity:1;stroke:#000000;stroke-width:1.82534611"
         inkscape:connector-curvature="0"
         ns3:knockout="Off"
         d="m 473.1271,84.65869 c 0,1.463928 -1.1883,2.651316 -2.65131,2.651316 l -23.13444,0 c -1.46392,0 -2.65131,-1.187388 -2.65131,-2.651316 l 0,-23.132609 c 0,-1.464841 1.18739,-2.652229 2.65131,-2.652229 l 23.13444,0 c 1.46301,0 2.65131,1.187388 2.65131,2.652229 l 0,23.132609 z"
         id="path4577" />
      <path
         style="fill:#000000;fill-opacity:1;stroke:#000000;stroke-width:1.82534611"
         inkscape:connector-curvature="0"
         ns3:knockout="Off"
         d="m 439.5511,84.65869 c 0,1.463928 -1.1883,2.651316 -2.65222,2.651316 l -23.13353,0 c -1.46392,0 -2.65131,-1.187388 -2.65131,-2.651316 l 0,-23.132609 c 0,-1.464841 1.18739,-2.652229 2.65131,-2.652229 l 23.13353,0 c 1.46392,0 2.65222,1.187388 2.65222,2.652229 l 0,23.132609 z"
         id="path4579" />
      <path
         style="fill:#000000;fill-opacity:1;stroke:#000000;stroke-width:1.82534611"
         inkscape:connector-curvature="0"
         ns3:knockout="Off"
         d="m 405.97516,84.65869 c 0,1.463928 -1.1874,2.651316 -2.65132,2.651316 l -23.13353,0 c -1.46484,0 -2.65132,-1.187388 -2.65132,-2.651316 l 0,-23.132609 c 0,-1.464841 1.18648,-2.652229 2.65132,-2.652229 l 23.13353,0 c 1.46392,0 2.65132,1.187388 2.65132,2.652229 l 0,23.132609 z"
         id="path4581" />
      <path
         style="fill:#000000;fill-opacity:1;stroke:#000000;stroke-width:1.82534611"
         inkscape:connector-curvature="0"
         ns3:knockout="Off"
         d="m 506.7021,84.65869 c 0,1.463928 -1.18739,2.651316 -2.65222,2.651316 l -23.13353,0 c -1.46484,0 -2.65131,-1.187388 -2.65131,-2.651316 l 0,-23.132609 c 0,-1.464841 1.18647,-2.652229 2.65131,-2.652229 l 23.13353,0 c 1.46392,0 2.65222,1.187388 2.65222,2.652229 l 0,23.132609 z"
         id="path4583" />
      <path
         style="fill:#000000;fill-opacity:1;stroke:#000000;stroke-width:1.82534611"
         inkscape:connector-curvature="0"
         ns3:knockout="Off"
         d="m 456.47107,50.56769 c 0,1.463928 -1.18831,2.651316 -2.65224,2.651316 l -23.13352,0 c -1.46485,0 -2.65223,-1.187388 -2.65223,-2.651316 l 0,-23.133522 c 0,-1.463928 1.18738,-2.651316 2.65223,-2.651316 l 23.13352,0 c 1.46393,0 2.65224,1.187388 2.65224,2.651316 l 0,23.133522 z"
         id="path4585" />
      <path
         style="fill:#000000;fill-opacity:1;stroke:#000000;stroke-width:1.82534611"
         inkscape:connector-curvature="0"
         ns3:knockout="Off"
         d="m 422.89415,50.56769 c 0,1.463928 -1.18647,2.651316 -2.65131,2.651316 l -23.13444,0 c -1.46393,0 -2.65041,-1.187388 -2.65041,-2.651316 l 0,-23.133522 c 0,-1.463928 1.18648,-2.651316 2.65041,-2.651316 l 23.13443,0 c 1.46393,0 2.65132,1.187388 2.65132,2.651316 l 0,23.133522 z"
         id="path4587" />
      <path
         style="fill:#000000;fill-opacity:1;stroke:#000000;stroke-width:1.82534611"
         inkscape:connector-curvature="0"
         ns3:knockout="Off"
         d="m 523.6231,50.56769 c 0,1.463928 -1.1883,2.651316 -2.65222,2.651316 l -23.13353,0 c -1.46392,0 -2.65131,-1.187388 -2.65131,-2.651316 l 0,-23.133522 c 0,-1.463928 1.18647,-2.651316 2.65131,-2.651316 l 23.13353,0 c 1.46392,0 2.65222,1.187388 2.65222,2.651316 l 0,23.133522 z"
         id="path4589" />
      <path
         style="fill:#000000;fill-opacity:1;stroke:#000000;stroke-width:1.82534611"
         inkscape:connector-curvature="0"
         ns3:knockout="Off"
         d="m 490.0461,50.56769 c 0,1.463928 -1.18739,2.651316 -2.65131,2.651316 l -23.13444,0 c -1.46392,0 -2.65131,-1.187388 -2.65131,-2.651316 l 0,-23.133522 c 0,-1.463928 1.18739,-2.651316 2.65131,-2.651316 l 23.13444,0 c 1.46392,0 2.65131,1.187388 2.65131,2.651316 l 0,23.133522 z"
         id="path4591" />
      <path
         style="fill:#000000;fill-opacity:1;stroke:#000000;stroke-width:1.82534611"
         inkscape:connector-curvature="0"
         ns3:knockout="Off"
         d="m 464.83515,152.74751 c 0,1.46302 -1.1874,2.6495 -2.65132,2.6495 l -23.13353,0 c -1.46484,0 -2.65131,-1.1874 -2.65131,-2.6495 l 0,-23.13625 c 0,-1.46393 1.18648,-2.65041 2.65131,-2.65041 l 23.13353,0 c 1.46392,0 2.65132,1.18648 2.65132,2.65041 l 0,23.13625 z"
         id="path4593" />
      <path
         style="fill:#000000;fill-opacity:1;stroke:#000000;stroke-width:1.82534611"
         inkscape:connector-curvature="0"
         ns3:knockout="Off"
         d="m 431.25915,152.74751 c 0,1.46302 -1.18739,2.6495 -2.65132,2.6495 l -23.13352,0 c -1.46392,0 -2.65132,-1.1874 -2.65132,-2.6495 l 0,-23.13625 c 0,-1.46393 1.18648,-2.65041 2.65132,-2.65041 l 23.13352,0 c 1.46393,0 2.65132,1.18648 2.65132,2.65041 l 0,23.13625 z"
         id="path4595" />
      <path
         style="fill:#000000;fill-opacity:1;stroke:#000000;stroke-width:1.82534611"
         inkscape:connector-curvature="0"
         ns3:knockout="Off"
         d="m 531.9871,152.74751 c 0,1.46302 -1.18739,2.6495 -2.65131,2.6495 l -23.13444,0 c -1.46392,0 -2.65131,-1.1874 -2.65131,-2.6495 l 0,-23.13625 c 0,-1.46393 1.18739,-2.65041 2.65131,-2.65041 l 23.13444,0 c 1.46392,0 2.65131,1.18648 2.65131,2.65041 l 0,23.13625 z"
         id="path4597" />
      <path
         style="fill:#000000;fill-opacity:1;stroke:#000000;stroke-width:1.82534611"
         inkscape:connector-curvature="0"
         ns3:knockout="Off"
         d="m 498.41016,152.74751 c 0,1.46302 -1.1874,2.6495 -2.65132,2.6495 l -23.13444,0 c -1.46393,0 -2.65041,-1.1874 -2.65041,-2.6495 l 0,-23.13625 c 0,-1.46393 1.18739,-2.65041 2.65041,-2.65041 l 23.13444,0 c 1.46392,0 2.65132,1.18648 2.65132,2.65041 l 0,23.13625 z"
         id="path4599" />
      <path
         style="fill:#000000;fill-opacity:1;stroke:#000000;stroke-width:1.82534611"
         inkscape:connector-curvature="0"
         ns3:knockout="Off"
         d="m 930.98119,186.50547 c 0,1.46393 -1.1883,2.64949 -2.65039,2.64949 l -51.60346,0 c -1.46392,0 -2.65039,-1.18647 -2.65039,-2.64949 l 0,-23.13443 c 0,-1.46667 1.18647,-2.65314 2.65039,-2.65314 l 51.60345,0 c 1.46301,0 2.6504,1.18647 2.6504,2.65314 l 0,23.13443 z"
         id="path4601" />
      <path
         style="fill:#000000;fill-opacity:1;stroke:#000000;stroke-width:1.82534611"
         inkscape:connector-curvature="0"
         ns3:knockout="Off"
         d="m 1000.9653,184.67496 c 0,1.46394 -1.1875,2.65041 -2.65142,2.65041 l -23.13444,0 c -1.46393,0 -2.64949,-1.18648 -2.64949,-2.65041 l 0,-54.12333 c 0,-1.46667 1.18556,-2.65315 2.64949,-2.65315 l 23.13444,0 c 1.46392,0 2.65142,1.18648 2.65142,2.65315 l 0,54.12333 z"
         id="path4603" />
      <path
         style="fill:#000000;fill-opacity:1;stroke:#000000;stroke-width:1.82534611"
         inkscape:connector-curvature="0"
         ns3:knockout="Off"
         d="m 966.96519,118.10156 c 0,1.46393 -1.18739,2.6504 -2.65131,2.6504 l -23.13444,0 c -1.46393,0 -2.64949,-1.18647 -2.64949,-2.6504 l 0,-23.133523 c 0,-1.466666 1.18556,-2.653141 2.64949,-2.653141 l 23.13444,0 c 1.46392,0 2.65131,1.186475 2.65131,2.653141 l 0,23.133523 z"
         id="path4605" />
      <path
         style="fill:#000000;fill-opacity:1;stroke:#000000;stroke-width:1.82534611"
         inkscape:connector-curvature="0"
         ns3:knockout="Off"
         d="m 966.96519,84.34656 c 0,1.463927 -1.18739,2.650402 -2.65131,2.650402 l -23.13444,0 c -1.46393,0 -2.64949,-1.186475 -2.64949,-2.650402 l 0,-23.133523 c 0,-1.466666 1.18556,-2.653141 2.64949,-2.653141 l 23.13444,0 c 1.46392,0 2.65131,1.186475 2.65131,2.653141 l 0,23.133523 z"
         id="path4607" />
      <path
         style="fill:#000000;fill-opacity:1;stroke:#000000;stroke-width:1.82534611"
         inkscape:connector-curvature="0"
         ns3:knockout="Off"
         d="m 966.96519,186.50452 c 0,1.46393 -1.18739,2.6495 -2.65131,2.6495 l -23.13444,0 c -1.46393,0 -2.64949,-1.18557 -2.64949,-2.6495 l 0,-23.13352 c 0,-1.46667 1.18556,-2.65315 2.64949,-2.65315 l 23.13444,0 c 1.46392,0 2.65131,1.18648 2.65131,2.65315 l 0,23.13352 z"
         id="path4609" />
      <path
         style="fill:#000000;fill-opacity:1;stroke:#000000;stroke-width:1.82534611"
         inkscape:connector-curvature="0"
         ns3:knockout="Off"
         d="m 966.96519,151.85756 c 0,1.46393 -1.18739,2.6504 -2.65131,2.6504 l -23.13444,0 c -1.46393,0 -2.64949,-1.18647 -2.64949,-2.6504 l 0,-23.13352 c 0,-1.46667 1.18556,-2.65314 2.64949,-2.65314 l 23.13444,0 c 1.46392,0 2.65131,1.18647 2.65131,2.65314 l 0,23.13352 z"
         id="path4611" />
      <path
         style="fill:#000000;fill-opacity:1;stroke:#000000;stroke-width:1.82534611"
         inkscape:connector-curvature="0"
         ns3:knockout="Off"
         d="m 966.96519,50.66156 c 0,1.463014 -1.18739,2.650402 -2.65131,2.650402 l -23.13444,0 c -1.46393,0 -2.64949,-1.187388 -2.64949,-2.650402 l 0,-23.132611 c 0,-1.466665 1.18556,-2.654053 2.64949,-2.654053 l 23.13444,0 c 1.46392,0 2.65131,1.187388 2.65131,2.654053 l 0,23.132611 z"
         id="path4613" />
      <path
         style="fill:#000000;fill-opacity:1;stroke:#000000;stroke-width:1.82534611"
         inkscape:connector-curvature="0"
         ns3:knockout="Off"
         d="m 841.25616,186.50547 c 0,1.46393 -1.18831,2.64949 -2.65224,2.64949 l -23.13261,0 c -1.46575,0 -2.65133,-1.18647 -2.65133,-2.64949 l 0,-23.13443 c 0,-1.46667 1.18558,-2.65314 2.65133,-2.65314 l 23.13261,0 c 1.46393,0 2.65224,1.18647 2.65224,2.65314 l 0,23.13443 z"
         id="path4615" />
      <path
         style="fill:#000000;fill-opacity:1;stroke:#000000;stroke-width:1.82534611"
         inkscape:connector-curvature="0"
         ns3:knockout="Off"
         d="m 841.25616,82.523559 c 0,1.463928 -1.18831,2.650403 -2.65224,2.650403 l -23.13261,0 c -1.46575,0 -2.65133,-1.187388 -2.65133,-2.650403 l 0,-23.133522 c 0,-1.466666 1.18558,-2.653141 2.65133,-2.653141 l 23.13261,0 c 1.46393,0 2.65224,1.186475 2.65224,2.653141 l 0,23.133522 z"
         id="path4617" />
      <path
         style="fill:#000000;fill-opacity:1;stroke:#000000;stroke-width:1.82534611"
         inkscape:connector-curvature="0"
         ns3:knockout="Off"
         d="m 841.25616,48.838559 c 0,1.463015 -1.18831,2.650403 -2.65224,2.650403 l -23.13261,0 c -1.46575,0 -2.65133,-1.187388 -2.65133,-2.650403 l 0,-23.133522 c 0,-1.465753 1.18558,-2.653141 2.65133,-2.653141 l 23.13261,0 c 1.46393,0 2.65224,1.187388 2.65224,2.653141 l 0,23.133522 z"
         id="path4619" />
      <path
         style="fill:#000000;fill-opacity:1;stroke:#000000;stroke-width:1.82534611"
         inkscape:connector-curvature="0"
         ns3:knockout="Off"
         d="m 582.2231,118.7426 c 0,1.46393 -1.1883,2.65041 -2.65131,2.65041 l -23.13444,0 c -1.46301,0 -2.65131,-1.18648 -2.65131,-2.65041 l 0,-23.134432 c 0,-1.463928 1.1883,-2.651316 2.65131,-2.651316 l 23.13444,0 c 1.46392,0 2.65131,1.187388 2.65131,2.651316 l 0,23.134432 z"
         id="path4621" />
      <path
         style="fill:#000000;fill-opacity:1;stroke:#000000;stroke-width:1.82534611"
         inkscape:connector-curvature="0"
         ns3:knockout="Off"
         d="m 573.85515,84.65869 c 0,1.463928 -1.18648,2.651316 -2.65132,2.651316 l -23.13352,0 c -1.46393,0 -2.65132,-1.187388 -2.65132,-2.651316 l 0,-23.132609 c 0,-1.464841 1.1874,-2.652229 2.65132,-2.652229 l 23.13352,0 c 1.46484,0 2.65132,1.187388 2.65132,2.652229 l 0,23.132609 z"
         id="path4623" />
      <path
         style="fill:#000000;fill-opacity:1;stroke:#000000;stroke-width:1.82534611"
         inkscape:connector-curvature="0"
         ns3:knockout="Off"
         d="m 590.7751,50.56769 c 0,1.463928 -1.1883,2.651316 -2.65314,2.651316 l -23.13261,0 c -1.46392,0 -2.65131,-1.187388 -2.65131,-2.651316 l 0,-23.133522 c 0,-1.463928 1.18739,-2.651316 2.65131,-2.651316 l 23.13261,0 c 1.46393,0 2.65314,1.187388 2.65314,2.651316 l 0,23.133522 z"
         id="path4625" />
      <path
         style="fill:#000000;fill-opacity:1;stroke:#000000;stroke-width:1.82534611"
         inkscape:connector-curvature="0"
         ns3:knockout="Off"
         d="m 347.1911,118.7426 c 0,1.46393 -1.1883,2.65041 -2.65222,2.65041 l -23.13353,0 c -1.46392,0 -2.65131,-1.18648 -2.65131,-2.65041 l 0,-23.134432 c 0,-1.463928 1.18739,-2.651316 2.65131,-2.651316 l 23.13353,0 c 1.46392,0 2.65222,1.187388 2.65222,2.651316 l 0,23.134432 z"
         id="path4627" />
      <path
         style="fill:#000000;fill-opacity:1;stroke:#000000;stroke-width:1.82534611"
         inkscape:connector-curvature="0"
         ns3:knockout="Off"
         d="m 338.82315,84.65869 c 0,1.463928 -1.18831,2.651316 -2.65132,2.651316 l -23.13444,0 c -1.46393,0 -2.65041,-1.187388 -2.65041,-2.651316 l 0,-23.132609 c 0,-1.464841 1.18648,-2.652229 2.65041,-2.652229 l 23.13444,0 c 1.46392,0 2.65132,1.187388 2.65132,2.652229 l 0,23.132609 z"
         id="path4629" />
      <path
         style="fill:#000000;fill-opacity:1;stroke:#000000;stroke-width:1.82534611"
         inkscape:connector-curvature="0"
         ns3:knockout="Off"
         d="m 355.74216,50.56769 c 0,1.463928 -1.1874,2.651316 -2.65132,2.651316 l -23.13445,0 c -1.46392,0 -2.6504,-1.187388 -2.6504,-2.651316 l 0,-23.133522 c 0,-1.463928 1.18648,-2.651316 2.6504,-2.651316 l 23.13445,0 c 1.46392,0 2.65132,1.187388 2.65132,2.651316 l 0,23.133522 z"
         id="path4631" />
      <path
         style="fill:#000000;fill-opacity:1;stroke:#000000;stroke-width:1.82534611"
         inkscape:connector-curvature="0"
         ns3:knockout="Off"
         d="m 364.10716,152.74751 c 0,1.46302 -1.1874,2.6495 -2.65042,2.6495 l -23.13443,0 c -1.46393,0 -2.65132,-1.1874 -2.65132,-2.6495 l 0,-23.13625 c 0,-1.46393 1.18739,-2.65041 2.65132,-2.65041 l 23.13443,0 c 1.46393,0 2.65042,1.18648 2.65042,2.65041 l 0,23.13625 z"
         id="path4633" />
      <path
         style="fill:#000000;fill-opacity:1;stroke:#000000;stroke-width:1.82534611"
         inkscape:connector-curvature="0"
         ns3:knockout="Off"
         d="m 599.13815,152.74751 c 0,1.46302 -1.18648,2.6495 -2.65041,2.6495 l -23.13352,0 c -1.46393,0 -2.65223,-1.1874 -2.65223,-2.6495 l 0,-23.13625 c 0,-1.46393 1.1874,-2.65041 2.65223,-2.65041 l 23.13352,0 c 1.46393,0 2.65041,1.18648 2.65041,2.65041 l 0,23.13625 z"
         id="path4635" />
      <path
         style="fill:#000000;fill-opacity:1;stroke:#000000;stroke-width:1.82534611"
         inkscape:connector-curvature="0"
         ns3:knockout="Off"
         d="m 322.16615,50.56769 c 0,1.463928 -1.18739,2.651316 -2.65132,2.651316 l -23.13352,0 c -1.46484,0 -2.65132,-1.187388 -2.65132,-2.651316 l 0,-23.133522 c 0,-1.463928 1.18648,-2.651316 2.65132,-2.651316 l 23.13352,0 c 1.46393,0 2.65132,1.187388 2.65132,2.651316 l 0,23.133522 z"
         id="path4637" />
      <path
         style="fill:#000000;fill-opacity:1;stroke:#000000;stroke-width:1.82534611"
         inkscape:connector-curvature="0"
         ns3:knockout="Off"
         d="m 1000.6263,115.71579 c 0,1.46393 -1.18564,2.65041 -2.64955,2.65041 l -23.13443,0 c -1.46393,0 -2.6504,-1.1874 -2.6504,-2.65041 l 0,-51.953903 c 0,-1.465754 1.18647,-2.652229 2.6504,-2.652229 l 23.13443,0 c 1.46391,0 2.64955,1.186475 2.64955,2.652229 l 0,51.953903 z"
         id="path4639" />
      <path
         style="fill:#000000;fill-opacity:1;stroke:#000000;stroke-width:1.82534611"
         inkscape:connector-curvature="0"
         ns3:knockout="Off"
         d="m 1000.6263,50.66156 c 0,1.463014 -1.18564,2.650402 -2.64955,2.650402 l -23.13443,0 c -1.46393,0 -2.6504,-1.187388 -2.6504,-2.650402 l 0,-23.132611 c 0,-1.466665 1.18647,-2.654053 2.6504,-2.654053 l 23.13443,0 c 1.46391,0 2.64955,1.187388 2.64955,2.654053 l 0,23.132611 z"
         id="path4641" />
      <path
         style="fill:#000000;fill-opacity:1;stroke:#000000;stroke-width:1.82534611"
         inkscape:connector-curvature="0"
         ns3:knockout="Off"
         d="m 615.79719,118.7426 c 0,1.46393 -1.18739,2.65041 -2.65131,2.65041 l -23.13262,0 c -1.46392,0 -2.65131,-1.18648 -2.65131,-2.65041 l 0,-23.134432 c 0,-1.463928 1.18739,-2.651316 2.65131,-2.651316 l 23.13262,0 c 1.46392,0 2.65131,1.187388 2.65131,2.651316 l 0,23.134432 z"
         id="path4643" />
      <path
         style="fill:#000000;fill-opacity:1;stroke:#000000;stroke-width:1.82534611"
         inkscape:connector-curvature="0"
         ns3:knockout="Off"
         d="m 682.95019,118.7426 c 0,1.46393 -1.18556,2.65041 -2.64949,2.65041 l -23.13626,0 c -1.46301,0 -2.64949,-1.18648 -2.64949,-2.65041 l 0,-23.134432 c 0,-1.463928 1.18739,-2.651316 2.64949,-2.651316 l 23.13626,0 c 1.46393,0 2.64949,1.187388 2.64949,2.651316 l 0,23.134432 z"
         id="path4645" />
      <path
         style="fill:#000000;fill-opacity:1;stroke:#000000;stroke-width:1.82534611"
         inkscape:connector-curvature="0"
         ns3:knockout="Off"
         d="m 649.37419,118.7426 c 0,1.46393 -1.18556,2.65041 -2.65131,2.65041 l -23.13262,0 c -1.46392,0 -2.65131,-1.18648 -2.65131,-2.65041 l 0,-23.134432 c 0,-1.463928 1.18739,-2.651316 2.65131,-2.651316 l 23.1317,0 c 1.46575,0 2.65132,1.187388 2.65132,2.651316 l 0,23.134432 z"
         id="path4647" />
      <path
         style="fill:#000000;fill-opacity:1;stroke:#000000;stroke-width:1.82534611"
         inkscape:connector-curvature="0"
         ns3:knockout="Off"
         d="m 607.43016,84.65869 c 0,1.463928 -1.18648,2.651316 -2.65041,2.651316 l -23.13535,0 c -1.46302,0 -2.65042,-1.187388 -2.65042,-2.651316 l 0,-23.132609 c 0,-1.464841 1.18832,-2.652229 2.65042,-2.652229 l 23.13535,0 c 1.46393,0 2.65041,1.187388 2.65041,2.652229 l 0,23.132609 z"
         id="path4649" />
      <path
         style="fill:#000000;fill-opacity:1;stroke:#000000;stroke-width:1.82534611"
         inkscape:connector-curvature="0"
         ns3:knockout="Off"
         d="m 674.58319,84.65869 c 0,1.463928 -1.18921,2.651316 -2.65131,2.651316 l -23.13262,0 c -1.46575,0 -2.65131,-1.187388 -2.65131,-2.651316 l 0,-23.132609 c 0,-1.464841 1.18556,-2.652229 2.65131,-2.652229 l 23.13262,0 c 1.46301,0 2.65131,1.187388 2.65131,2.652229 l 0,23.132609 z"
         id="path4651" />
      <path
         style="fill:#000000;fill-opacity:1;stroke:#000000;stroke-width:1.82534611"
         inkscape:connector-curvature="0"
         ns3:knockout="Off"
         d="m 641.00616,84.65869 c 0,1.463928 -1.18558,2.651316 -2.65133,2.651316 l -23.13443,0 c -1.46393,0 -2.65041,-1.187388 -2.65041,-2.651316 l 0,-23.132609 c 0,-1.464841 1.1874,-2.652229 2.65041,-2.652229 l 23.13443,0 c 1.46575,0 2.65133,1.187388 2.65133,2.652229 l 0,23.132609 z"
         id="path4653" />
      <path
         style="fill:#000000;fill-opacity:1;stroke:#000000;stroke-width:1.82534611"
         inkscape:connector-curvature="0"
         ns3:knockout="Off"
         d="m 657.92428,50.56769 c 0,1.463928 -1.18739,2.651316 -2.64949,2.651316 l -23.13353,0 c -1.46483,0 -2.6504,-1.187388 -2.6504,-2.651316 l 0,-23.133522 c 0,-1.463928 1.18557,-2.651316 2.6504,-2.651316 l 23.13353,0 c 1.46301,0 2.64949,1.187388 2.64949,2.651316 l 0,23.133522 z"
         id="path4655" />
      <path
         style="fill:#000000;fill-opacity:1;stroke:#000000;stroke-width:1.82534611"
         inkscape:connector-curvature="0"
         ns3:knockout="Off"
         d="m 624.34822,50.56769 c 0,1.463928 -1.18373,2.651316 -2.64948,2.651316 l -23.13351,0 c -1.46394,0 -2.65131,-1.187388 -2.65131,-2.651316 l 0,-23.133522 c 0,-1.463928 1.18738,-2.651316 2.65131,-2.651316 l 23.13351,0 c 1.46575,0 2.64948,1.187388 2.64948,2.651316 l 0,23.133522 z"
         id="path4657" />
      <path
         style="fill:#000000;fill-opacity:1;stroke:#000000;stroke-width:1.82534611"
         inkscape:connector-curvature="0"
         ns3:knockout="Off"
         d="m 714.86638,186.50547 c 0,1.46393 -1.18739,2.64949 -2.65041,2.64949 l -28.62781,0 c -1.46393,0 -2.6504,-1.18647 -2.6504,-2.64949 l 0,-23.13443 c 0,-1.46667 1.1874,-2.65314 2.6504,-2.65314 l 28.62781,0 c 1.46394,0 2.65041,1.18647 2.65041,2.65314 l 0,23.13443 z"
         id="path4659" />
      <path
         style="fill:#000000;fill-opacity:1;stroke:#000000;stroke-width:1.82534611"
         inkscape:connector-curvature="0"
         ns3:knockout="Off"
         d="m 711.6815,153.08865 c 0,1.46301 -1.18555,2.65131 -2.64948,2.65131 l -64.6209,0 c -1.46484,0 -2.64948,-1.1883 -2.64948,-2.65131 l 0,-23.13261 c 0,-1.46667 1.18464,-2.65314 2.64948,-2.65314 l 64.6209,0 c 1.46393,0 2.64948,1.18647 2.64948,2.65314 l 0,23.13261 z"
         id="path4661" />
      <path
         style="fill:#000000;fill-opacity:1;stroke:#000000;stroke-width:1.82534611"
         inkscape:connector-curvature="0"
         ns3:knockout="Off"
         d="m 713.56857,50.785472 c 0,1.462102 -1.18738,2.64949 -2.65039,2.64949 l -43.29539,0 c -1.46393,0 -2.65222,-1.187388 -2.65222,-2.64949 l 0,-23.134435 c 0,-1.465753 1.18921,-2.653141 2.65222,-2.653141 l 43.29539,0 c 1.46392,0 2.65039,1.187388 2.65039,2.653141 l 0,23.134435 z"
         id="path4663" />
      <path
         style="fill:#000000;fill-opacity:1;stroke:#000000;stroke-width:1.82534611"
         inkscape:connector-curvature="0"
         ns3:knockout="Off"
         d="m 712.21498,61.428557 -28.62781,0 c -1.46393,0 -2.6504,1.185562 -2.6504,2.651316 l 0,23.134435 c 0,1.463927 1.18739,2.650402 2.6504,2.650402 l 5.21592,0 0,26.31509 c 0,1.46302 1.18739,2.6495 2.65223,2.6495 l 20.75966,0 c 1.46393,0 2.6504,-1.18648 2.6504,-2.6495 l 0,-28.965492 0,-1.524164 0,-21.610271 c 9.1e-4,-1.465754 -1.18647,-2.651316 -2.6504,-2.651316 z"
         id="path4665" />
      <path
         style="fill:#000000;fill-opacity:1;stroke:#000000;stroke-width:1.82534611"
         inkscape:connector-curvature="0"
         ns3:knockout="Off"
         d="m 632.71515,152.74751 c 0,1.46302 -1.1874,2.6495 -2.65131,2.6495 l -23.13444,0 c -1.46394,0 -2.65041,-1.1874 -2.65041,-2.6495 l 0,-23.13625 c 0,-1.46393 1.18647,-2.65041 2.65041,-2.65041 l 23.13444,0 c 1.46391,0 2.65131,1.18648 2.65131,2.65041 l 0,23.13625 z"
         id="path4667" />
      <path
         style="fill:#000000;fill-opacity:1;stroke:#000000;stroke-width:1.82534611"
         inkscape:connector-curvature="0"
         ns3:knockout="Off"
         d="m 313.61506,118.7426 c 0,1.46393 -1.18739,2.65041 -2.65223,2.65041 l -23.13353,0 c -1.46484,0 -2.65223,-1.18648 -2.65223,-2.65041 l 0,-23.134432 c 0,-1.463928 1.18648,-2.651316 2.65223,-2.651316 l 23.13353,0 c 1.46392,0 2.65223,1.187388 2.65223,2.651316 l 0,23.134432 z"
         id="path4669" />
      <path
         style="fill:#000000;fill-opacity:1;stroke:#000000;stroke-width:1.82534611"
         inkscape:connector-curvature="0"
         ns3:knockout="Off"
         d="m 305.24806,84.65869 c 0,1.463928 -1.18831,2.651316 -2.65223,2.651316 l -23.13352,0 c -1.46485,0 -2.65223,-1.187388 -2.65223,-2.651316 l 0,-23.132609 c 0,-1.464841 1.18647,-2.652229 2.65223,-2.652229 l 23.1326,0 c 1.46393,0 2.65224,1.187388 2.65224,2.652229 l 0,23.132609 z"
         id="path4671" />
      <path
         style="fill:#000000;fill-opacity:1;stroke:#000000;stroke-width:1.82534611"
         inkscape:connector-curvature="0"
         ns3:knockout="Off"
         d="m 288.59023,50.56769 c 0,1.463928 -1.18738,2.651316 -2.65131,2.651316 l -23.13352,0 c -1.46393,0 -2.65041,-1.187388 -2.65041,-2.651316 l 0,-23.133522 c 0,-1.463928 1.18648,-2.651316 2.65041,-2.651316 l 23.13444,0 c 1.46392,0 2.65132,1.187388 2.65132,2.651316 l 0,23.133522 z"
         id="path4673" />
      <path
         style="fill:#000000;fill-opacity:1;stroke:#000000;stroke-width:1.82534611"
         inkscape:connector-curvature="0"
         ns3:knockout="Off"
         d="m 254.5271,50.56769 c 0,1.463928 -1.18739,2.651316 -2.65131,2.651316 l -23.13444,0 c -1.46392,0 -2.65131,-1.187388 -2.65131,-2.651316 l 0,-23.133522 c 0,-1.463928 1.18647,-2.651316 2.65131,-2.651316 l 23.13444,0 c 1.46392,0 2.65131,1.187388 2.65131,2.651316 l 0,23.133522 z"
         id="path4675" />
      <path
         style="fill:#000000;fill-opacity:1;stroke:#000000;stroke-width:1.82534611"
         inkscape:connector-curvature="0"
         ns3:knockout="Off"
         d="m 330.53115,152.74751 c 0,1.46302 -1.18831,2.6495 -2.65131,2.6495 l -23.13444,0 c -1.46393,0 -2.65041,-1.1874 -2.65041,-2.6495 l 0,-23.13625 c 0,-1.46393 1.18648,-2.65041 2.65041,-2.65041 l 23.13444,0 c 1.46392,0 2.65131,1.18648 2.65131,2.65041 l 0,23.13625 z"
         id="path4677" />
      <path
         style="fill:#000000;fill-opacity:1;stroke:#000000;stroke-width:1.82534611"
         inkscape:connector-curvature="0"
         ns3:knockout="Off"
         d="m 296.95515,152.74751 c 0,1.46302 -1.18739,2.6495 -2.6504,2.6495 l -23.13444,0 c -1.46393,0 -2.65133,-1.1874 -2.65133,-2.6495 l 0,-23.13625 c 0,-1.46393 1.1874,-2.65041 2.65133,-2.65041 l 23.13444,0 c 1.46301,0 2.6504,1.18648 2.6504,2.65041 l 0,23.13625 z"
         id="path4679" />
      <path
         style="fill:#000000;fill-opacity:1;stroke:#000000;stroke-width:1.82534611"
         inkscape:connector-curvature="0"
         ns3:knockout="Off"
         d="m 262.84138,152.74751 c 0,1.46302 -1.1883,2.6495 -2.65131,2.6495 l -30.57181,0 c -1.46393,0 -2.6504,-1.1874 -2.6504,-2.6495 l 0,-23.13625 c 0,-1.46393 1.18647,-2.65041 2.6504,-2.65041 l 30.57271,0 c 1.46302,0 2.65132,1.18648 2.65132,2.65041 l 0,23.13625 z"
         id="path4681" />
      <path
         style="fill:#000000;fill-opacity:1;stroke:#000000;stroke-width:1.82534611"
         inkscape:connector-curvature="0"
         ns3:knockout="Off"
         d="m 269.42337,186.50547 c 0,1.46393 -1.18831,2.64949 -2.65223,2.64949 l -36.81815,0 c -1.46483,0 -2.65222,-1.18647 -2.65222,-2.64949 l 0,-23.13443 c 0,-1.46667 1.18739,-2.65314 2.65222,-2.65314 l 36.81815,0 c 1.46392,0 2.65223,1.18647 2.65223,2.65314 l 0,23.13443 z"
         id="path4683" />
      <path
         style="fill:#000000;fill-opacity:1;stroke:#000000;stroke-width:1.82534611"
         inkscape:connector-curvature="0"
         ns3:knockout="Off"
         d="m 270.43488,84.658647 c 0,1.463927 -1.1883,2.651315 -2.65223,2.651315 l -37.74816,0 c -1.46484,0 -2.65223,-1.187388 -2.65223,-2.651315 l 0,-23.13261 c 0,-1.465753 1.18648,-2.653141 2.65223,-2.653141 l 37.74816,0 c 1.46393,0 2.65223,1.187388 2.65223,2.653141 l 0,23.13261 z"
         id="path4685" />
      <path
         style="fill:#000000;fill-opacity:1;stroke:#000000;stroke-width:1.82534611"
         inkscape:connector-curvature="0"
         ns3:knockout="Off"
         d="m 278.01855,118.74256 c 0,1.46301 -1.18739,2.6504 -2.65132,2.6504 l -44.71641,0 c -1.46484,0 -2.65223,-1.18739 -2.65223,-2.6504 l 0,-23.134436 c 0,-1.46484 1.18739,-2.652228 2.65223,-2.652228 l 44.71641,0 c 1.46393,0 2.65132,1.187388 2.65132,2.652228 l 0,23.134436 z"
         id="path4687" />
      <path
         style="fill:#000000;fill-opacity:1;stroke:#000000;stroke-width:1.82534611"
         inkscape:connector-curvature="0"
         ns3:knockout="Off"
         d="m 304.9041,186.50547 c 0,1.46393 -1.18739,2.64949 -2.65131,2.64949 l -23.13353,0 c -1.46575,0 -2.65222,-1.18647 -2.65222,-2.64949 l 0,-23.13443 c 0,-1.46667 1.18647,-2.65314 2.65222,-2.65314 l 23.13353,0 c 1.46392,0 2.65131,1.18647 2.65131,2.65314 l 0,23.13443 z"
         id="path4689" />
      <path
         style="fill:#000000;fill-opacity:1;stroke:#000000;stroke-width:1.82534611"
         inkscape:connector-curvature="0"
         ns3:knockout="Off"
         d="m 641.41516,186.50547 c 0,1.46393 -1.18648,2.64949 -2.64951,2.64949 l -23.13535,0 c -1.46392,0 -2.65132,-1.18647 -2.65132,-2.64949 l 0,-23.13443 c 0,-1.46667 1.18648,-2.65314 2.65132,-2.65314 l 23.13535,0 c 1.46393,0 2.64951,1.18647 2.64951,2.65314 l 0,23.13443 z"
         id="path4691" />
      <path
         style="fill:#000000;fill-opacity:1;stroke:#000000;stroke-width:1.82534611"
         inkscape:connector-curvature="0"
         ns3:knockout="Off"
         d="m 674.9931,186.50547 c 0,1.46393 -1.18739,2.64949 -2.65314,2.64949 l -23.13261,0 c -1.46392,0 -2.65131,-1.18647 -2.65131,-2.64949 l 0,-23.13443 c 0,-1.46667 1.18739,-2.65314 2.65131,-2.65314 l 23.13261,0 c 1.46575,0 2.65314,1.18647 2.65314,2.65314 l 0,23.13443 z"
         id="path4693" />
      <path
         style="fill:#000000;fill-opacity:1;stroke:#000000;stroke-width:1.82534611"
         inkscape:connector-curvature="0"
         ns3:knockout="Off"
         d="m 352.09187,186.50547 c 0,1.46393 -1.18921,2.64949 -2.65131,2.64949 l -35.63988,0 c -1.46393,0 -2.6504,-1.18647 -2.6504,-2.64949 l 0,-23.13443 c 0,-1.46667 1.18647,-2.65314 2.6504,-2.65314 l 35.63988,0 c 1.46301,0 2.65131,1.18647 2.65131,2.65314 l 0,23.13443 z"
         id="path4695" />
      <path
         style="fill:#000000;fill-opacity:1;stroke:#000000;stroke-width:1.82534611"
         inkscape:connector-curvature="0"
         ns3:knockout="Off"
         d="m 606.35841,186.50361 c 0,1.46393 -1.18647,2.65132 -2.65132,2.65132 l -36.81813,0 c -1.46394,0 -2.65223,-1.18831 -2.65223,-2.65132 l 0,-23.13535 c 0,-1.46393 1.18829,-2.65132 2.65223,-2.65132 l 36.81813,0 c 1.46485,0 2.65132,1.18648 2.65132,2.65132 l 0,23.13535 z"
         id="path4697" />
      <path
         style="fill:#000000;fill-opacity:1;stroke:#000000;stroke-width:1.82534611"
         inkscape:connector-curvature="0"
         ns3:knockout="Off"
         d="m 545.29733,186.50547 c 0,1.46393 -1.18739,2.64949 -2.65223,2.64949 l -168.77696,0 c -1.46394,0 -2.65132,-1.18647 -2.65132,-2.64949 l 0,-23.13443 c 0,-1.46667 1.18738,-2.65314 2.65132,-2.65314 l 168.77696,0 c 1.46485,0 2.65223,1.18647 2.65223,2.65314 l 0,23.13443 z"
         id="path4699" />
      <g
         style="fill:#000000;fill-opacity:1"
         transform="matrix(0.912673,0,0,1,214.02972,-11.428571)"
         id="g4701">
        <line
           style="fill:#000000;fill-opacity:1;stroke:#000000;stroke-width:2;stroke-linecap:round"
           ns3:knockout="Off"
           x1="203.87801"
           y1="128.35001"
           x2="213.399"
           y2="128.35001"
           id="line4703" />
        <line
           style="fill:#000000;fill-opacity:1;stroke:#000000;stroke-width:2;stroke-linecap:round"
           ns3:knockout="Off"
           x1="304.22198"
           y1="128.35001"
           x2="313.74301"
           y2="128.35001"
           id="line4705" />
      </g>
    </g>
    <g
       id="g5438"
       transform="translate(490.60746,-82.42778)">
      <g
         style="fill:#82d0f4;fill-opacity:1;stroke:#000000;stroke-width:20;stroke-miterlimit:4;stroke-dasharray:none;stroke-opacity:1"
         clip-path="url(#clipPath5076)"
         transform="matrix(0.75477708,0.55925749,-0.54114399,0.78004144,402.58977,-168.95316)"
         id="g5046">
        <path
           style="fill:#82d0f4;fill-opacity:1;stroke:#000000;stroke-width:20;stroke-miterlimit:4;stroke-dasharray:none;stroke-opacity:1"
           inkscape:connector-curvature="0"
           d="m 727.6,161.2 c 22.5,15.1 43.1,32.2 61.7,51 l 70,-39.3 c 33.2,27 56,58.8 68.5,95.5 l -61.5,52.1 c 5.8,11.6 10.9,23.5 15.5,35.7 4.9,12.8 9,25.9 12.6,39.2 l 80.3,1 c 15.2,40 19.1,79 11.6,117 l -79.1,14.4 c -1.8,26.4 -6.2,52.8 -13.3,78.9 l 69,41 c -6.8,42.1 -22.9,77.8 -48.5,107 l -75.7,-27.1 c -15.1,22.5 -32.1,43.1 -50.9,61.8 l 39.3,69.9 c -26.9,33.2 -58.9,56 -95.5,68.5 l -52.1,-61.4 c -11.7,5.7 -23.5,10.9 -35.7,15.4 -12.9,4.9 -25.9,9 -39.2,12.5 l -1,80.4 c -39.9,15.2 -78.9,19 -117,11.6 l -14.4,-79.1 c -26.3,-1.8 -52.8,-6.2 -79,-13.3 l -40.9,69 c -42.2,-6.8 -77.9,-23 -107.1,-48.5 l 27.1,-75.7 c -22.5,-15 -43.1,-32.1 -61.7,-50.9 l -70,39.4 c -33.1,-27 -56,-58.9 -68.5,-95.6 l 61.4,-52 C 127.8,668 122.7,656 118.1,644 113.2,631.1 109,618 105.5,604.8 L 25.2,603.7 C 10,563.8 6.1,524.8 13.6,486.8 l 79.1,-14.4 c 1.8,-26.3 6.2,-52.7 13.3,-78.9 l -69,-41 c 6.8,-42.2 23,-77.8 48.5,-107.1 l 75.7,27.1 c 15.1,-22.5 32.2,-43.1 50.9,-61.7 l -39.3,-70 c 27,-33.1 58.8,-56 95.5,-68.5 l 52.1,61.4 c 11.7,-5.7 23.5,-10.8 35.7,-15.4 12.8,-4.9 25.9,-9 39.2,-12.6 l 1,-80.3 C 436.2,10.2 475.2,6.3 513.2,13.8 l 14.4,79.1 c 26.4,1.8 52.8,6.2 78.9,13.3 l 41,-69 c 42.1,6.8 77.8,23 107.1,48.5 l -27,75.5 0,0 z M 752.3,405 C 728,340.4 679,285.1 611.2,254.4 543.3,223.7 469.5,223.4 404.9,247.7 340.4,272 285.1,321 254.4,388.8 c -30.7,67.8 -31,141.6 -6.7,206.3 24.3,64.5 73.2,119.8 141.1,150.5 67.8,30.8 141.6,31 206.2,6.7 64.6,-24.2 119.9,-73.2 150.5,-141.1 30.8,-67.8 31.1,-141.7 6.8,-206.2 z"
           id="path5048" />
      </g>
      <path
         sodipodi:nodetypes="cc"
         inkscape:connector-curvature="0"
         id="path5377-3"
         d="M 268.15371,446.2931 53.636131,445.47374"
         style="fill:none;fill-rule:evenodd;stroke:#000000;stroke-width:19.85622597;stroke-linecap:butt;stroke-linejoin:miter;stroke-miterlimit:4;stroke-dasharray:none;stroke-opacity:1" />
      <path
         sodipodi:nodetypes="cc"
         inkscape:connector-curvature="0"
         id="path5377-3-6"
         d="M 964.76363,446.97618 747.83534,446.78182"
         style="fill:none;fill-rule:evenodd;stroke:#000000;stroke-width:19.85622597;stroke-linecap:butt;stroke-linejoin:miter;stroke-miterlimit:4;stroke-dasharray:none;stroke-opacity:1" />
    </g>
    <path
       id="path4445"
       d="m 972.5237,1205.0446 c -3.02737,-3.1491 2.62746,-4.5159 4.79845,-4.303 -0.30366,-2.711 0.93197,-5.7982 1.29783,-7.8653 -2.84154,-2.2776 -6.22227,0.2248 -6.0368,3.5683 -0.65296,4.4679 -5.15473,3.6143 -8.36064,3.1796 -1.98327,0.3585 -6.29962,1.5169 -5.01314,-2.0167 1.88346,-3.5885 5.87553,-1.5254 8.86929,-1.813 1.7435,-1.7933 1.03458,-5.1713 3.77744,-6.6293 1.37987,-2.2848 -3.42726,-4.6716 -5.21942,-3.5636 1.22638,2.9418 -1.85168,7.1089 -4.98703,4.9992 -1.73766,-2.5233 -6.61532,-1.0521 -6.8604,-4.1415 1.47099,-3.2071 5.6845,-1.1828 7.72633,-0.1679 -0.24708,-4.0251 3.81985,-6.141 7.32074,-4.3365 2.82136,1.825 5.35967,3.6156 7.9619,0.4911 2.65449,-1.9582 5.82099,-2.8574 8.83163,-4.0808 4.20416,-2.695 -3.42759,-4.7768 -2.65195,-8.0213 -1.07499,-4.1048 4.02003,-6.9451 7.39554,-4.996 4.22759,2.0719 2.83351,7.18 0.12937,9.7518 -0.47821,1.3848 -0.099,2.3201 0.72205,2.638 1.22004,0.4723 5.70561,0.3272 6.59151,-0.4138 0.6803,-0.569 0.6651,-1.7387 -0.2346,-3.1443 -2.35032,-2.4048 -2.99189,-6.4768 0.1758,-8.5757 3.0397,-2.2083 7.8749,-0.01 8.0203,3.8105 1.4707,4.2828 -6.6185,4.8957 -3.9602,8.9907 4.4454,0.8371 8.6417,2.825 12.1387,5.6703 3.3848,1.3294 6.0967,-3.8768 9.9017,-2.2685 3.4451,-0.3877 2.1536,7.1668 5.2749,3.645 2.0277,-1.8723 7.8075,1.0571 4.2898,2.8521 -3.4068,0.3468 -6.6376,4.4901 -10.0984,2.188 -1.4691,-1.6276 0.3256,-6.6301 -3.1643,-4.334 -1.938,0.3507 -2.985,1.58 -2.7634,2.7153 2.3788,2.3083 2.2357,2.5052 3.2725,5.7353 0.5361,1.4349 1.4156,2.3284 3.5311,1.1192 2.8958,-1.4907 8.9865,2.7214 4.7454,4.8527 -3.1127,-2.1193 -6.3467,0.3477 -9.6798,-0.6507 -3.2781,-1.56 -1.2251,-8.5107 -6.0725,-7.7542 -1.8206,-0.2129 -2.3777,0.5884 -2.2247,1.5919 1.7577,2.1556 0.616,4.1464 1.4375,6.4813 0.4617,0.9022 1.4137,1.3278 3.1955,0.7289 3.8281,0.8971 1.7018,5.9377 -1.7528,3.9805 -3.5705,0.3027 -6.7828,-2.3211 -5.5176,-6.0302 -0.5334,-4.6501 -5.365,-2.8656 -8.3066,-2.0429 -5.07745,1.0879 -10.36495,0.7259 -15.32106,-0.7645 -3.08887,-1.3142 -5.05995,1.4735 -4.05862,4.2786 -0.0939,4.4206 -5.11893,4.9552 -8.50894,4.7584 l -0.61239,-0.113 0,0 z m 27.5273,-10.8941 c 4.3031,-0.4694 8.4189,-2.3774 11.7831,-5.0325 3.4756,-1.3833 1.1325,-3.6209 -1.2054,-4.4017 -10.007,-5.8051 -23.48374,-5.4798 -32.82237,1.5269 -2.77968,2.1675 3.03306,3.0558 4.27109,4.6912 5.16672,3.6421 11.88827,4.1209 17.97358,3.2161 z m -10.05804,-22.3212 c 4.12096,-2.2162 -2.09671,-7.6707 -3.67407,-3.0941 -0.69834,2.0774 1.71191,4.2336 3.67407,3.0941 z m -2.18796,-1.3373 c -1.71971,-4.405 5.57697,0.014 0.34462,0.294 l -0.34462,-0.294 0,0 z m 15.9651,1.1106 c 4.1822,-2.8575 -3.8557,-7.4794 -4.3885,-2.1737 -0.3484,2.3273 2.7194,3.5432 4.3885,2.1737 z m -2.78,-1.3374 c -0.9097,-3.7661 4.7556,0.1768 0.9982,0.7492 -0.4385,-0.032 -0.8272,-0.3452 -0.9982,-0.7492 z"
       style="fill:#000000"
       inkscape:connector-curvature="0" />
    <path
       style="fill:#ffffff;fill-opacity:0;stroke:none;stroke-width:22.74552345;stroke-linejoin:bevel;stroke-miterlimit:4;stroke-dasharray:none;stroke-opacity:1"
       d="M 1318.6357,411.15742 A 316.96225,334.76978 0 0 1 1001.6735,745.9272 316.96225,334.76978 0 0 1 684.71122,411.15742 316.96225,334.76978 0 0 1 1001.6735,76.387649 316.96225,334.76978 0 0 1 1318.6357,411.15742 Z"
       id="path4247"
       inkscape:connector-curvature="0" />
    <circle
       style="fill:#ff0000;fill-rule:evenodd;stroke:#000000;stroke-width:1.16478837px;stroke-linecap:butt;stroke-linejoin:miter;stroke-opacity:1"
       id="path3436"
       cx="-948.63446"
       cy="-456.98364"
       transform="matrix(-0.99532344,-0.09659837,-0.09659837,0.99532344,0,0)"
       r="352.76453" />
    <g
       transform="translate(476.40949,1533.0305)"
       style="font-style:normal;font-variant:normal;font-weight:normal;font-stretch:normal;font-size:100px;line-height:0%;font-family:Canterbury;-inkscape-font-specification:'Canterbury, Normal';text-align:start;letter-spacing:0px;word-spacing:0px;writing-mode:lr-tb;text-anchor:start;fill:#000000;fill-opacity:1;stroke:none;stroke-width:1px;stroke-linecap:butt;stroke-linejoin:miter;stroke-opacity:1"
       id="text3441">
      <path
         d="m 201.77129,-379.8892 -0.0937,-7.9e-4 q 1.01619,1.78988 1.00275,3.38357 -0.0625,7.40599 -10.19659,8.44556 -0.84451,0.0866 -1.96947,0.0772 -1.12575,0.0843 -2.53195,0.0724 l -3.46862,-0.0293 q 2.94014,-4.00659 2.97493,-8.13145 0.0166,-1.96868 -1.27213,-4.79214 l -1.59686,0.36154 -0.003,0.37499 q -0.002,0.28124 0.0906,0.37578 l -0.006,0.65622 q -0.0474,5.6248 -4.29134,8.58912 -3.67668,2.40658 -9.67725,2.44972 l -0.28124,-0.002 -0.28124,-0.002 q 3.6019,-4.65729 3.63985,-9.15713 0.004,-0.46873 0.007,-0.84372 0.003,-0.37499 -0.0866,-0.84451 l -0.17327,-1.68902 -1.31245,-0.0111 q -0.61545,6.27628 -5.70544,9.51472 -4.24232,2.77682 -11.08741,2.9066 l -0.0937,-7.9e-4 -0.18749,-0.002 q 0.0522,-6.18728 -3.10042,-10.33901 -3.52284,-4.71738 -9.24218,-4.67186 -5.53105,-0.0466 -9.22591,4.5161 -3.31908,4.47217 -3.27198,10.00402 0.14717,4.78266 4.39231,12.78749 4.24514,8.00484 4.22064,10.91098 l -0.003,0.37499 q -0.002,0.18749 -0.0961,0.28045 -0.19856,1.31087 -1.13602,1.30297 -0.84372,-0.007 -0.93431,-0.3829 -1.86465,-1.23452 -3.3646,-1.24717 -1.78119,-0.015 -3.00938,1.09966 -1.2282,1.11469 -1.24322,2.89587 -0.0348,4.12486 4.5588,4.1636 3.84362,0.0324 6.31582,-4.07189 1.99714,-3.35827 2.03351,-7.67062 0.0364,-4.31235 -2.99007,-12.3069 -3.02565,-8.08831 -2.99402,-11.83817 0.03,-3.56238 2.3021,-6.16831 2.17752,-2.51297 5.5524,-2.48451 3.74986,0.0316 5.97528,2.95674 3.24397,4.43377 3.1989,9.77733 -0.0134,1.59369 -0.12695,3.93657 -0.0206,2.43741 -0.14197,5.71776 -0.12142,3.28034 -0.14119,5.624 -0.0205,2.43742 -0.034,4.03111 -0.22454,26.62405 29.39941,26.87389 l 0.28124,0.002 0.28124,0.002 q 8.25049,-0.0242 14.38514,-4.8476 6.51279,-5.19526 6.58079,-13.25748 0.0379,-4.49984 -2.3544,-9.86395 -0.55141,-1.3172 -1.84489,-3.57819 -1.19973,-2.2602 -3.04778,-5.4634 10.32794,-1.78796 10.41728,-12.38134 0.0419,-4.96857 -3.48331,-9.40471 l -1.50864,1.01857 z m -46.58012,20.4204 38.43613,0.32416 2.49558,4.23994 -40.96729,-0.3455 0.0356,-4.2186 z m -0.053,6.28103 13.21828,0.11147 q 3.80171,5.00099 3.76534,9.31334 -0.0506,5.99979 -4.50097,11.21244 -12.80771,-4.32691 -12.48265,-20.63725 z m 15.74944,0.13282 12.74954,0.10753 q -3.78702,4.37446 -3.83683,10.2805 -0.0435,5.15607 4.12847,10.7227 -2.3492,0.63646 -7.31778,0.59456 -3.09364,-0.0261 -6.65048,-0.71236 4.16834,-5.12128 4.22131,-11.40231 0.0395,-4.68733 -3.29423,-9.59062 z m 15.56194,0.13124 10.59338,0.0893 q 1.75035,3.67115 1.72426,6.76479 -0.0427,5.06232 -3.91872,8.87351 -3.49709,3.34563 -8.66423,4.6146 -4.46268,-4.44404 -4.41287,-10.35008 0.0427,-5.06232 4.67818,-9.99216 z"
         style="font-style:normal;font-variant:normal;font-weight:normal;font-stretch:normal;font-size:93.75px;line-height:0%;font-family:Canterbury;-inkscape-font-specification:'Canterbury, Normal';text-align:start;writing-mode:lr-tb;text-anchor:start"
         id="path3441"
         inkscape:connector-curvature="0" />
      <path
         d="m 142.38732,-320.09981 0.014,0.0927 q 5.11953,1.88187 5.73529,5.96066 0.53179,3.52258 -0.9635,10.5748 -1.48129,7.14493 -0.92151,10.85291 1.06359,7.04517 7.00521,10.60436 5.07407,2.83686 12.88009,2.41691 1.03369,-0.0612 1.77529,-0.17319 0.84829,-0.0332 1.31179,-0.10323 2.87368,-0.43383 6.69709,-1.48509 3.93011,-0.97257 9.00933,-2.49785 10.68665,-3.31995 15.59973,-4.06166 7.41597,-1.11956 10.24084,5.65972 l 0.58072,1.33451 1.34325,-1.15091 q -4.46391,-14.49606 -22.07684,-11.83711 -2.68828,0.40584 -6.61839,1.3784 -3.91611,1.06527 -9.18073,2.61854 -5.26462,1.55328 -9.28743,2.53984 -3.91611,1.06526 -6.6044,1.4711 -3.61528,0.54579 -6.30536,-0.94435 -2.69008,-1.49013 -3.22187,-5.01272 -0.40584,-2.68829 2.97322,-7.93903 1.00917,-1.47972 1.61082,-2.51867 0.60165,-1.03895 0.87449,-1.74383 1.38187,5.38531 3.7344,7.77972 2.79331,2.80192 8.07718,2.00423 2.1321,-0.32187 5.1492,-1.06179 3.0171,-0.73992 7.11861,-1.83317 4.10151,-1.09325 7.11862,-1.83316 3.1098,-0.75392 5.24189,-1.07579 10.56775,-1.59537 18.84444,5.49861 l 0.80105,-0.97424 q -2.0797,-3.09928 -2.5835,-6.43647 -0.34986,-2.31749 -0.0386,-6.53621 0.36196,-4.51082 0.0401,-6.64292 -0.64374,-4.26418 -4.07195,-6.87544 -3.32151,-2.53256 -7.84106,-2.32432 l -0.12416,1.06168 q 5.06354,1.51107 5.72129,5.86795 0.07,0.4635 0.0612,1.03369 0.084,0.5562 0.0612,1.03369 -0.0997,2.48016 -0.15383,4.00534 0.0525,1.60388 0.12248,2.06738 0.34986,2.31749 3.01553,7.41418 0.26937,0.52821 0.37606,0.60691 -9.64445,-7.36156 -22.13617,-5.94979 0.0594,-0.86229 0.003,-1.23308 0.0367,-0.3848 0.0735,-0.76959 l -0.11196,-0.7416 q -0.95163,-6.30357 -8.87666,-9.18409 l -0.52295,0.93226 q 3.13612,2.56055 3.63992,5.89773 0.54578,3.61529 -1.86261,5.87512 -4.17317,3.75881 -10.19864,4.66845 -5.65468,0.85367 -7.31633,-1.3606 -1.79633,-2.47837 -3.04352,-7.59957 -2.20576,-8.95861 -12.58644,-10.52029 l -0.20286,1.16837 z"
         style="font-style:normal;font-variant:normal;font-weight:normal;font-stretch:normal;font-size:93.75px;line-height:0%;font-family:Canterbury;-inkscape-font-specification:'Canterbury, Normal';text-align:start;writing-mode:lr-tb;text-anchor:start"
         id="path3443"
         inkscape:connector-curvature="0" />
      <path
         d="m 143.55396,-251.29918 4.8389,14.8897 15.3355,-4.98378 q 1.62927,8.04666 0.32296,16.16015 l 15.58493,9.13016 27.28293,-8.86649 q 7.66775,-2.49189 11.81154,-9.45741 2.85317,-4.87029 5.18038,-14.69563 l -10.78816,-8.32319 6.41951,-2.08624 -0.60849,-1.87236 -7.66775,2.49189 -4.51142,-3.26553 q 5.32062,-1.82769 7.42708,-5.96242 2.13543,-4.04558 0.3969,-9.39517 -2.05726,-6.33036 -9.59118,-9.79654 l -1.11006,1.74082 q 3.21193,2.6035 4.11017,5.36746 1.18799,3.65555 -0.90506,6.01156 -2.98912,3.23867 -9.05199,5.20901 l -15.29959,-11.58873 -1.28168,0.9094 q 0.79121,5.16458 -1.77221,10.92647 -2.95574,6.67799 -12.67416,9.83632 -4.70526,-9.01855 -17.79377,-15.01695 l -0.75119,1.32847 q 7.09923,6.07186 11.23385,16.06447 l -16.13794,5.24456 z m 4.80111,8.10021 56.25989,-18.28353 4.42226,3.29451 -59.29132,19.26869 -1.39083,-4.27967 z m 24.11096,-1.03389 8.02439,-2.60779 q 4.97726,4.39563 6.28116,8.40783 1.27492,3.92303 -0.13613,10.19761 l -13.46314,4.3753 q 1.27293,-11.55282 -0.70628,-20.37295 z m 10.25339,-3.33218 12.12574,-3.94066 q -1.2617,6.12746 -0.10268,9.69386 1.44878,4.45799 6.51519,8.82465 l -12.2149,3.96964 q 0.99199,-5.74408 -0.36986,-9.9346 -1.39082,-4.27967 -5.95349,-8.61289 z m 4.73923,-26.97289 8.16468,6.31707 -11.67994,3.79579 q 2.40067,-3.83605 3.51526,-10.11286 z m 9.88299,22.22091 13.5523,-4.40427 4.42003,3.59097 -0.24968,1.65836 q -1.09008,6.95888 -2.80645,10.47396 -2.501,5.3473 -7.76143,7.05685 l -0.4458,0.14488 q -0.11814,-0.0602 -0.2073,-0.0312 l -0.26748,0.0869 q -4.15924,-2.78853 -6.14298,-7.07267 -0.14487,-0.4458 -0.34994,-0.77346 l -0.26078,-0.80244 q -1.50672,-4.63631 0.51951,-9.9279 z"
         style="font-style:normal;font-variant:normal;font-weight:normal;font-stretch:normal;font-size:93.75px;line-height:0%;font-family:Canterbury;-inkscape-font-specification:'Canterbury, Normal';text-align:start;writing-mode:lr-tb;text-anchor:start"
         id="path3445"
         inkscape:connector-curvature="0" />
      <path
         d="m 213.21421,-224.79756 -0.082,0.0455 q -11.10143,1.43659 -18.15328,5.34495 -10.24979,5.68076 -13.53851,16.18554 -3.27983,10.71422 2.2646,20.71801 5.22629,9.4298 18.45187,14.53333 12.41547,4.80222 23.54456,3.02874 4.7085,-0.78744 7.90643,-2.55984 9.5938,-5.31719 12.21862,-16.63305 2.23164,-9.70454 -1.31717,-21.13592 -0.39914,-1.49376 -0.53548,-1.73975 l -30.75964,-17.78746 z m 21.14404,17.65025 -43.13109,23.90463 q -3.36995,-8.20774 -0.84785,-17.0014 7.3088,3.13069 10.21334,3.34306 4.55242,0.47811 10.53829,-2.83946 l 21.07356,-11.67964 q 0.5908,1.06598 1.05415,2.09541 0.5908,1.06597 1.0996,2.1774 z m -42.04928,25.66315 14.92369,-8.27119 q 6.30898,1.32673 9.26298,6.65662 3.09033,5.57588 0.52474,12.35711 -7.49547,1.36739 -14.15815,-1.37109 -7.13591,-3.01214 -10.55326,-9.37145 z m 30.99514,-34.97137 -21.56554,11.95232 q -3.68992,2.04507 -5.10168,2.39877 -2.74152,0.66195 -5.5453,-0.1422 4.35275,-9.16514 12.06058,-13.43708 9.7578,-5.40808 20.15194,-0.77181 z m -13.5295,25.29135 12.29974,-6.81691 q -1.06295,6.59153 1.61837,11.42943 2.63587,4.7559 9.01601,7.75817 -2.97168,3.1476 -5.43163,4.51098 l -1.22997,0.6817 q -0.45544,0.14523 -0.78343,0.32701 -0.328,0.18179 -0.49199,0.27268 -1.64886,0.69948 -3.01517,1.13517 -1.36632,0.4357 -2.40464,0.68961 1.85625,-7.67432 -1.0523,-12.92221 -2.63587,-4.7559 -8.52499,-7.06563 z m 14.1857,-7.86217 11.15176,-6.18066 q 5.57609,14.70242 -0.96295,24.75772 -5.99878,-1.9274 -8.86188,-7.09329 -2.68132,-4.8379 -1.32693,-11.48377 z"
         style="font-style:normal;font-variant:normal;font-weight:normal;font-stretch:normal;font-size:93.75px;line-height:0%;font-family:Canterbury;-inkscape-font-specification:'Canterbury, Normal';text-align:start;writing-mode:lr-tb;text-anchor:start"
         id="path3447"
         inkscape:connector-curvature="0" />
      <path
         d="m 247.41958,-108.91857 0.30476,-2.30105 -5.71624,-0.79144 q 0.20945,-9.10872 -5.22921,-15.80287 -0.65027,-0.80038 -1.43243,-1.61442 -0.65027,-0.80038 -1.37331,-1.54165 -3.39237,-3.28343 -6.77568,-5.3663 4.81127,1.16431 8.57662,1.4873 3.82447,0.39575 6.6485,0.15481 7.84453,-0.45452 14.1021,-5.53849 1.01867,-0.82763 2.50121,-2.2737 1.54166,-1.37331 3.41531,-3.37872 3.86552,-3.8653 6.0484,-5.63878 6.1848,-5.02485 13.397,1.91946 l 0.9505,-2.10094 q -5.02485,-6.1848 -10.83203,-7.38553 -6.20281,-1.24166 -12.31486,3.72408 -2.03734,1.65524 -5.68458,5.34319 -1.80089,1.9463 -3.26978,3.26049 -1.33702,1.32785 -2.35569,2.15547 -11.20542,9.10385 -26.0712,4.63318 12.82408,-0.27248 21.55557,-7.36639 1.23696,-1.00497 2.86503,-2.56927 1.68718,-1.49155 3.77911,-3.67431 2.09194,-2.18276 3.72,-3.74706 1.75995,-1.55066 2.92415,-2.49652 3.20154,-2.6011 6.58038,-3.0512 2.77856,-0.44558 7.22149,0.41404 0.58663,0.12734 0.98226,0.16828 0.45475,0.11371 0.71851,0.141 l 0.48663,-1.48249 q -5.15684,-2.33304 -7.28502,-4.95249 -1.41878,-1.74629 -2.98756,-5.90734 -1.50966,-4.08829 -2.92844,-5.83459 -2.6284,-2.93779 -6.71663,-3.36083 -4.08822,-0.42304 -7.14425,2.05983 -1.01867,0.82762 -2.43757,2.94673 l 1.50066,0.95503 q 0.14553,-0.11823 0.15918,-0.25011 l 0.21828,-0.17735 q 0.46387,-0.61845 0.75492,-0.85491 1.45525,-1.18232 3.18331,-1.13679 1.85995,0.0592 2.98315,1.44166 1.1232,1.38248 1.82801,3.58806 0.11823,0.14553 0.10458,0.2774 l 0.17735,0.21829 q 1.03221,2.90591 2.03718,4.14287 1.41878,1.7463 6.04352,5.35719 l -1.1869,-0.12282 q -9.23149,-0.95526 -16.14392,4.66075 -0.43657,0.3547 -1.2506,1.13685 -0.81404,0.78216 -1.25061,1.13685 -0.31376,-0.83221 -0.55022,-1.12326 -0.43199,-0.97773 -1.31873,-2.06917 -2.55563,-2.9969 -8.01723,-3.0289 l -0.0182,1.46431 q 2.20099,0.62763 3.56066,2.30116 4.19723,5.16613 -2.17404,10.70485 -0.12271,-2.6785 -1.65972,-4.57033 -1.65525,-2.03734 -5.43425,-2.22845 l -0.28199,1.43701 q 1.20508,0.59122 2.0327,1.60989 1.53702,1.89183 1.02762,4.23834 -0.45027,2.41928 -2.29663,4.16094 l -0.36381,0.29558 q -5.19796,3.86071 -15.57082,1.05457 -1.36425,-0.34111 -2.46475,-0.65492 -0.96862,-0.30017 -1.73259,-0.6458 l -0.6731,1.99635 q 12.8512,5.26188 20.24069,14.35719 5.73425,7.05795 6.12501,18.09485 l 14.18827,2.00134 z"
         style="font-style:normal;font-variant:normal;font-weight:normal;font-stretch:normal;font-size:93.75px;line-height:0%;font-family:Canterbury;-inkscape-font-specification:'Canterbury, Normal';text-align:start;writing-mode:lr-tb;text-anchor:start"
         id="path3449"
         inkscape:connector-curvature="0" />
      <path
         d="m 239.33177,-104.3177 0.0692,0.0632 q 5.16344,-1.75779 8.208,1.02542 2.6294,2.40368 5.90353,8.826284 3.34333,6.485853 6.11112,9.016045 5.25879,4.807363 12.11646,3.836244 5.72888,-0.986854 11.53258,-6.223969 0.765,-0.697886 1.27104,-1.251443 0.63848,-0.559497 0.95476,-0.90547 1.96089,-2.145033 4.27162,-5.367481 2.44318,-3.228388 5.43189,-7.60932 6.21856,-9.30356 9.57106,-12.97087 5.06039,-5.53557 11.52102,-2.0429 l 1.29094,0.67204 0.32013,-1.73966 q -12.58926,-8.4601 -24.60766,4.68688 -1.83439,2.00664 -4.27757,5.23503 -2.37398,3.29164 -5.4892,7.81097 -3.11522,4.519327 -5.62165,7.816909 -2.37399,3.291643 -4.20838,5.298287 -2.46693,2.69859 -5.49545,3.232554 -3.02852,0.533965 -5.65791,-1.869717 -2.00665,-1.834389 -2.68317,-8.041691 -0.14641,-1.785097 -0.33232,-2.971202 -0.1859,-1.186104 -0.41725,-1.905666 4.46201,3.316864 7.79701,3.698166 3.93398,0.420797 7.53951,-3.523296 1.45486,-1.591474 3.33468,-4.064664 1.87982,-2.47319 4.38032,-5.90322 2.50049,-3.43003 4.38031,-5.90322 1.94308,-2.54238 3.39794,-4.13385 7.21105,-7.88819 18.10754,-7.58056 l 0.01,-1.26124 q -3.56633,-1.10086 -6.05734,-3.37804 -1.72987,-1.58136 -4.14188,-5.05652 -2.55635,-3.73412 -4.14782,-5.18898 -3.18295,-2.90972 -7.49053,-2.7829 -4.17513,0.12088 -7.55733,3.12595 l 0.57138,0.90339 q 4.88666,-2.01081 8.13881,0.96216 0.34597,0.31628 0.69789,0.765 0.41516,0.37953 0.69788,0.765 1.48279,1.99059 2.40014,3.21025 1.0498,1.21372 1.39577,1.53 1.72986,1.58137 7.00825,3.86625 0.54168,0.24114 0.67412,0.2352 -12.12803,0.34482 -20.95014,9.30063 -0.49624,-0.70768 -0.77302,-0.9607 -0.21352,-0.32222 -0.42705,-0.64443 l -0.55355,-0.50604 q -4.70524,-4.30132 -12.67773,-1.55491 l 0.17996,1.05366 q 4.04862,0.0175 6.53963,2.29468 2.69859,2.46694 2.24809,5.73868 -0.87932,5.54714 -4.99088,10.04479 -3.85854,4.22087 -6.54317,3.54497 -2.95546,-0.79647 -7.14663,-3.99277 -7.35037,-5.57621 -16.40205,-0.2598 l 0.57731,1.03584 z"
         style="font-style:normal;font-variant:normal;font-weight:normal;font-stretch:normal;font-size:93.75px;line-height:0%;font-family:Canterbury;-inkscape-font-specification:'Canterbury, Normal';text-align:start;writing-mode:lr-tb;text-anchor:start"
         id="path3451"
         inkscape:connector-curvature="0" />
      <path
         d="m 332.63523,-110.26625 -0.051,0.0787 q -20.21539,1.19811 -25.92605,10.00938 -8.39303,-1.52948 -12.01318,4.056238 -2.60038,4.012273 -0.83456,7.837945 2.09365,5.043601 6.36963,7.926613 0.73573,0.588552 1.57344,1.01976 l 5.34969,3.467184 -5.91477,3.093085 q -2.91963,-2.56254 -6.06651,-4.60206 -3.9336,-2.5494 -8.06818,-2.547828 -4.99558,-0.221303 -7.26236,3.448598 -3.4395,5.479357 3.42249,11.267281 0.47203,0.305928 0.8144,0.63954 l 0.94406,0.611856 q 6.60845,4.282992 19.0297,5.630243 0.37444,0.801264 0.90622,1.704504 0.66144,0.875556 1.35056,1.880772 1.12331,2.403793 4.02401,5.512657 12.16193,1.402619 19.53363,0.370954 11.5252,-1.579562 16.31807,-8.974732 4.89485,-7.552513 -0.15487,-15.964298 -3.24167,-5.340769 -10.79419,-10.235617 l -2.59617,-1.682603 q -0.12966,0.02768 -0.36568,-0.12528 -0.23602,-0.152964 -0.2637,-0.282624 l 18.36495,-9.547336 -0.80424,-1.861848 -5.06253,2.639977 -11.82287,-15.371031 z m -30.48347,49.620145 -0.051,0.07867 q -9.97225,-0.988931 -17.28875,-5.730815 -0.31468,-0.203952 -0.49971,-0.435588 l -0.55071,-0.356916 q -3.18332,-2.845164 -1.44973,-5.520013 0.96877,-1.494768 2.60774,-1.437996 2.52329,0.07131 5.11947,1.753919 5.9004,3.8241 12.11268,11.648737 z m 15.54713,-18.300089 5.99345,-3.042097 q 2.14745,1.168344 4.24391,2.41536 2.17513,1.298004 4.2206,2.623692 5.19236,3.365208 7.25833,8.279148 2.4404,5.715205 -0.77184,10.671542 -4.58892,7.080482 -17.84491,7.538307 -0.287,-0.07429 -0.67598,0.0088 -0.42542,-0.722592 -0.98051,-1.4175 -0.50409,-0.77358 -1.00819,-1.54716 l -2.11836,-2.936976 2.55097,0.200976 q 1.63897,0.05677 2.81029,0.145607 9.83384,0.340631 12.79114,-4.222346 3.05928,-4.720321 -2.63138,-10.419409 -1.13348,-1.181484 -3.17895,-2.507172 -0.94406,-0.611856 -3.53586,-1.956468 -0.31469,-0.203952 -0.91638,-0.482196 -0.60169,-0.278244 -0.91638,-0.482196 -1.69872,-0.654084 -3.00846,-1.39122 -1.30974,-0.737136 -2.28149,-1.478652 z m -14.77529,7.628547 6.30376,-3.176137 q 0.78672,0.50988 1.41171,0.579792 l 8.66409,4.386372 q 2.35578,1.191647 4.08657,2.313383 1.57344,1.01976 2.29462,2.492629 0.88292,1.912836 -0.0349,3.328932 -1.01976,1.57344 -3.22398,2.044069 -2.93557,0.220068 -5.01451,0.32502 -2.07894,0.104953 -3.50958,0.07149 -1.2952,-1.621452 -2.64138,-3.164232 -1.2952,-1.621453 -2.69237,-3.085561 l -5.64406,-6.115752 z m 18.62129,-11.838988 -6.09542,3.199441 -2.46214,-1.372296 q -1.23107,-0.686148 -2.46214,-1.372296 -1.18008,-0.76482 -2.43883,-1.580628 l -2.36016,-1.52964 q -2.91086,-1.886556 -4.34886,-4.4943 -1.70608,-3.22836 0.0275,-5.903209 1.37668,-2.124144 4.52059,-2.320909 -0.73416,3.546025 1.06513,5.941057 1.48022,1.853088 4.86312,4.045572 2.28149,1.478652 4.66495,2.79996 2.46214,1.372296 5.02625,2.587248 z m 15.7572,-8.109339 -7.69795,3.948314 q -2.04109,-0.987696 -3.55916,-1.748136 -1.51808,-0.76044 -2.51313,-1.293624 l -1.9668,-1.2747 q -0.68036,-0.329232 -1.1524,-0.63516 -0.47203,-0.305928 -0.78672,-0.50988 l -0.47203,-0.305928 -0.47203,-0.305928 q -6.48317,-4.648668 -3.21994,-9.683674 1.58063,-2.43884 4.51182,-2.9969 3.00987,-0.50707 5.68034,0.88853 l 0.62937,0.40791 q 5.27103,3.41619 11.01863,13.509176 z"
         style="font-style:normal;font-variant:normal;font-weight:normal;font-stretch:normal;font-size:93.75px;line-height:0%;font-family:Canterbury;-inkscape-font-specification:'Canterbury, Normal';text-align:start;writing-mode:lr-tb;text-anchor:start"
         id="path3453"
         inkscape:connector-curvature="0" />
      <path
         d="m 437.29103,-11.860803 -1.84082,-1.404527 -4.419,4.1959864 -1.21023,-0.5414314 q -0.60512,-0.2707157 -1.23603,-0.451301 -0.51499,-0.244918 -1.1459,-0.425503 l -1.26183,-0.36117 q -6.03875,-1.728457 -11.07398,-1.511927 0.63124,-0.501925 0.88889,-0.720721 0.37359,-0.283129 0.51531,-0.437593 l 8.73415,-6.66643 q 4.85658,-3.680676 9.31476,-9.035624 2.31921,-2.651676 3.82726,-5.535533 1.50804,-2.883856 2.29503,-5.974096 2.2836,-9.000327 -2.92833,-16.343006 -5.21192,-7.342678 -12.78192,-11.557229 l -30.92161,5.484046 -2.5024,8.742672 q -3.59119,-3.465765 -6.92602,-4.420286 -4.59667,-1.315692 -8.77042,1.682799 l 0.56594,1.429677 q 2.75616,-0.771346 5.00943,-0.126399 4.32627,1.238297 6.03713,5.141008 1.54366,3.464794 0.70442,8.100316 -2.7281,-4.096357 -6.69384,-5.231463 -4.14601,-1.186702 -8.71882,1.502538 l 0.51434,1.609938 q 2.40838,-0.578347 5.11229,0.195589 8.29202,2.373403 7.95277,11.735224 -3.26953,-2.886123 -5.43267,-3.505272 -3.96575,-1.135106 -8.33282,2.198109 l 0.7462,1.481273 q 3.31,-1.002879 5.38301,-0.409528 1.71248,0.490159 3.06412,1.559637 1.44176,1.095276 2.27809,2.602347 0.86212,1.41694 1.1446,3.155544 0.28249,1.738604 -0.20767,3.451086 -0.79974,2.79405 -2.93805,4.132301 -2.02238,1.273918 -4.7263,0.499982 -1.53222,-0.438563 -4.54474,-2.178462 -2.24021,-1.031267 -3.6565,-1.534164 -1.30036,-0.567229 -1.72522,-0.786349 l -0.18026,-0.0516 -0.36052,-0.103191 q -6.12888,-1.754255 -13.03397,3.972981 l 0.88792,1.326809 q 4.5591,-0.937899 7.53341,-0.08657 2.52366,0.72234 7.00375,3.467385 4.27402,2.783579 7.06807,3.583313 9.01307,2.5797865 15.86656,-2.967188 4.32854,-3.539274 6.80513,-12.191816 l 2.425,-8.47228 q 4.89415,-1.427087 11.25521,-0.484008 0.29619,-0.01274 0.74685,0.116252 l 0.63091,0.180586 q 2.70392,0.773936 4.68647,2.023999 3.78484,2.448531 6.01134,5.231139 -1.52046,1.905156 -4.39352,4.788366 -2.78293,2.909007 -6.94427,6.886197 -7.54971,7.2979916 -10.93873,11.9838136 l 1.86662,1.3143961 q 5.91365,-6.0110125 13.93528,-3.7150024 4.05588,1.1609039 7.84039,4.291945 l 11.19574,-10.8375893 z m -29.54278,-50.777334 -10.06116,35.15095 -0.0258,0.09013 -0.0516,0.180261 q -2.03803,7.120321 -4.52477,10.016591 -3.53042,4.157775 -9.94276,2.712447 4.52056,-1.143958 7.02069,-5.109059 1.58511,-2.471738 3.28777,-8.42036 l 9.7258,-33.979252 2.24085,-0.333754 q 0.50225,-0.05127 1.12043,-0.166876 0.61817,-0.115605 1.21055,-0.141079 z m -5.62717,26.473582 3.17314,-11.086069 q 5.56068,5.102149 10.96852,6.650021 7.03019,2.012234 15.492,-0.636528 -0.10319,0.360523 -0.23218,0.811176 -0.0131,0.38632 -0.0519,0.862771 -0.12899,0.450653 -0.14205,0.836974 l -0.23218,0.811176 q -1.2899,4.506532 -5.10409,9.655744 -4.72339,-5.642609 -11.75358,-7.654843 -4.4164,-1.264095 -12.11766,-0.250422 z m 3.92128,-13.699858 3.66329,-12.798551 q 0.77264,0.02612 1.04304,0.103515 3.02623,-0.01144 6.09067,0.865686 6.4894,1.857446 10.46627,6.701293 4.0928,4.779515 4.52747,11.437416 -8.57773,2.713095 -14.97701,0.881447 -6.21901,-1.780053 -10.81373,-7.190806 z"
         style="font-style:normal;font-variant:normal;font-weight:normal;font-stretch:normal;font-size:93.75px;line-height:0%;font-family:Canterbury;-inkscape-font-specification:'Canterbury, Normal';text-align:start;writing-mode:lr-tb;text-anchor:start"
         id="path3455"
         inkscape:connector-curvature="0" />
      <path
         d="m 471.53613,-33.569979 15.08264,1.842224 5.72942,-8.139582 -10.71147,-1.256459 14.37003,-12.06069 -0.44133,-1.358047 q -0.18673,-0.01698 -0.28859,0.06789 l -0.37345,-0.03396 -0.65356,-0.05943 q -4.38814,-0.399036 -8.30095,-1.884489 -5.73764,-2.122078 -9.25998,-4.795803 l -19.62396,12.90084 -1.96971,21.660627 q -0.0934,1.027013 -0.26316,1.858805 -0.0764,0.840283 -0.22921,1.485347 -0.69606,2.478398 -3.72623,4.744543 -4.43887,-8.122868 -3.53892,-18.019534 1.09522,-12.044055 15.30389,-20.259809 l -0.71293,-1.476883 q -10.38061,4.421839 -15.64315,10.532867 -6.18773,6.968264 -7.12165,17.238389 -1.16314,12.790973 6.52649,22.4332276 7.783,9.6507445 20.29387,10.788421 8.02937,0.7301506 15.62599,-3.09761886 6.92608,-3.70047084 11.99343,-10.77061674 l -0.58563,-0.806349 q -11.9509,7.1972851 -23.97798,5.9153296 l 2.4961,-27.4492426 z m -0.0589,-21.092001 -4.38939,48.2695863 q -9.76082,-2.3937894 -15.13334,-10.6015583 7.94465,-5.58472 8.25022,-5.839344 3.80259,-3.513821 4.32049,-9.209072 l 1.73198,-19.046413 5.22004,-3.573199 z m 0.22019,19.318071 1.63859,-18.019401 q 5.74609,4.099719 12.83329,5.873836 l -14.47188,12.145565 z"
         style="font-style:normal;font-variant:normal;font-weight:normal;font-stretch:normal;font-size:93.75px;line-height:0%;font-family:Canterbury;-inkscape-font-specification:'Canterbury, Normal';text-align:start;writing-mode:lr-tb;text-anchor:start"
         id="path3457"
         inkscape:connector-curvature="0" />
      <path
         d="m 534.5219,-6.302321 -3.46997,-43.643524 q 0.56073,-0.04458 1.78308,-0.04772 1.22235,-0.0031 1.78308,-0.04772 6.26149,-0.497832 10.19947,-4.19658 4.03145,-3.706178 4.10177,-9.918796 l -1.53243,-0.34839 q -2.48844,5.37037 -9.31066,5.912784 -4.76621,0.378947 -14.15201,-0.567641 -4.74705,-0.563034 -8.23461,-0.661932 -3.49499,-0.192354 -5.92483,8.35e-4 -9.3455,0.743033 -15.01885,6.272579 -5.58731,5.428661 -7.09463,14.859042 l 1.54729,0.535301 q 4.2824,-12.37835 16.24465,-13.329432 l 1.02801,-0.08173 q 0.4747,0.0563 1.03543,0.01172 0.47471,0.0563 0.94942,0.112606 0.56073,-0.04458 1.028,-0.08173 -16.33068,13.430317 -15.04523,29.598047 0.93622,11.77534 9.78442,18.9716979 8.93422,7.0954723 20.61611,6.1666808 10.28005,-0.8173366 18.10715,-7.6466717 7.72622,-6.91536 9.36101,-17.108242 l -1.51758,-0.16148 q -5.44844,11.9067824 -16.26809,15.400304 z m -5.5557,-43.853877 3.53684,44.4846197 q -0.27294,0.1157461 -0.5533,0.1380371 -0.28037,0.022291 -0.45985,0.1306067 -0.45984,0.1306068 -1.01314,0.2686439 -0.56073,0.044582 -1.12146,0.089164 l -1.12146,0.089164 q -7.00914,0.557275 -13.69102,-3.0494861 2.96943,-2.8693733 4.46157,-4.2106053 1.48471,-1.434687 1.57074,-1.535572 4.68248,-4.980537 3.99889,-13.578405 L 522.709,-50.787257 q 0.56073,-0.04458 1.32323,0.08288 0.84853,0.02658 1.79794,0.139189 0.94941,0.112607 1.71191,0.240075 0.85596,0.120037 1.42412,0.16891 z m -15.74388,-1.663673 2.51888,31.681274 q 0.59443,7.476407 -3.27983,10.7939038 -9.21458,-7.0731818 -10.08393,-18.0074258 -0.57957,-7.289497 2.10007,-13.803619 2.908,-7.190598 8.74481,-10.664133 z"
         style="font-style:normal;font-variant:normal;font-weight:normal;font-stretch:normal;font-size:93.75px;line-height:0%;font-family:Canterbury;-inkscape-font-specification:'Canterbury, Normal';text-align:start;writing-mode:lr-tb;text-anchor:start"
         id="path3459"
         inkscape:connector-curvature="0" />
      <path
         d="m 593.04969,-18.105659 -10.99295,-42.378684 q 0.54448,-0.141237 1.74772,-0.356504 1.20325,-0.215267 1.74773,-0.356504 6.08003,-1.577148 9.3162,-5.903305 3.32693,-4.349697 2.3178,-10.480213 l -1.56965,-0.0771 q -1.51847,5.720791 -8.14297,7.439175 -4.62808,1.200515 -14.03571,1.897488 -4.77273,0.269509 -8.22451,0.777485 -3.47533,0.417228 -5.83474,1.029256 -9.07466,2.353951 -13.70206,8.784339 -4.56019,6.316101 -4.4077,15.864967 l 1.61672,0.258594 q 2.06876,-12.933783 13.68433,-15.946841 l 0.99821,-0.258935 q 0.47727,-0.02695 1.02175,-0.168188 0.47727,-0.02695 0.95455,-0.0539 0.54448,-0.141237 0.99821,-0.258934 -13.75153,16.061127 -9.6792,31.760297 2.96598,11.434077 12.92901,16.9853184 10.03023,5.4369548 21.37356,2.4945154 9.98213,-2.5893467 16.50497,-10.6736418 6.40856,-8.151503 6.24925,-18.473421 l -1.52257,0.104392 q -3.29895,12.671778 -13.34795,17.990347 z m -13.08354,-42.223801 11.20481,43.195403 q -0.2487,0.161365 -0.52094,0.231984 -0.27224,0.07062 -0.43019,0.208444 -0.43019,0.208444 -0.95113,0.440428 -0.54448,0.141237 -1.08896,0.282474 l -1.08896,0.282474 q -6.806,1.765464 -14.01251,-0.626701 2.42628,-3.34125 3.66296,-4.921128 1.21314,-1.670625 1.28034,-1.784911 3.74689,-5.71772 1.58125,-14.066411 l -5.90842,-22.777408 q 0.54448,-0.141237 1.31753,-0.14806 0.84026,-0.121109 1.79481,-0.175011 0.95454,-0.0539 1.7276,-0.06072 0.8638,-0.03036 1.43181,-0.08085 z m -15.79366,1.094413 7.97989,30.763113 q 1.88316,7.259732 -1.35642,11.199363 -10.30248,-5.366336 -13.0566,-15.983694 -1.83608,-7.078238 -0.32784,-13.958607 1.6157,-7.586214 6.76097,-12.020175 z"
         style="font-style:normal;font-variant:normal;font-weight:normal;font-stretch:normal;font-size:93.75px;line-height:0%;font-family:Canterbury;-inkscape-font-specification:'Canterbury, Normal';text-align:start;writing-mode:lr-tb;text-anchor:start"
         id="path3461"
         inkscape:connector-curvature="0" />
      <path
         d="m 600.56347,-58.772974 0.0398,0.08489 q 0.68156,11.173233 4.10343,18.473555 4.97365,10.610934 15.23162,14.603443 10.46753,3.997819 20.8238,-0.856464 9.76206,-4.575758 15.74945,-17.425389 5.63192,-12.061783 4.61612,-23.285424 -0.46679,-4.751014 -2.01857,-8.061626 -4.65534,-9.931833 -15.76749,-13.316887 -9.53114,-2.883663 -21.17659,-0.117087 -1.51736,0.297077 -1.77202,0.416445 l -19.82953,29.484546 z m 19.04151,-19.900312 20.92912,44.650807 q -8.41711,2.806423 -17.0198,-0.305357 3.61842,-7.080025 4.02699,-9.963516 0.78528,-4.509596 -2.11933,-10.706381 l -10.22582,-21.816079 q 1.10353,-0.51726 2.16197,-0.909843 1.10354,-0.517259 2.24687,-0.949631 z m 22.75685,43.690557 -7.24163,-15.449519 q 1.75089,-6.204662 7.26858,-8.79096 5.77235,-2.705665 12.36428,0.313235 0.8567,7.570854 -2.32667,14.032805 -3.48844,6.915559 -10.06456,9.894439 z m -32.79224,-33.292102 10.46456,22.325404 q 1.79051,3.819936 2.0478,5.252405 0.47479,2.78005 -0.51738,5.522937 -8.84936,-4.963378 -12.58954,-12.9428 -4.73492,-10.101608 0.59456,-20.157946 z m 24.31714,15.211072 -5.96838,-12.73312 q 6.50442,1.506853 11.51278,-0.84071 4.92348,-2.307773 8.35089,-8.469963 2.93915,3.178 4.13282,5.724624 l 0.59684,1.273312 q 0.11406,0.464226 0.27322,0.803776 0.15915,0.33955 0.23873,0.509325 0.58622,1.69244 0.9284,3.08512 0.34217,1.39268 0.52519,2.445809 -7.53101,-2.371655 -12.9638,0.174854 -4.92348,2.307774 -7.62669,8.026973 z m -6.88353,-14.685532 -5.41133,-11.544695 q 15.04626,-4.567708 24.63569,2.637223 -2.32919,5.854495 -7.6771,8.361214 -5.00836,2.347563 -11.54726,0.546258 z"
         style="font-style:normal;font-variant:normal;font-weight:normal;font-stretch:normal;font-size:93.75px;line-height:0%;font-family:Canterbury;-inkscape-font-specification:'Canterbury, Normal';text-align:start;writing-mode:lr-tb;text-anchor:start"
         id="path3463"
         inkscape:connector-curvature="0" />
      <path
         d="m 725.14648,-64.699619 11.7531,-10.34325 -10.65293,-12.104989 q 6.74223,-4.684621 14.70913,-6.700486 l 2.20665,-17.927096 -18.9523,-21.53562 q -5.32647,-6.05249 -13.36382,-7.09672 -5.60222,-0.68958 -15.54537,1.06734 l -3.36662,13.20326 -4.45937,-5.06721 -1.47793,1.30065 5.32646,6.0525 -1.21039,5.43613 q -3.78651,-4.16074 -8.41749,-4.45621 -4.56059,-0.35742 -8.78326,3.35872 -4.99683,4.39743 -5.19368,12.68813 l 2.03819,0.32932 q 1.11753,-3.98068 3.29924,-5.90069 2.88549,-2.53936 5.87805,-1.55131 4.15805,1.46098 8.36967,6.24667 l -4.57701,18.639392 1.34286,0.816367 q 4.42821,-2.773059 10.7342,-2.702837 7.30257,0.06738 14.05355,7.738566 -6.41559,7.893913 -6.73616,22.287915 l 1.51739,0.163242 q 2.76146,-8.924176 10.29749,-16.680174 l 11.21035,12.73839 z m 5.53445,-7.618004 -39.08138,-44.408417 1.27232,-5.36576 41.18719,46.801267 -3.37813,2.97291 z m -10.50397,-21.727263 -5.5742,-6.334004 q 2.06336,-6.31168 5.23036,-9.09878 3.09663,-2.72517 9.41667,-3.91615 l 9.35228,10.62706 q -11.11141,3.409454 -18.42511,8.721874 z m -7.12259,-8.093454 -8.42325,-9.57138 q 6.12579,-1.2698 8.9409,-3.74723 3.5189,-3.09678 5.52033,-9.47883 l 8.48518,9.64176 q -5.66692,1.3655 -8.97468,4.27648 -3.37813,2.97291 -5.54848,8.8792 z m -26.64267,6.337629 2.56438,-9.999569 8.11356,9.219498 q -4.47333,-0.683976 -10.67794,0.780071 z m 16.48522,-17.879589 -9.41421,-10.69744 1.54539,-5.48118 1.62153,-0.42795 q 6.82113,-1.75684 10.7286,-1.57395 5.90061,0.17721 9.55481,4.3295 l 0.30968,0.35189 q -0.008,0.13231 0.0535,0.20269 l 0.18581,0.21113 q -0.91199,4.92377 -4.05927,8.44282 -0.35189,0.30968 -0.57147,0.6278 l -0.6334,0.55742 q -3.65965,3.22065 -9.32096,3.45727 z"
         style="font-style:normal;font-variant:normal;font-weight:normal;font-stretch:normal;font-size:93.75px;line-height:0%;font-family:Canterbury;-inkscape-font-specification:'Canterbury, Normal';text-align:start;writing-mode:lr-tb;text-anchor:start"
         id="path3465"
         inkscape:connector-curvature="0" />
      <path
         d="m 753.99134,-106.29927 0.0594,-0.0725 q -2.03397,-5.06102 0.58082,-8.25139 2.25823,-2.75533 8.49471,-6.37141 6.29591,-3.68859 8.67299,-6.58893 4.51646,-5.51064 3.17655,-12.30588 -1.29469,-5.66726 -6.83748,-11.17977 -0.73816,-0.72621 -1.31823,-1.20163 -0.59315,-0.60735 -0.95569,-0.90448 -2.24776,-1.84224 -5.59026,-3.97564 -3.35557,-2.26533 -7.89146,-5.01318 -9.62569,-5.70725 -13.46864,-8.85688 -5.80068,-4.75417 -2.66189,-11.39393 l 0.60138,-1.32534 -1.75441,-0.22575 q -7.76813,13.02761 6.00848,24.31876 2.10275,1.72339 5.45832,3.98872 3.415,2.19282 8.09591,5.05953 4.68091,2.8667 8.10899,5.19146 3.41501,2.19282 5.51775,3.91621 2.82783,2.31766 3.52451,5.31293 0.69668,2.99527 -1.56155,5.7506 -1.72339,2.10274 -7.88511,3.11338 -1.77459,0.24256 -2.94893,0.49223 -1.17434,0.24967 -1.88037,0.51952 3.07115,-4.63456 3.27186,-7.98528 0.20781,-3.95097 -3.92518,-7.33831 -1.66769,-1.36682 -4.23875,-3.11039 -2.57106,-1.74357 -6.13108,-4.05525 -3.56002,-2.31168 -6.13108,-4.05524 -2.64357,-1.803 -4.31127,-3.16982 -8.26597,-6.77469 -8.54703,-17.6719 l -1.25993,0.0583 q -0.90673,3.62057 -3.0461,6.23088 -1.48568,1.81271 -4.82556,4.40881 -3.59066,2.7542 -4.95749,4.4219 -2.73364,3.33539 -2.37447,7.62984 0.3461,4.16251 3.52937,7.37755 l 0.87123,-0.61931 q -2.27169,-4.77099 0.52139,-8.17889 0.29713,-0.36254 0.7262,-0.73816 0.35657,-0.43505 0.72621,-0.73817 1.90765,-1.58808 3.07601,-2.56994 1.15527,-1.11379 1.45241,-1.47633 1.48568,-1.81271 3.48228,-7.20675 0.21154,-0.5539 0.19846,-0.68584 0.99905,12.09173 10.41805,20.4175 -0.67986,0.53373 -0.91757,0.82376 -0.31022,0.23061 -0.62043,0.46121 l -0.47542,0.58007 q -4.04104,4.93058 -0.86824,12.74319 l 1.04241,-0.23659 q -0.20108,-4.04366 1.93829,-6.65396 2.31766,-2.82783 5.60895,-2.55462 5.58652,0.57858 10.29957,4.44134 4.42302,3.62505 3.89303,6.34225 -0.63576,2.99415 -3.60113,7.35177 -5.17128,7.64067 0.62603,16.39215 l 1.00316,-0.63239 z"
         style="font-style:normal;font-variant:normal;font-weight:normal;font-stretch:normal;font-size:93.75px;line-height:0%;font-family:Canterbury;-inkscape-font-specification:'Canterbury, Normal';text-align:start;writing-mode:lr-tb;text-anchor:start"
         id="path3467"
         inkscape:connector-curvature="0" />
      <path
         d="m 800.47506,-189.0116 -2.00263,0.46588 1.41041,5.79863 q -0.94364,0.32046 -1.81891,0.89713 -0.82831,0.49552 -1.70358,1.07218 l -3.33878,2.40057 -15.33617,-8.87446 -0.0816,-2.10519 q 7.5223,-8.31995 22.72083,-4.07436 7.05907,2.02684 11.87986,0.8088 0.8625,-0.36742 1.42185,-0.58532 0.68745,-0.25209 1.1187,-0.4358 l -2.95346,-12.86547 -2.08377,0.41893 1.02157,4.59878 q -2.74979,1.00835 -6.87492,0.46265 -1.61422,-0.39251 -3.35653,-0.75084 -1.74232,-0.35832 -3.43768,-0.79779 -11.73078,-2.56387 -20.26144,3.00629 l -1.08392,-16.6578 -23.93389,2.61421 1.49463,20.25322 q -10.18126,-5.24163 -16.28539,5.30706 -3.4277,5.9235 -0.81701,13.39151 l 1.44328,-0.24798 q -0.1887,-3.79189 1.40776,-6.55078 3.85029,-6.65379 12.98946,-2.23182 0.37153,0.10667 1.10182,0.52927 l 0.97372,0.56345 1.69522,19.71941 1.21716,0.70432 q 6.92921,-6.17192 15.82817,-6.76311 0.59353,-0.0898 1.39631,-0.16684 4.31295,0.22113 9.34386,3.13233 -4.41741,10.44157 0.1799,22.52524 l 1.07175,-0.35466 q 0.16052,-8.13902 4.08741,-16.04827 l 0.42259,-0.73029 0.42259,-0.73029 q 5.35285,-9.25039 14.0973,-13.50538 l -3.37649,-14.19341 z m -12.46987,15.74688 -32.53865,-18.82886 -0.47953,-5.90985 36.51469,21.12965 q -1.29786,1.30696 -2.1517,2.22096 -0.80689,0.83286 -1.34481,1.3881 z m -31.56273,-7.97424 11.84699,6.8554 q -4.80802,1.0088 -10.90936,4.62696 l -0.93763,-11.48236 z m 19.1332,-7.23353 -20.69166,-11.97347 -0.34688,-4.64163 19.63826,-1.74217 1.40028,18.35727 z"
         style="font-style:normal;font-variant:normal;font-weight:normal;font-stretch:normal;font-size:93.75px;line-height:0%;font-family:Canterbury;-inkscape-font-specification:'Canterbury, Normal';text-align:start;writing-mode:lr-tb;text-anchor:start"
         id="path3469"
         inkscape:connector-curvature="0" />
      <path
         d="m 830.61796,-259.38748 -2.0088,0.86878 q 0.0563,0.12004 0.22516,0.48016 0.0807,0.32825 0.137,0.44828 0.74874,2.06509 0.39813,3.03491 -0.41437,1.14614 -1.83993,1.2289 -2.17021,0.21229 -5.96131,-1.1583 l -0.35266,-0.1275 -0.35266,-0.1275 -30.30981,-9.36285 q -1.00169,-0.26245 -1.44252,-0.42183 -0.44082,-0.15937 -0.35266,-0.12749 l -1.49881,-0.54186 q -3.17394,-1.14748 -5.00304,-2.70595 -2.14988,-1.77413 -3.27978,-6.36954 l -0.45983,-1.76126 -1.76126,0.45983 q 0.22179,2.97115 1.0682,5.86906 0.84641,2.8979 2.31743,5.72256 -0.78399,0.51407 -1.32789,0.91557 -0.63207,0.36962 -1.05594,0.71482 -8.55804,6.57582 -11.64985,15.12784 l -0.12749,0.35266 -0.15937,0.44082 q -2.64352,8.41502 1.11305,17.0504 3.75658,8.63538 11.86777,11.56781 11.28514,4.07991 22.29822,-4.599 l 7.05056,9.72656 q 0.89115,1.11969 1.66227,2.29566 0.77111,1.17598 1.66226,2.29567 2.07122,2.5432 4.45168,3.4038 0.2645,0.0956 0.4727,0.0712 l 0.44083,0.15937 q 2.95624,0.37095 3.78497,-1.92135 0.76498,-2.11596 -0.93458,-2.92978 -0.44082,-0.15937 -1.1536,-0.11799 -0.80095,0.009 -1.5456,0.13904 -0.83282,0.0977 -1.57747,0.22721 -0.71278,0.0414 -0.97727,-0.0542 -0.70533,-0.25499 -1.09936,-1.09527 -0.39404,-0.84027 -0.13904,-1.5456 0.57373,-1.58697 2.1322,-3.41606 4.81986,-5.33538 12.63529,-10.68434 l -6.19476,-18.98727 q 1.88335,0.58119 3.4459,0.94672 1.47439,0.33366 2.71616,0.48353 3.42894,0.44215 7.45941,-2.98546 l -4.7739,-12.99072 z m -18.35244,11.60808 7.00438,2.13353 3.52058,10.94259 -15.85122,17.09802 -3.69416,-5.2234 9.02042,-24.95074 z m -25.51691,5.22975 12.94547,18.23782 q -9.7191,6.75419 -18.71195,3.50301 -5.73074,-2.07182 -7.98442,-7.97071 -2.6328,-7.33191 -0.30598,-13.76796 2.32682,-6.43606 6.75674,-10.41708 l 2.81045,3.80734 q -2.43603,3.70498 -3.61537,6.96709 -2.32683,6.43606 4.69319,12.66248 l 1.36722,-1.30011 q -2.5385,-4.00809 -1.35916,-7.2702 0.76498,-2.11596 3.40381,-4.45168 z m -2.20424,-13.75641 21.33392,6.61625 -7.33107,20.27799 -17.34699,-24.81352 q 1.78363,-1.34894 3.34414,-2.08072 z"
         style="font-style:normal;font-variant:normal;font-weight:normal;font-stretch:normal;font-size:93.75px;line-height:0%;font-family:Canterbury;-inkscape-font-specification:'Canterbury, Normal';text-align:start;writing-mode:lr-tb;text-anchor:start"
         id="path3471"
         inkscape:connector-curvature="0" />
      <path
         d="m 830.99961,-315.68128 0.0922,0.0169 q 6.60993,11.78938 4.19689,23.92829 l -46.10861,-8.4417 q 4.82116,-6.55137 7.0005,-12.72864 l -6.30207,-9.82686 q -1.84029,10.05168 -8.55901,18.63835 l 12.0158,20.785 19.64226,3.59616 q 3.87313,0.7091 5.18885,1.33122 2.4639,1.11826 3.68484,3.81981 -8.19686,3.64594 -17.14193,2.00825 -6.91629,-1.26626 -11.86621,-5.98483 -3.97837,-3.77824 -8.12045,-10.82693 l -1.07412,0.66112 q 1.47814,4.94073 3.87974,9.00214 2.32627,3.9523 5.63444,7.2266 6.96832,6.70836 16.55891,8.46423 11.71159,2.14419 21.84886,-4.29167 10.04506,-6.45274 12.17236,-18.07211 3.0559,-16.69131 -11.35872,-30.10022 l -1.38455,0.79491 z m -43.29754,17.32965 47.21521,8.6443 q -2.71961,9.12822 -11.09439,14.26652 -0.77802,-1.47676 -1.51448,-2.65998 -0.81178,-1.29233 -1.38069,-2.34957 -2.78607,-5.08488 -6.31372,-7.16035 -2.84057,-1.66376 -9.48021,-2.87937 l -14.20145,-2.60004 -3.23027,-5.26151 z"
         style="font-style:normal;font-variant:normal;font-weight:normal;font-stretch:normal;font-size:93.75px;line-height:0%;font-family:Canterbury;-inkscape-font-specification:'Canterbury, Normal';text-align:start;writing-mode:lr-tb;text-anchor:start"
         id="path3473"
         inkscape:connector-curvature="0" />
      <path
         d="m 789.5538,-317.27849 0.0937,10e-4 q -1.01035,-1.79319 -0.99172,-3.38683 0.0866,-7.40574 10.22406,-8.41228 0.84479,-0.0839 1.96971,-0.0707 1.12602,-0.0806 2.53217,-0.0642 l 3.46851,0.0406 q -2.95318,3.99699 -3.00141,8.12171 -0.023,1.96862 1.25651,4.79627 l 1.59802,-0.35634 0.004,-0.37497 q 0.003,-0.28123 -0.0894,-0.37607 l 0.008,-0.65621 q 0.0658,-5.62461 4.31931,-8.57508 3.6845,-2.39459 9.68518,-2.41818 l 0.28123,0.003 0.28123,0.003 q -3.61706,4.64553 -3.66967,9.14522 -0.005,0.46872 -0.01,0.84369 -0.004,0.37497 0.0839,0.84479 l 0.16776,1.68958 1.31241,0.0153 q 0.6359,-6.27424 5.73642,-9.49608 4.25134,-2.76298 11.09682,-2.87045 l 0.0937,0.001 0.18749,0.002 q -0.0723,6.18708 3.06671,10.34906 3.50745,4.72884 9.2269,4.70196 5.53087,0.0647 9.24058,-4.48602 3.33364,-4.46133 3.30457,-9.99329 -0.13158,-4.78312 -4.35062,-12.80175 -4.21903,-8.01862 -4.18505,-10.92468 l 0.004,-0.37497 q 0.002,-0.18749 0.097,-0.28013 0.20283,-1.31022 1.14027,-1.29926 0.84369,0.01 0.93305,0.38593 1.86062,1.24059 3.36052,1.25813 1.78112,0.0208 3.01295,-1.08984 1.23182,-1.11068 1.25264,-2.89181 0.0482,-4.12471 -4.5452,-4.17842 -3.84349,-0.045 -6.32905,4.05127 -2.00808,3.35175 -2.0585,7.66396 -0.0504,4.3122 2.94994,12.31658 2.99927,8.09812 2.95543,11.84787 -0.0417,3.56225 -2.32219,6.16077 -2.1857,2.50586 -5.56047,2.4664 -3.74974,-0.0438 -5.96561,-2.9762 -3.22951,-4.44432 -3.16703,-9.7877 0.0186,-1.59364 0.13978,-3.93614 0.0285,-2.43733 0.16061,-5.71726 0.13211,-3.27993 0.15951,-5.62352 0.0285,-2.43733 0.0471,-4.03097 0.3113,-26.62318 -29.31168,-26.96956 l -0.28123,-0.003 -0.28123,-0.003 q -8.25053,-0.003 -14.40086,4.8007 -6.52969,5.17401 -6.62396,13.23596 -0.0526,4.49969 2.32224,9.87158 0.54711,1.31898 1.83322,3.58418 1.19236,2.26409 3.02996,5.4733 -10.33372,1.75429 -10.45758,12.34732 -0.0581,4.96841 3.45264,9.41601 l 1.51196,-1.01364 z m 46.64642,-20.26849 -38.43488,-0.44941 -2.48175,-4.24806 40.96595,0.47901 -0.0493,4.21846 z m 0.0734,-6.28082 -13.21785,-0.15456 q -3.78539,-5.01335 -3.73497,-9.32555 0.0702,-5.99959 4.53748,-11.19772 12.79355,4.36864 12.41534,20.67783 z m -15.74893,-0.18415 -12.74913,-0.14908 q 3.80127,-4.3621 3.87032,-10.26795 0.0603,-5.15589 -4.0935,-10.73609 2.35126,-0.6288 7.31967,-0.57071 3.09354,0.0362 6.64813,0.73403 -4.18501,5.10767 -4.25845,11.38849 -0.0548,4.68718 3.26296,9.60131 z m -15.56143,-0.18196 -10.59303,-0.12386 q -1.73838,-3.67683 -1.70221,-6.77037 0.0592,-5.06215 3.94762,-8.8607 3.50798,-3.33421 8.67922,-4.58633 4.44818,4.45856 4.37912,10.36441 -0.0592,5.06215 -4.71072,9.97685 z"
         style="font-style:normal;font-variant:normal;font-weight:normal;font-stretch:normal;font-size:93.75px;line-height:0%;font-family:Canterbury;-inkscape-font-specification:'Canterbury, Normal';text-align:start;writing-mode:lr-tb;text-anchor:start"
         id="path3475"
         inkscape:connector-curvature="0" />
    </g>
    <path
       style="fill:#000000;fill-rule:evenodd;stroke:none;stroke-width:1.22205675px;stroke-linecap:butt;stroke-linejoin:miter;stroke-opacity:1"
       d="M 0.14886223,52.454107 748.5382,1052.2785 l -748.38933777,0 z"
       id="path3462"
       inkscape:connector-curvature="0" />
    <path
       style="fill:#82d0f4;fill-rule:evenodd;stroke:none;stroke-width:1.22205675px;stroke-linecap:butt;stroke-linejoin:miter;stroke-opacity:1;fill-opacity:1"
       d="m 2002.6032,54.349183 -748.3894,999.824417 748.3894,0 z"
       id="path3462-7"
       inkscape:connector-curvature="0" />
  </g>
</svg>
