<!-- Generated by IcoMoon.io -->
<svg version="1.1" xmlns="http://www.w3.org/2000/svg" width="128" height="128" viewBox="0 0 128 128">
<title>aids</title>
<path fill="#fff" d="M72.372 64.148c9.156-15.852 11.768-26.092 11.768-35.824 0-14.852-13.348-20.46-21.104-20.46s-21.028 5.416-21.028 20.464c0 9.608 2.48 19.94 11.624 35.684l-21.46 37.84 9.144 18.288 21.484-39.78 24.116 39.78 8.916-16.556-23.46-39.436zM53.584 25.844c0-7.636 4.696-9.3 9.436-9.3 4.752 0 9.312 1.624 9.312 9.264s-9.3 20.364-9.3 20.364-9.448-12.684-9.448-20.328z"></path>
</svg>
