<!-- Generated by IcoMoon.io -->
<svg version="1.1" xmlns="http://www.w3.org/2000/svg" width="128" height="128" viewBox="0 0 128 128">
<title>awareness-ribbon</title>
<path fill="#fff" d="M106.074 104.563c-4.845-6.726-18.246-24.474-29.248-39.078 4.454-6.394 8.006-11.616 9.632-14.349 9.888-16.602 5.594-27.264 0.141-36.288-5.466-9.030-6.33-14.246-22.598-14.246-16.275 0-17.139 5.216-22.598 14.253-5.466 9.024-9.754 19.686 0.134 36.288 1.626 2.726 5.178 7.955 9.638 14.349-11.008 14.598-24.41 32.352-29.254 39.078-1.126 1.562-1.024 4.25 0.058 6.925 0.832 2.061 4.032 11.277 4.813 13.21 0.998 2.49 4.25 4.288 6.925 0.589 1.542-2.138 16.525-22.56 30.285-41.741 13.754 19.174 28.742 39.603 30.285 41.741 2.669 3.699 5.926 1.901 6.925-0.589 0.781-1.939 3.981-11.149 4.813-13.21 1.069-2.682 1.178-5.37 0.051-6.931zM61.658 45.203c-6.835-9.498-11.725-20.55-11.725-20.55s2.688-4.851 14.067-4.851c11.379 0 14.067 4.851 14.067 4.851s-4.902 11.053-11.731 20.55c-0.563 0.774-1.395 1.901-2.336 3.181-0.954-1.28-1.786-2.406-2.342-3.181z"></path>
</svg>
