<!-- Generated by IcoMoon.io -->
<svg version="1.1" xmlns="http://www.w3.org/2000/svg" width="155" height="128" viewBox="0 0 155 128">
<title>balance-scale</title>
<path fill="#fff" d="M123.429 32l-27.429 50.286h54.857zM32 32l-27.429 50.286h54.857zM90.643 18.286c-1.357 3.857-4.5 7-8.357 8.357v92.214h43.429c1.286 0 2.286 1 2.286 2.286v4.571c0 1.286-1 2.286-2.286 2.286h-96c-1.286 0-2.286-1-2.286-2.286v-4.571c0-1.286 1-2.286 2.286-2.286h43.429v-92.214c-3.857-1.357-7-4.5-8.357-8.357h-35.071c-1.286 0-2.286-1-2.286-2.286v-4.571c0-1.286 1-2.286 2.286-2.286h35.071c1.929-5.357 6.929-9.143 12.929-9.143s11 3.786 12.929 9.143h35.071c1.286 0 2.286 1 2.286 2.286v4.571c0 1.286-1 2.286-2.286 2.286h-35.071zM77.714 19.429c3.143 0 5.714-2.571 5.714-5.714s-2.571-5.714-5.714-5.714-5.714 2.571-5.714 5.714 2.571 5.714 5.714 5.714zM155.429 82.286c0 14.714-20.357 20.571-32 20.571s-32-5.857-32-20.571v0c0-2.786 24.929-46.929 28-52.5 0.786-1.429 2.357-2.357 4-2.357s3.214 0.929 4 2.357c3.071 5.571 28 49.714 28 52.5v0zM64 82.286c0 14.714-20.357 20.571-32 20.571s-32-5.857-32-20.571v0c0-2.786 24.929-46.929 28-52.5 0.786-1.429 2.357-2.357 4-2.357s3.214 0.929 4 2.357c3.071 5.571 28 49.714 28 52.5z"></path>
</svg>
