<!-- Generated by IcoMoon.io -->
<svg version="1.1" xmlns="http://www.w3.org/2000/svg" width="137" height="128" viewBox="0 0 137 128">
<title>bank</title>
<path fill="#fff" d="M68.571 0l68.571 27.429v9.143h-9.143c0 2.5-2.214 4.571-4.929 4.571h-109c-2.714 0-4.929-2.071-4.929-4.571h-9.143v-9.143zM18.286 45.714h18.286v54.857h9.143v-54.857h18.286v54.857h9.143v-54.857h18.286v54.857h9.143v-54.857h18.286v54.857h4.214c2.714 0 4.929 2.071 4.929 4.571v4.571h-118.857v-4.571c0-2.5 2.214-4.571 4.929-4.571h4.214v-54.857zM132.214 114.286c2.714 0 4.929 2.071 4.929 4.571v9.143h-137.143v-9.143c0-2.5 2.214-4.571 4.929-4.571h127.286z"></path>
</svg>
