<!-- Generated by IcoMoon.io -->
<svg version="1.1" xmlns="http://www.w3.org/2000/svg" width="146" height="128" viewBox="0 0 146 128">
<title>bed</title>
<path fill="#fff" d="M18.286 73.143h123.429c2.5 0 4.571 2.071 4.571 4.571v32h-18.286v-18.286h-109.714v18.286h-18.286v-86.857c0-2.5 2.071-4.571 4.571-4.571h9.143c2.5 0 4.571 2.071 4.571 4.571v50.286zM59.429 50.286c0-10.071-8.214-18.286-18.286-18.286s-18.286 8.214-18.286 18.286 8.214 18.286 18.286 18.286 18.286-8.214 18.286-18.286zM146.286 68.571v-4.571c0-15.143-12.286-27.429-27.429-27.429h-50.286c-2.5 0-4.571 2.071-4.571 4.571v27.429h82.286z"></path>
</svg>
