<!-- Generated by IcoMoon.io -->
<svg version="1.1" xmlns="http://www.w3.org/2000/svg" width="128" height="128" viewBox="0 0 128 128">
<title>binoculars</title>
<path fill="#fff" d="M8 0h48v8h-48zM72 0h48v8h-48zM119 40h-7v-32h-32v32h-32v-32h-32v32h-7c-4.95 0-9 4.050-9 9v70c0 4.95 4.050 9 9 9h38c4.95 0 9-4.050 9-9v-47h16v47c0 4.95 4.050 9 9 9h38c4.95 0 9-4.050 9-9v-70c0-4.95-4.050-9-9-9zM43.5 120h-31c-2.475 0-4.5-1.8-4.5-4s2.025-4 4.5-4h31c2.475 0 4.5 1.8 4.5 4s-2.025 4-4.5 4zM68 64h-8c-2.2 0-4-1.8-4-4s1.8-4 4-4h8c2.2 0 4 1.8 4 4s-1.8 4-4 4zM115.5 120h-31c-2.475 0-4.5-1.8-4.5-4s2.025-4 4.5-4h31c2.475 0 4.5 1.8 4.5 4s-2.025 4-4.5 4z"></path>
</svg>
