<!-- Generated by IcoMoon.io -->
<svg version="1.1" xmlns="http://www.w3.org/2000/svg" width="128" height="128" viewBox="0 0 128 128">
<title>blocked</title>
<path fill="#fff" d="M109.255 18.745c-12.088-12.088-28.16-18.745-45.255-18.745s-33.167 6.657-45.255 18.745c-12.088 12.088-18.745 28.16-18.745 45.255s6.657 33.167 18.745 45.255c12.088 12.088 28.16 18.745 45.255 18.745s33.167-6.657 45.255-18.745c12.088-12.088 18.745-28.16 18.745-45.255s-6.657-33.167-18.745-45.255zM112 64c0 10.352-3.294 19.948-8.889 27.797l-66.908-66.909c7.849-5.595 17.445-8.889 27.797-8.889 26.467 0 48 21.533 48 48zM16 64c0-10.352 3.294-19.948 8.889-27.797l66.909 66.909c-7.849 5.594-17.446 8.889-27.798 8.889-26.467 0-48-21.533-48-48z"></path>
</svg>
