<!-- Generated by IcoMoon.io -->
<svg version="1.1" xmlns="http://www.w3.org/2000/svg" width="64" height="128" viewBox="0 0 64 128">
<title>bolt</title>
<path fill="#fff" d="M63.214 40.429c0.786 0.857 1 2.071 0.5 3.143l-38.571 82.643c-0.571 1.071-1.714 1.786-3 1.786-0.286 0-0.643-0.071-1-0.143-1.571-0.5-2.5-2-2.143-3.5l14.071-57.714-29 7.214c-0.286 0.071-0.571 0.071-0.857 0.071-0.786 0-1.643-0.286-2.214-0.786-0.857-0.714-1.143-1.786-0.929-2.786l14.357-58.929c0.357-1.357 1.643-2.286 3.143-2.286h23.429c1.786 0 3.214 1.357 3.214 3 0 0.429-0.143 0.857-0.357 1.286l-12.214 33.071 28.286-7c0.286-0.071 0.571-0.143 0.857-0.143 0.929 0 1.786 0.429 2.429 1.071z"></path>
</svg>
