<!-- Generated by IcoMoon.io -->
<svg version="1.1" xmlns="http://www.w3.org/2000/svg" width="144" height="128" viewBox="0 0 144 128">
<title>books</title>
<path fill="#fff" d="M28 16h-24c-2.2 0-4 1.8-4 4v88c0 2.2 1.8 4 4 4h24c2.2 0 4-1.8 4-4v-88c0-2.2-1.8-4-4-4zM24 40h-16v-8h16v8z"></path>
<path fill="#fff" d="M68 16h-24c-2.2 0-4 1.8-4 4v88c0 2.2 1.8 4 4 4h24c2.2 0 4-1.8 4-4v-88c0-2.2-1.8-4-4-4zM64 40h-16v-8h16v8z"></path>
<path fill="#fff" d="M95.636 22.185l-21.433 10.799c-1.965 0.99-2.762 3.407-1.772 5.372l35.997 71.444c0.99 1.965 3.407 2.762 5.372 1.772l21.433-10.799c1.964-0.99 2.762-3.407 1.772-5.372l-35.997-71.444c-0.99-1.965-3.407-2.762-5.372-1.773z"></path>
</svg>
