<!-- Generated by IcoMoon.io -->
<svg version="1.1" xmlns="http://www.w3.org/2000/svg" width="144" height="128" viewBox="0 0 144 128">
<title>bubbles2</title>
<path fill="#fff" d="M60 0v0c33.137 0 60 21.739 60 48.556s-26.863 48.556-60 48.556c-3.182 0-6.306-0.203-9.354-0.589-12.888 12.837-27.771 15.138-42.646 15.477v-3.142c8.032-3.919 14.5-11.058 14.5-19.217 0-1.138-0.089-2.256-0.254-3.349-13.57-8.902-22.246-22.498-22.246-37.736 0-26.817 26.863-48.556 60-48.556zM124.5 108.836c0 6.993 4.539 13.112 11.5 16.472v2.693c-12.891-0.29-24.723-2.263-35.893-13.266-2.642 0.331-5.349 0.505-8.107 0.505-11.934 0-22.926-3.22-31.702-8.63 18.084-0.063 35.157-5.857 48.104-16.334 6.526-5.281 11.674-11.478 15.302-18.418 3.846-7.358 5.796-15.198 5.796-23.301 0-1.306-0.056-2.605-0.157-3.896 9.071 7.492 14.657 17.703 14.657 28.959 0 13.061-7.52 24.715-19.28 32.346-0.143 0.937-0.22 1.895-0.22 2.871z"></path>
</svg>
