<!-- Generated by IcoMoon.io -->
<svg version="1.1" xmlns="http://www.w3.org/2000/svg" width="128" height="128" viewBox="0 0 128 128">
<title>bug</title>
<path fill="#fff" d="M128 72v-8h-24.161c-0.733-9.086-3.973-17.378-8.959-24.031h20.243l8.758-35.030-7.761-1.94-7.242 28.97h-21.835c-0.112-0.087-0.225-0.172-0.337-0.257 0.839-2.438 1.295-5.053 1.295-7.774 0-13.22-10.745-23.937-24-23.937s-24 10.717-24 23.938c0 2.721 0.456 5.337 1.295 7.774-0.112 0.085-0.225 0.17-0.337 0.257h-21.835l-7.242-28.97-7.761 1.94 8.758 35.030h20.243c-4.986 6.653-8.226 14.945-8.959 24.031h-24.161v8h24.171c0.475 5.708 1.939 11.102 4.205 15.969h-15.499l-8.758 35.030 7.761 1.941 7.243-28.97h14.044c7.337 9.754 18.424 15.969 30.832 15.969s23.496-6.215 30.833-15.969h14.044l7.243 28.97 7.761-1.941-8.758-35.030h-15.499c2.266-4.867 3.73-10.261 4.204-15.969h24.171z"></path>
</svg>
