<!-- Generated by IcoMoon.io -->
<svg version="1.1" xmlns="http://www.w3.org/2000/svg" width="101" height="128" viewBox="0 0 101 128">
<title>building-o</title>
<path fill="#fff" d="M27.429 93.714v4.571c0 1.214-1.071 2.286-2.286 2.286h-4.571c-1.214 0-2.286-1.071-2.286-2.286v-4.571c0-1.214 1.071-2.286 2.286-2.286h4.571c1.214 0 2.286 1.071 2.286 2.286zM27.429 75.429v4.571c0 1.214-1.071 2.286-2.286 2.286h-4.571c-1.214 0-2.286-1.071-2.286-2.286v-4.571c0-1.214 1.071-2.286 2.286-2.286h4.571c1.214 0 2.286 1.071 2.286 2.286zM45.714 75.429v4.571c0 1.214-1.071 2.286-2.286 2.286h-4.571c-1.214 0-2.286-1.071-2.286-2.286v-4.571c0-1.214 1.071-2.286 2.286-2.286h4.571c1.214 0 2.286 1.071 2.286 2.286zM27.429 57.143v4.571c0 1.214-1.071 2.286-2.286 2.286h-4.571c-1.214 0-2.286-1.071-2.286-2.286v-4.571c0-1.214 1.071-2.286 2.286-2.286h4.571c1.214 0 2.286 1.071 2.286 2.286zM82.286 93.714v4.571c0 1.214-1.071 2.286-2.286 2.286h-4.571c-1.214 0-2.286-1.071-2.286-2.286v-4.571c0-1.214 1.071-2.286 2.286-2.286h4.571c1.214 0 2.286 1.071 2.286 2.286zM64 75.429v4.571c0 1.214-1.071 2.286-2.286 2.286h-4.571c-1.214 0-2.286-1.071-2.286-2.286v-4.571c0-1.214 1.071-2.286 2.286-2.286h4.571c1.214 0 2.286 1.071 2.286 2.286zM45.714 57.143v4.571c0 1.214-1.071 2.286-2.286 2.286h-4.571c-1.214 0-2.286-1.071-2.286-2.286v-4.571c0-1.214 1.071-2.286 2.286-2.286h4.571c1.214 0 2.286 1.071 2.286 2.286zM27.429 38.857v4.571c0 1.214-1.071 2.286-2.286 2.286h-4.571c-1.214 0-2.286-1.071-2.286-2.286v-4.571c0-1.214 1.071-2.286 2.286-2.286h4.571c1.214 0 2.286 1.071 2.286 2.286zM82.286 75.429v4.571c0 1.214-1.071 2.286-2.286 2.286h-4.571c-1.214 0-2.286-1.071-2.286-2.286v-4.571c0-1.214 1.071-2.286 2.286-2.286h4.571c1.214 0 2.286 1.071 2.286 2.286zM64 57.143v4.571c0 1.214-1.071 2.286-2.286 2.286h-4.571c-1.214 0-2.286-1.071-2.286-2.286v-4.571c0-1.214 1.071-2.286 2.286-2.286h4.571c1.214 0 2.286 1.071 2.286 2.286zM45.714 38.857v4.571c0 1.214-1.071 2.286-2.286 2.286h-4.571c-1.214 0-2.286-1.071-2.286-2.286v-4.571c0-1.214 1.071-2.286 2.286-2.286h4.571c1.214 0 2.286 1.071 2.286 2.286zM27.429 20.571v4.571c0 1.214-1.071 2.286-2.286 2.286h-4.571c-1.214 0-2.286-1.071-2.286-2.286v-4.571c0-1.214 1.071-2.286 2.286-2.286h4.571c1.214 0 2.286 1.071 2.286 2.286zM82.286 57.143v4.571c0 1.214-1.071 2.286-2.286 2.286h-4.571c-1.214 0-2.286-1.071-2.286-2.286v-4.571c0-1.214 1.071-2.286 2.286-2.286h4.571c1.214 0 2.286 1.071 2.286 2.286zM64 38.857v4.571c0 1.214-1.071 2.286-2.286 2.286h-4.571c-1.214 0-2.286-1.071-2.286-2.286v-4.571c0-1.214 1.071-2.286 2.286-2.286h4.571c1.214 0 2.286 1.071 2.286 2.286zM45.714 20.571v4.571c0 1.214-1.071 2.286-2.286 2.286h-4.571c-1.214 0-2.286-1.071-2.286-2.286v-4.571c0-1.214 1.071-2.286 2.286-2.286h4.571c1.214 0 2.286 1.071 2.286 2.286zM82.286 38.857v4.571c0 1.214-1.071 2.286-2.286 2.286h-4.571c-1.214 0-2.286-1.071-2.286-2.286v-4.571c0-1.214 1.071-2.286 2.286-2.286h4.571c1.214 0 2.286 1.071 2.286 2.286zM64 20.571v4.571c0 1.214-1.071 2.286-2.286 2.286h-4.571c-1.214 0-2.286-1.071-2.286-2.286v-4.571c0-1.214 1.071-2.286 2.286-2.286h4.571c1.214 0 2.286 1.071 2.286 2.286zM82.286 20.571v4.571c0 1.214-1.071 2.286-2.286 2.286h-4.571c-1.214 0-2.286-1.071-2.286-2.286v-4.571c0-1.214 1.071-2.286 2.286-2.286h4.571c1.214 0 2.286 1.071 2.286 2.286zM64 118.857h27.429v-109.714h-82.286v109.714h27.429v-16c0-1.214 1.071-2.286 2.286-2.286h22.857c1.214 0 2.286 1.071 2.286 2.286v16zM100.571 4.571v118.857c0 2.5-2.071 4.571-4.571 4.571h-91.429c-2.5 0-4.571-2.071-4.571-4.571v-118.857c0-2.5 2.071-4.571 4.571-4.571h91.429c2.5 0 4.571 2.071 4.571 4.571z"></path>
</svg>
