<!-- Generated by IcoMoon.io -->
<svg version="1.1" xmlns="http://www.w3.org/2000/svg" width="128" height="128" viewBox="0 0 128 128">
<title>cloud-check</title>
<path fill="#fff" d="M111.534 64.311c0.305-1.389 0.466-2.831 0.466-4.311 0-11.046-8.954-20-20-20-1.778 0-3.502 0.233-5.142 0.669-3.1-9.669-12.161-16.669-22.858-16.669-10.919 0-20.132 7.292-23.041 17.271-2.843-0.828-5.849-1.271-8.959-1.271-17.673 0-32 14.327-32 32s14.327 32 32 32h76c11.046 0 20-8.954 20-20 0-9.84-7.107-18.020-16.466-19.689zM52 96l-20-20 8-8 12 12 28-28 8 8-36 36z"></path>
</svg>
