<!-- Generated by IcoMoon.io -->
<svg version="1.1" xmlns="http://www.w3.org/2000/svg" width="128" height="128" viewBox="0 0 128 128">
<title>comments</title>
<path fill="#fff" d="M100.571 54.857c0 20.214-22.5 36.571-50.286 36.571-4.357 0-8.571-0.429-12.571-1.143-5.929 4.214-12.643 7.286-19.857 9.143-1.929 0.5-4 0.857-6.143 1.143h-0.214c-1.071 0-2.071-0.857-2.286-2.071v0c-0.286-1.357 0.643-2.214 1.429-3.143 2.786-3.143 5.929-5.929 8.357-11.857-11.571-6.714-19-17.071-19-28.643 0-20.214 22.5-36.571 50.286-36.571s50.286 16.357 50.286 36.571zM128 73.143c0 11.643-7.429 21.929-19 28.643 2.429 5.929 5.571 8.714 8.357 11.857 0.786 0.929 1.714 1.786 1.429 3.143v0c-0.286 1.286-1.357 2.214-2.5 2.071-2.143-0.286-4.214-0.643-6.143-1.143-7.214-1.857-13.929-4.929-19.857-9.143-4 0.714-8.214 1.143-12.571 1.143-12.929 0-24.786-3.571-33.714-9.429 2.071 0.143 4.214 0.286 6.286 0.286 15.357 0 29.857-4.429 40.929-12.429 11.929-8.714 18.5-20.5 18.5-33.286 0-3.714-0.571-7.357-1.643-10.857 12.071 6.643 19.929 17.214 19.929 29.143z"></path>
</svg>
