<!-- Generated by IcoMoon.io -->
<svg version="1.1" xmlns="http://www.w3.org/2000/svg" width="180" height="128" viewBox="0 0 180 128">
<title>dglasses</title>
<path fill="#fff" d="M53.712 32.2c6.86 0 8.576 3.428 13.144 2.856 4.572-0.572 0.572-8.572-3.428-14.284s-13.14-2.856-20 1.144c-6.856 4-43.284 26.144-43.284 26.144h31.856c0-0.004 14.856-15.86 21.712-15.86zM0 52.196v52c0 4.416 3.58 8 8 8 0 0 30.84 0 64.332 0 6.008 0 11.5-18.668 17.668-18.668 5.356 0 9.384 18.668 14.664 18.668 35.572 0 67.332 0 67.332 0 4.42 0 8.004-3.584 8.004-8v-52h-180zM72 88.2c0 6.624-5.376 12-12 12h-36c-6.628 0-12-5.376-12-12v-12c0-6.628 5.372-12 12-12h36c6.624 0 12 5.372 12 12v12zM168 88.2c0 6.624-5.376 12-12 12h-36c-6.628 0-12-5.376-12-12v-12c0-6.628 5.372-12 12-12h36c6.624 0 12 5.372 12 12v12zM113.14 35.056c4.572 0.572 6.284-2.856 13.144-2.856 6.856 0 21.716 15.856 21.716 15.856h31.856c0 0-36.428-22.144-43.284-26.144-6.86-4-16-6.856-20-1.144s-8 13.716-3.432 14.288z"></path>
</svg>
