<!-- Generated by IcoMoon.io -->
<svg version="1.1" xmlns="http://www.w3.org/2000/svg" width="128" height="128" viewBox="0 0 128 128">
<title>dice</title>
<path fill="#fff" d="M108 24h-64c-11 0-20 9-20 20v64c0 11 9 20 20 20h64c11 0 20-9 20-20v-64c0-11-9-20-20-20zM52 112c-6.627 0-12-5.373-12-12s5.373-12 12-12 12 5.373 12 12-5.373 12-12 12zM52 64c-6.627 0-12-5.373-12-12s5.373-12 12-12 12 5.373 12 12-5.373 12-12 12zM76 88c-6.627 0-12-5.373-12-12s5.373-12 12-12 12 5.373 12 12-5.373 12-12 12zM100 112c-6.627 0-12-5.373-12-12s5.373-12 12-12 12 5.373 12 12-5.373 12-12 12zM100 64c-6.627 0-12-5.373-12-12s5.373-12 12-12 12 5.373 12 12-5.373 12-12 12zM103.595 16c-1.866-9.101-9.964-16-19.595-16h-64c-11 0-20 9-20 20v64c0 9.631 6.899 17.729 16 19.595v-79.595c0-4.4 3.6-8 8-8h79.595z"></path>
</svg>
