<!-- Generated by IcoMoon.io -->
<svg version="1.1" xmlns="http://www.w3.org/2000/svg" width="128" height="128" viewBox="0 0 128 128">
<title>diving-goggles</title>
<path fill="#fff" d="M64 84h8v-12h-28v12h8c0 15.464 0 0 0 0 0 17.673 14.363 32 32 32 17.673 0 32-14.328 32-31.984v-68.016h-12v68.031c0 11.028-8.977 19.969-20 19.969-11.046 0-20-8.983-20-20 0 0 0 7.899 0 0v0zM108 36v-16h4v16h-4zM16 46v1.996c0 11.048 8.936 20.004 19.976 20.004h4.012c2.216 0 5.019-1.438 6.324-3.303l7.104-10.149c2.532-3.617 6.642-3.598 9.151 0l7.078 10.149c1.272 1.824 4.058 3.303 6.322 3.303h4.019c11.053 0 20.013-8.957 20.013-20.004v-1.996c0-12.15-9.883-22-21.96-22h-40.079c-12.128 0-21.96 9.874-21.96 22v0zM78.040 28c9.886 0 17.96 8.076 17.96 18v1.996c0 8.838-7.169 16.004-16.013 16.004h-4.019c-0.938 0-2.507-0.824-3.041-1.591l-7.078-10.149c-4.103-5.883-11.587-5.894-15.709-0.006l-7.104 10.149c-0.546 0.78-2.118 1.597-3.047 1.597h-4.012c-8.827 0-15.976-7.161-15.976-16.004v-1.996c0-9.927 8.052-18 17.96-18h40.079zM78.040 32c7.676 0 13.96 6.258 13.96 13.94v1.987c0 6.6-5.378 11.953-12.013 11.953h-4.019c0.374 0 0.028-0.181 0.239 0.121l-7.078-10.105c-5.693-8.127-16.55-8.143-22.267-0.011l-7.104 10.105c0.203-0.289-0.145-0.109 0.23-0.109h-4.012c-6.616 0-11.976-5.346-11.976-11.953v-1.987c0-7.687 6.263-13.94 13.96-13.94h40.079z"></path>
</svg>
