<!-- Generated by IcoMoon.io -->
<svg version="1.1" xmlns="http://www.w3.org/2000/svg" width="128" height="128" viewBox="0 0 128 128">
<title>droplet</title>
<path fill="#fff" d="M108.078 59.145c-8.219-22.93-25.639-43.519-44.078-59.145-18.439 15.627-35.859 36.215-44.078 59.145-5.083 14.179-5.585 29.57 1.573 43.175 8.231 15.642 24.829 25.68 42.505 25.68s34.275-10.037 42.505-25.68c7.159-13.605 6.656-28.995 1.573-43.175zM92.346 94.87c-5.475 10.406-16.602 17.13-28.346 17.13-6.89 0-13.566-2.317-19.014-6.332 1.655 0.216 3.329 0.332 5.014 0.332 14.678 0 28.584-8.402 35.425-21.405 5.61-10.662 5.122-21.731 2.985-30.542 1.82 3.519 3.363 7.025 4.606 10.492 2.826 7.883 5.003 19.543-0.671 30.326z"></path>
</svg>
