<!-- Generated by IcoMoon.io -->
<svg version="1.1" xmlns="http://www.w3.org/2000/svg" width="128" height="128" viewBox="0 0 128 128">
<title>fire</title>
<path fill="#fff" d="M40.126 128c-8.531-17.751-3.988-27.922 2.569-37.505 7.18-10.495 9.031-20.883 9.031-20.883s5.644 7.338 3.386 18.814c9.972-11.1 11.853-28.785 10.348-35.558 22.539 15.752 32.172 49.857 19.19 75.133 69.047-39.066 17.175-97.522 8.144-104.106 3.010 6.584 3.581 17.731-2.5 23.141-10.294-39.035-35.746-47.035-35.746-47.035 3.010 20.131-10.912 42.143-24.337 58.591-0.472-8.027-0.973-13.566-5.194-21.247-0.948 14.582-12.091 26.468-15.109 41.078-4.088 19.786 3.062 34.273 30.219 49.578z"></path>
</svg>
