<!-- Generated by IcoMoon.io -->
<svg version="1.1" xmlns="http://www.w3.org/2000/svg" width="133" height="128" viewBox="0 0 133 128">
<title>flag-checkered</title>
<path fill="#fff" d="M59.429 71.429v-13.714c-8.714 0.786-19.214 4.286-27.429 8.357v13.214c8.286-3.857 18.571-7.143 27.429-7.857zM59.429 41.571v-14.071c-9 0.429-19.571 4.643-27.429 9v13.5c8.429-4.357 18.571-8.071 27.429-8.429zM118.857 74.643v-13.143c-6.5 3.214-17.857 8-27.429 5.071v-16c-0.929-0.286-1.857-0.643-2.786-1.071-8.214-4.143-14.929-8-25.714-8-1.143 0-2.286 0.071-3.5 0.214v15.857h1.357c10.786 0 19.643 3.857 27.857 7.929 0.929 0.429 1.857 0.786 2.786 1.071v13.429c1.929 0.786 4.071 1.214 6.5 1.214 7.929 0 16.5-4.214 20.929-6.571zM118.857 44.143v-13.5c-5.714 3.071-13.714 6.5-21.857 6.5v0c-1.929 0-3.786-0.143-5.571-0.571v14c9.571 2.714 20.929-2.786 27.429-6.429zM22.857 18.286c0 3.357-1.857 6.286-4.571 7.857v90.429c0 1.286-1 2.286-2.286 2.286h-4.571c-1.286 0-2.286-1-2.286-2.286v-90.429c-2.714-1.571-4.571-4.5-4.571-7.857 0-5.071 4.071-9.143 9.143-9.143s9.143 4.071 9.143 9.143zM128 22.857v54.5c0 1.714-1 3.286-2.5 4.071-0.286 0.143-0.714 0.357-1.214 0.643-4.571 2.429-15.357 8.286-26.357 8.286-4.214 0-8-0.857-11.286-2.5l-2-1c-7.214-3.643-12.929-6.5-21.714-6.5-10.286 0-24.786 5.357-33.143 10.429-0.714 0.429-1.571 0.643-2.357 0.643s-1.571-0.214-2.286-0.571c-1.429-0.857-2.286-2.357-2.286-4v-53c0-1.571 0.857-3.071 2.214-3.929 4.571-2.714 20.714-11.643 35.714-11.643 11.929 0 21.643 4.357 29.857 8.357 1.857 0.929 4 1.357 6.357 1.357 8.429 0 17.714-5.357 22.143-8 0.929-0.5 1.714-0.929 2.214-1.214 1.429-0.714 3.071-0.643 4.429 0.143 1.357 0.857 2.214 2.357 2.214 3.929z"></path>
</svg>
