<!-- Generated by IcoMoon.io -->
<svg version="1.1" xmlns="http://www.w3.org/2000/svg" width="128" height="128" viewBox="0 0 128 128">
<title>futbol-o</title>
<path fill="#fff" d="M43.5 58.286l20.5-14.857 20.5 14.857-7.786 24h-25.357zM64 0c35.357 0 64 28.643 64 64s-28.643 64-64 64-64-28.643-64-64 28.643-64 64-64zM108.214 96.429c6.714-9.143 10.643-20.286 10.643-32.429v-0.214l-7.286 6.357-17.143-16 4.5-23.071 9.571 0.857c-6.786-9.357-16.5-16.571-27.786-20.143l3.786 8.857-20.5 11.357-20.5-11.357 3.786-8.857c-11.286 3.571-21 10.786-27.786 20.143l9.643-0.857 4.429 23.071-17.143 16-7.286-6.357v0.214c0 12.143 3.929 23.286 10.643 32.429l2.143-9.429 23.286 2.857 9.929 21.286-8.286 4.929c5.357 1.786 11.143 2.786 17.143 2.786s11.786-1 17.143-2.786l-8.286-4.929 9.929-21.286 23.286-2.857z"></path>
</svg>
