<!-- Generated by IcoMoon.io -->
<svg version="1.1" xmlns="http://www.w3.org/2000/svg" width="128" height="128" viewBox="0 0 128 128">
<title>golf</title>
<path fill="#fff" d="M48 34v70h4v-49.714l52-22.286-56-24v26zM56 84.427c3.219-0.279 6.566-0.427 10-0.427 25.405 0 46 8.059 46 18s-20.595 18-46 18c-25.405 0-46-8.059-46-18 0-6.823 9.701-12.759 24-15.812v11.011c-2.429 1.095-4 2.838-4 4.8 0 3.314 4.477 6 10 6s10-2.686 10-6c0-1.963-1.571-3.706-4-4.8v-12.773zM82 104c3.314 0 6-1.791 6-4s-2.686-4-6-4c-3.314 0-6 1.791-6 4s2.686 4 6 4v0z"></path>
</svg>
