<!-- Generated by IcoMoon.io -->
<svg version="1.1" xmlns="http://www.w3.org/2000/svg" width="128" height="128" viewBox="0 0 128 128">
<title>headphones</title>
<path fill="#fff" d="M36 72h-8v56h8c2.2 0 4-1.8 4-4v-48c0-2.2-1.8-4-4-4z"></path>
<path fill="#fff" d="M92 72c-2.2 0-4 1.8-4 4v48c0 2.2 1.8 4 4 4h8v-56h-8z"></path>
<path fill="#fff" d="M128 64c0-35.346-28.654-64-64-64s-64 28.654-64 64c0 7.677 1.354 15.036 3.832 21.856-2.435 4.151-3.832 8.984-3.832 14.144 0 14.106 10.431 25.773 24 27.715v-55.427c-3.989 0.571-7.708 1.98-10.969 4.047-0.674-3.34-1.031-6.796-1.031-10.335 0-28.719 23.281-52 52-52s52 23.281 52 52c0 3.539-0.354 6.996-1.028 10.337-3.263-2.068-6.982-3.481-10.972-4.052v55.43c13.569-1.942 24-13.609 24-27.714 0-5.159-1.397-9.992-3.831-14.142 2.478-6.821 3.831-14.181 3.831-21.858z"></path>
</svg>
