<!-- Generated by IcoMoon.io -->
<svg version="1.1" xmlns="http://www.w3.org/2000/svg" width="101" height="128" viewBox="0 0 101 128">
<title>hospital-o</title>
<path fill="#fff" d="M27.429 93.714v4.571c0 1.214-1.071 2.286-2.286 2.286h-4.571c-1.214 0-2.286-1.071-2.286-2.286v-4.571c0-1.214 1.071-2.286 2.286-2.286h4.571c1.214 0 2.286 1.071 2.286 2.286zM27.429 75.429v4.571c0 1.214-1.071 2.286-2.286 2.286h-4.571c-1.214 0-2.286-1.071-2.286-2.286v-4.571c0-1.214 1.071-2.286 2.286-2.286h4.571c1.214 0 2.286 1.071 2.286 2.286zM45.714 75.429v4.571c0 1.214-1.071 2.286-2.286 2.286h-4.571c-1.214 0-2.286-1.071-2.286-2.286v-4.571c0-1.214 1.071-2.286 2.286-2.286h4.571c1.214 0 2.286 1.071 2.286 2.286zM27.429 57.143v4.571c0 1.214-1.071 2.286-2.286 2.286h-4.571c-1.214 0-2.286-1.071-2.286-2.286v-4.571c0-1.214 1.071-2.286 2.286-2.286h4.571c1.214 0 2.286 1.071 2.286 2.286zM82.286 93.714v4.571c0 1.214-1.071 2.286-2.286 2.286h-4.571c-1.214 0-2.286-1.071-2.286-2.286v-4.571c0-1.214 1.071-2.286 2.286-2.286h4.571c1.214 0 2.286 1.071 2.286 2.286zM64 75.429v4.571c0 1.214-1.071 2.286-2.286 2.286h-4.571c-1.214 0-2.286-1.071-2.286-2.286v-4.571c0-1.214 1.071-2.286 2.286-2.286h4.571c1.214 0 2.286 1.071 2.286 2.286zM45.714 57.143v4.571c0 1.214-1.071 2.286-2.286 2.286h-4.571c-1.214 0-2.286-1.071-2.286-2.286v-4.571c0-1.214 1.071-2.286 2.286-2.286h4.571c1.214 0 2.286 1.071 2.286 2.286zM82.286 75.429v4.571c0 1.214-1.071 2.286-2.286 2.286h-4.571c-1.214 0-2.286-1.071-2.286-2.286v-4.571c0-1.214 1.071-2.286 2.286-2.286h4.571c1.214 0 2.286 1.071 2.286 2.286zM64 57.143v4.571c0 1.214-1.071 2.286-2.286 2.286h-4.571c-1.214 0-2.286-1.071-2.286-2.286v-4.571c0-1.214 1.071-2.286 2.286-2.286h4.571c1.214 0 2.286 1.071 2.286 2.286zM82.286 57.143v4.571c0 1.214-1.071 2.286-2.286 2.286h-4.571c-1.214 0-2.286-1.071-2.286-2.286v-4.571c0-1.214 1.071-2.286 2.286-2.286h4.571c1.214 0 2.286 1.071 2.286 2.286zM64 118.857h27.429v-82.286h-18.286v2.286c0 3.786-3.071 6.857-6.857 6.857h-32c-3.786 0-6.857-3.071-6.857-6.857v-2.286h-18.286v82.286h27.429v-16c0-1.214 1.071-2.286 2.286-2.286h22.857c1.214 0 2.286 1.071 2.286 2.286v16zM64 34.286v-22.857c0-1.214-1.071-2.286-2.286-2.286h-4.571c-1.214 0-2.286 1.071-2.286 2.286v6.857h-9.143v-6.857c0-1.214-1.071-2.286-2.286-2.286h-4.571c-1.214 0-2.286 1.071-2.286 2.286v22.857c0 1.214 1.071 2.286 2.286 2.286h4.571c1.214 0 2.286-1.071 2.286-2.286v-6.857h9.143v6.857c0 1.214 1.071 2.286 2.286 2.286h4.571c1.214 0 2.286-1.071 2.286-2.286zM100.571 32v91.429c0 2.5-2.071 4.571-4.571 4.571h-91.429c-2.5 0-4.571-2.071-4.571-4.571v-91.429c0-2.5 2.071-4.571 4.571-4.571h22.857v-20.571c0-3.786 3.071-6.857 6.857-6.857h32c3.786 0 6.857 3.071 6.857 6.857v20.571h22.857c2.5 0 4.571 2.071 4.571 4.571z"></path>
</svg>
