<!-- Generated by IcoMoon.io -->
<svg version="1.1" xmlns="http://www.w3.org/2000/svg" width="128" height="128" viewBox="0 0 128 128">
<title>image</title>
<path fill="#fff" d="M119.986 16c0.005 0.004 0.010 0.009 0.014 0.015v95.971c-0.004 0.005-0.010 0.010-0.014 0.014h-111.971c-0.005-0.004-0.010-0.010-0.014-0.014v-95.972c0.004-0.005 0.009-0.010 0.014-0.014h111.971zM120 8h-112c-4.4 0-8 3.6-8 8v96c0 4.4 3.6 8 8 8h112c4.4 0 8-3.6 8-8v-96c0-4.4-3.6-8-8-8v0z"></path>
<path fill="#fff" d="M104 36c0 6.627-5.373 12-12 12s-12-5.373-12-12 5.373-12 12-12 12 5.372 12 12z"></path>
<path fill="#fff" d="M112 104h-96v-16l28-48 32 40h8l28-24z"></path>
</svg>
