<!-- Generated by IcoMoon.io -->
<svg version="1.1" xmlns="http://www.w3.org/2000/svg" width="128" height="128" viewBox="0 0 128 128">
<title>industry</title>
<path fill="#fff" d="M32 0c2.5 0 4.571 2.071 4.571 4.571v63.643l38.286-30.643c0.786-0.643 1.857-1 2.857-1 2.5 0 4.571 2.071 4.571 4.571v27.071l38.286-30.643c0.786-0.643 1.857-1 2.857-1 2.5 0 4.571 2.071 4.571 4.571v82.286c0 2.5-2.071 4.571-4.571 4.571h-118.857c-2.5 0-4.571-2.071-4.571-4.571v-118.857c0-2.5 2.071-4.571 4.571-4.571h27.429z"></path>
</svg>
