<!-- Generated by IcoMoon.io -->
<svg version="1.1" xmlns="http://www.w3.org/2000/svg" width="128" height="128" viewBox="0 0 128 128">
<title>lifebuoy</title>
<path fill="#fff" d="M64 0c-35.346 0-64 28.654-64 64s28.654 64 64 64 64-28.654 64-64-28.654-64-64-64zM40 64c0-13.255 10.745-24 24-24s24 10.745 24 24-10.745 24-24 24-24-10.745-24-24zM115.748 85.434v0l-22.177-9.186c1.565-3.773 2.43-7.909 2.43-12.248s-0.865-8.475-2.43-12.248l22.177-9.186c2.739 6.603 4.252 13.841 4.252 21.434s-1.514 14.832-4.252 21.434v0zM85.435 12.252v0 0l-9.186 22.178c-3.773-1.565-7.909-2.43-12.248-2.43s-8.475 0.865-12.248 2.43l-9.186-22.178c6.603-2.738 13.842-4.252 21.434-4.252s14.832 1.514 21.435 4.253zM12.252 42.566l22.178 9.186c-1.565 3.773-2.43 7.91-2.43 12.248s0.865 8.475 2.43 12.248l-22.177 9.186c-2.738-6.603-4.253-13.841-4.253-21.434s1.514-14.832 4.253-21.434zM42.566 115.748l9.186-22.177c3.773 1.565 7.91 2.43 12.248 2.43s8.475-0.865 12.248-2.43l9.186 22.177c-6.603 2.738-13.841 4.252-21.434 4.252s-14.832-1.514-21.434-4.252z"></path>
</svg>
