<!-- Generated by IcoMoon.io -->
<svg version="1.1" xmlns="http://www.w3.org/2000/svg" width="128" height="128" viewBox="0 0 128 128">
<title>medkit</title>
<path fill="#fff" d="M91.429 80v-13.714c0-1.286-1-2.286-2.286-2.286h-16v-16c0-1.286-1-2.286-2.286-2.286h-13.714c-1.286 0-2.286 1-2.286 2.286v16h-16c-1.286 0-2.286 1-2.286 2.286v13.714c0 1.286 1 2.286 2.286 2.286h16v16c0 1.286 1 2.286 2.286 2.286h13.714c1.286 0 2.286-1 2.286-2.286v-16h16c1.286 0 2.286-1 2.286-2.286zM45.714 27.429h36.571v-9.143h-36.571v9.143zM18.286 27.429v91.429h-2.286c-8.786 0-16-7.214-16-16v-59.429c0-8.786 7.214-16 16-16h2.286zM102.857 27.429v91.429h-77.714v-91.429h11.429v-11.429c0-3.786 3.071-6.857 6.857-6.857h41.143c3.786 0 6.857 3.071 6.857 6.857v11.429h11.429zM128 43.429v59.429c0 8.786-7.214 16-16 16h-2.286v-91.429h2.286c8.786 0 16 7.214 16 16z"></path>
</svg>
