<!-- Generated by IcoMoon.io -->
<svg version="1.1" xmlns="http://www.w3.org/2000/svg" width="96" height="128" viewBox="0 0 96 128">
<title>microscope</title>
<path fill="#fff" d="M77.125 112c10.789-2.344 18.875-12.5 18.875-24 0-7.305-3.328-13.766-8.484-18.172 0.297-1.906 0.484-3.844 0.484-5.828 0-13.105-6.234-24.734-16-32l8-8v-8l8-8-8-8-8 8h-8l-32 32-16 8v16l8 8h16l8-16 12-12c6.938 4.176 12 11.305 12 20-13.258 0-24 10.742-24 24h-48v8h24c2.391 1.781 5.258 2.766 8 4v12h-16l-16 16h96l-16-16h-2.875zM64 88c0-4.422 3.578-8 8-8s8 3.578 8 8c0 4.414-3.578 8-8 8s-8-3.586-8-8z"></path>
</svg>
