<!-- Generated by IcoMoon.io -->
<svg version="1.1" xmlns="http://www.w3.org/2000/svg" width="129" height="128" viewBox="0 0 129 128">
<title>plug</title>
<path fill="#fff" d="M125.357 32.357c3.5 3.571 3.5 9.357 0 12.929l-28.643 28.571 10.714 10.714-11.429 11.429c-15.643 15.643-39.5 17.857-57.214 6.143l-25.857 25.857h-12.929v-12.929l25.857-25.857c-11.714-17.714-9.5-41.571 6.143-57.214l11.429-11.429 10.714 10.714 28.571-28.643c3.571-3.5 9.357-3.5 12.929 0 3.571 3.571 3.571 9.429 0 12.929l-28.571 28.643 16.714 16.714 28.643-28.571c3.571-3.571 9.357-3.571 12.929 0z"></path>
</svg>
