<!-- Generated by IcoMoon.io -->
<svg version="1.1" xmlns="http://www.w3.org/2000/svg" width="128" height="128" viewBox="0 0 128 128">
<title>podcast</title>
<path fill="#fff" d="M128 64c0-35.346-28.654-64-64-64s-64 28.654-64 64c0 27.507 17.355 50.958 41.711 60.008l-1.711 3.992h48l-1.711-3.992c24.356-9.050 41.711-32.502 41.711-60.008zM60.849 79.353c-2.851-1.224-4.849-4.055-4.849-7.353 0-4.418 3.582-8 8-8s8 3.582 8 8c0 3.299-1.997 6.13-4.848 7.354l-3.152-7.354-3.151 7.353zM67.284 79.662c7.261-1.515 12.716-7.95 12.716-15.662 0-8.837-7.163-16-16-16s-16 7.163-16 16c0 7.712 5.458 14.14 12.72 15.653l-9.328 21.765c-11.404-4.894-19.392-16.223-19.392-29.419 0-17.673 14.327-33.5 32-33.5s32 15.827 32 33.5c0 13.196-7.988 24.525-19.392 29.419l-9.325-21.757zM86.056 123.463l-9.24-21.561c15.806-5.342 27.184-20.293 27.184-37.903 0-22.091-17.909-40-40-40s-40 17.909-40 40c0 17.609 11.379 32.56 27.184 37.903l-9.24 21.561c-19.949-8.561-33.923-28.379-33.923-51.463 0-30.916 25.063-57.479 55.979-57.479s55.979 26.563 55.979 57.479c0 23.084-13.974 42.903-33.923 51.464z"></path>
</svg>
