<!-- Generated by IcoMoon.io -->
<svg version="1.1" xmlns="http://www.w3.org/2000/svg" width="128" height="128" viewBox="0 0 128 128">
<title>power-cord</title>
<path fill="#fff" d="M128 35.313l-11.313-11.313-22.343 22.344-12.688-12.688 22.344-22.344-11.313-11.313-22.344 22.344-14.343-14.344-10.828 10.828 64 64 10.828-10.828-14.344-14.344 22.344-22.344z"></path>
<path fill="#fff" d="M99.255 84.224l-55.478-55.478c-11.977 14.363-25.565 36.557-16.174 55.652l-16.531 16.531c-3.889 3.889-3.889 10.253 0 14.142l1.857 1.857c3.889 3.889 10.253 3.889 14.142 0l16.531-16.531c19.096 9.391 41.29-4.196 55.653-16.174z"></path>
</svg>
