<!-- Generated by IcoMoon.io -->
<svg version="1.1" xmlns="http://www.w3.org/2000/svg" width="133" height="128" viewBox="0 0 133 128">
<title>satellite</title>
<path fill="#fff" d="M0 83.452l44.548 44.548c0 0 10.636-25.244-4.332-40.212-14.804-14.804-40.216-4.336-40.216-4.336zM119.5 86.992l-22.624 22.624 2.828 2.828 22.624-22.624-2.828-2.828zM130.812 92.648l-25.452-25.46c-3.124-3.116-8.196-3.116-11.312 0l-2.232 2.232-6.24-6.24 11.188-11.188c3.124-3.124 2.772-8.544-0.352-11.668l-13.788-13.788c-3.124-3.124-8.188-3.124-11.312 0l-10.172 9.816-5.36-5.36 0.364-0.36c3.124-3.124 3.124-8.192 0-11.316l-25.456-25.46c-3.124-3.124-8.188-3.124-11.316 0l-16.968 16.972c-3.124 3.124-3.124 8.192 0 11.316l25.456 25.456c3.124 3.124 8.188 3.124 11.316 0l5.564-5.564 5.512 5.56-10.236 10.236c-3.124 3.124-1.944 20.512-1.944 20.512l6.892 6.892c0 0 17.384 1.18 20.508-1.944l8.856-8.852 6.24 6.24-3.496 3.496c-3.124 3.124-3.124 8.188 0 11.312l25.46 25.452c3.124 3.124 8.188 3.124 11.312 0l16.968-16.968c3.124-3.136 3.124-8.2 0-11.324zM5.232 13.656l16.972-16.972c1.56-1.564 4.092-1.564 5.656 0l-22.628 22.628c-1.564-1.56-1.564-4.096 0-5.656zM8.060 22.14l22.628-22.628 2.828 2.828-22.628 22.628-2.828-2.828zM13.716 27.796l22.628-22.628 2.828 2.832-22.624 22.624-2.832-2.828zM19.376 33.456l22.624-22.628 2.832 2.828-22.628 22.628-2.828-2.828zM25.032 39.112l22.628-22.628 2.828 2.828-22.628 22.628-2.828-2.828zM36.344 44.768c-1.56 1.564-4.092 1.564-5.656 0l22.628-22.628c1.564 1.564 1.564 4.096 0 5.656l-16.972 16.972zM47.632 65.992l-2.12-2.124 29.24-29.24 2.124 2.12-29.244 29.244zM79.9 86.992l16.976-16.976c1.564-1.556 4.092-1.556 5.656 0l-22.632 22.632c-1.564-1.564-1.564-4.092 0-5.656zM127.984 101.132l-16.968 16.968c-1.564 1.564-4.092 1.564-5.656 0l-16.972-16.972 22.624-22.624-2.828-2.828-22.632 22.624-2.828-2.828 22.632-22.632 22.624 22.632c1.568 1.568 1.568 4.1 0.004 5.66zM125.156 92.648l-22.624 22.624 2.828 2.828 22.624-22.624-2.828-2.828zM113.844 81.336l-22.624 22.624 2.828 2.828 22.624-22.624-2.828-2.828z"></path>
</svg>
