<!-- Generated by IcoMoon.io -->
<svg version="1.1" xmlns="http://www.w3.org/2000/svg" width="119" height="128" viewBox="0 0 119 128">
<title>star</title>
<path fill="#fff" d="M118.857 46.214c0 1.286-0.929 2.5-1.857 3.429l-25.929 25.286 6.143 35.714c0.071 0.5 0.071 0.929 0.071 1.429 0 1.857-0.857 3.571-2.929 3.571-1 0-2-0.357-2.857-0.857l-32.071-16.857-32.071 16.857c-0.929 0.5-1.857 0.857-2.857 0.857-2.071 0-3-1.714-3-3.571 0-0.5 0.071-0.929 0.143-1.429l6.143-35.714-26-25.286c-0.857-0.929-1.786-2.143-1.786-3.429 0-2.143 2.214-3 4-3.286l35.857-5.214 16.071-32.5c0.643-1.357 1.857-2.929 3.5-2.929s2.857 1.571 3.5 2.929l16.071 32.5 35.857 5.214c1.714 0.286 4 1.143 4 3.286z"></path>
</svg>
