<!-- Generated by IcoMoon.io -->
<svg version="1.1" xmlns="http://www.w3.org/2000/svg" width="110" height="128" viewBox="0 0 110 128">
<title>subway</title>
<path fill="#fff" d="M77.714 0c17.643 0 32 10.214 32 22.857v64c0 12.357-13.643 22.357-30.786 22.786l15.214 14.429c1.5 1.429 0.5 3.929-1.571 3.929h-75.429c-2.071 0-3.071-2.5-1.571-3.929l15.214-14.429c-17.143-0.429-30.786-10.429-30.786-22.786v-64c0-12.643 14.357-22.857 32-22.857h45.714zM20.571 93.714c6.286 0 11.429-5.143 11.429-11.429s-5.143-11.429-11.429-11.429-11.429 5.143-11.429 11.429 5.143 11.429 11.429 11.429zM50.286 54.857v-36.571h-38.857v36.571h38.857zM89.143 93.714c6.286 0 11.429-5.143 11.429-11.429s-5.143-11.429-11.429-11.429-11.429 5.143-11.429 11.429 5.143 11.429 11.429 11.429zM100.571 54.857v-36.571h-41.143v36.571h41.143z"></path>
</svg>
