<!-- Generated by IcoMoon.io -->
<svg version="1.1" xmlns="http://www.w3.org/2000/svg" width="128" height="128" viewBox="0 0 128 128">
<title>target</title>
<path fill="#fff" d="M128 56h-12.615c-3.455-22.28-21.105-39.929-43.385-43.385v-12.616h-16v12.616c-22.28 3.455-39.929 21.105-43.385 43.385h-12.616v16h12.616c3.455 22.28 21.105 39.929 43.385 43.385v12.615h16v-12.615c22.28-3.455 39.929-21.105 43.385-43.385h12.615v-16zM99.103 56h-12.47c-2.41-6.819-7.814-12.222-14.632-14.633v-12.47c13.439 3.061 24.041 13.664 27.103 27.103zM64 72c-4.418 0-8-3.582-8-8s3.582-8 8-8c4.418 0 8 3.582 8 8s-3.582 8-8 8zM56 28.897v12.47c-6.819 2.41-12.222 7.814-14.633 14.633h-12.47c3.061-13.439 13.664-24.041 27.103-27.103zM28.897 72h12.47c2.41 6.819 7.814 12.222 14.633 14.632v12.47c-13.439-3.061-24.041-13.663-27.103-27.103zM72 99.103v-12.47c6.819-2.41 12.222-7.814 14.632-14.632h12.47c-3.061 13.439-13.663 24.041-27.103 27.103z"></path>
</svg>
