<!-- Generated by IcoMoon.io -->
<svg version="1.1" xmlns="http://www.w3.org/2000/svg" width="73" height="128" viewBox="0 0 73 128">
<title>tint</title>
<path fill="#fff" d="M36.571 82.286c0-1.786-0.571-3.5-1.429-4.929-0.929-1.429-4.714-6.286-6.214-11.071-0.214-0.786-0.929-1.143-1.5-1.143s-1.286 0.357-1.5 1.143c-1.5 4.786-5.286 9.643-6.214 11.071-0.857 1.429-1.429 3.143-1.429 4.929 0 5.071 4.071 9.143 9.143 9.143s9.143-4.071 9.143-9.143zM73.143 73.143c0 20.214-16.357 36.571-36.571 36.571s-36.571-16.357-36.571-36.571c0-7.214 2.214-13.929 5.786-19.643 3.643-5.714 18.929-25.071 24.714-44.357 0.929-3.071 3.786-4.571 6.071-4.571s5.214 1.5 6.071 4.571c5.786 19.286 21.071 38.643 24.714 44.357s5.786 12.429 5.786 19.643z"></path>
</svg>
