<!-- Generated by IcoMoon.io -->
<svg version="1.1" xmlns="http://www.w3.org/2000/svg" width="110" height="128" viewBox="0 0 110 128">
<title>tree</title>
<path fill="#fff" d="M107.429 105.143c0 2.5-2.071 4.571-4.571 4.571h-33c0.214 4.571 0.786 9.357 0.786 14 0 2.357-1.929 4.286-4.357 4.286h-22.857c-2.429 0-4.357-1.929-4.357-4.286 0-4.643 0.571-9.429 0.786-14h-33c-2.5 0-4.571-2.071-4.571-4.571 0-1.214 0.5-2.357 1.357-3.214l28.714-28.786h-16.357c-2.5 0-4.571-2.071-4.571-4.571 0-1.214 0.5-2.357 1.357-3.214l28.714-28.786h-14.071c-2.5 0-4.571-2.071-4.571-4.571 0-1.214 0.5-2.357 1.357-3.214l27.429-27.429c0.857-0.857 2-1.357 3.214-1.357s2.357 0.5 3.214 1.357l27.429 27.429c0.857 0.857 1.357 2 1.357 3.214 0 2.5-2.071 4.571-4.571 4.571h-14.071l28.714 28.786c0.857 0.857 1.357 2 1.357 3.214 0 2.5-2.071 4.571-4.571 4.571h-16.357l28.714 28.786c0.857 0.857 1.357 2 1.357 3.214z"></path>
</svg>
