<!-- Generated by IcoMoon.io -->
<svg version="1.1" xmlns="http://www.w3.org/2000/svg" width="128" height="128" viewBox="0 0 128 128">
<title>video-camera</title>
<path fill="#fff" d="M48 36c0-11.046 8.954-20 20-20s20 8.954 20 20c0 11.046-8.954 20-20 20s-20-8.954-20-20zM0 36c0-11.046 8.954-20 20-20s20 8.954 20 20c0 11.046-8.954 20-20 20s-20-8.954-20-20zM96 76v-12c0-4.4-3.6-8-8-8h-80c-4.4 0-8 3.6-8 8v40c0 4.4 3.6 8 8 8h80c4.4 0 8-3.6 8-8v-12l32 20v-56l-32 20zM80 96h-64v-24h64v24z"></path>
</svg>
