<!-- Generated by IcoMoon.io -->
<svg version="1.1" xmlns="http://www.w3.org/2000/svg" width="128" height="128" viewBox="0 0 128 128">
<title>warning</title>
<path fill="#fff" d="M64 11.597l53.638 106.903h-107.276l53.638-106.903zM64 0c-2.759 0-5.517 1.86-7.611 5.581l-54.634 108.889c-4.186 7.442-0.625 13.53 7.913 13.53h108.663c8.537 0 12.099-6.088 7.912-13.53h0l-54.634-108.889c-2.093-3.721-4.852-5.581-7.61-5.581v0z"></path>
<path fill="#fff" d="M72 104c0 4.418-3.582 8-8 8s-8-3.582-8-8c0-4.418 3.582-8 8-8s8 3.582 8 8z"></path>
<path fill="#fff" d="M64 88c-4.418 0-8-3.582-8-8v-24c0-4.418 3.582-8 8-8s8 3.582 8 8v24c0 4.418-3.582 8-8 8z"></path>
</svg>
