<!-- Generated by IcoMoon.io -->
<svg version="1.1" xmlns="http://www.w3.org/2000/svg" width="128" height="128" viewBox="0 0 128 128">
<title>wpexplorer</title>
<path fill="#fff" d="M67.714 73.429l11.643 23.5h-3.643l-12.5-25-12.214 25h-3.5l12.786-26.714-5.571-2.357 1.5-3.5 17.143 7.286-1.5 3.571zM40.214 31.143l21.714 9.286-9.286 21.714-21.714-9.286zM64.786 44.357l17.143 7.357-7.357 17.071-17.071-7.286zM84.857 55.071l13.643 5.786-5.857 13.571-13.571-5.786zM120 64c0-30.857-25.143-56-56-56s-56 25.143-56 56 25.143 56 56 56 56-25.143 56-56zM128 64c0 35.286-28.714 64-64 64s-64-28.714-64-64 28.714-64 64-64 64 28.714 64 64z"></path>
</svg>
