<!-- Generated by IcoMoon.io -->
<svg version="1.1" xmlns="http://www.w3.org/2000/svg" width="128" height="128" viewBox="0 0 128 128">
<title>yingyang</title>
<path fill="#fff" d="M64 11.936c-28.804 0-52.060 23.26-52.060 52.064 0 28.796 23.256 52.064 52.060 52.064 28.8 0 52.064-23.264 52.064-52.064 0-28.804-23.268-52.064-52.064-52.064zM63.816 32.756c3.724 0 6.748 3.020 6.748 6.752 0 3.728-3.024 6.752-6.748 6.752-3.732 0-6.752-3.024-6.752-6.752-0.004-3.732 3.020-6.752 6.752-6.752zM64.728 112.564c-14.164 0-25.040-10.576-25.040-24.26 0-13.22 10.008-24.268 23.428-24.256 0 0 25.192-1.24 25.192-24.332 0-13.88-8.4-22.268-24.34-24.332 28.692 1.592 48.592 21.492 48.592 48.588 0.004 26.44-21.756 48.592-47.832 48.592zM64.060 81.256c-3.728 0-6.752 3.020-6.752 6.752 0 3.728 3.024 6.752 6.752 6.752s6.752-3.024 6.752-6.752c0-3.732-3.024-6.752-6.752-6.752z"></path>
</svg>
