<?xml version="1.0" standalone="no"?>
<!DOCTYPE svg PUBLIC "-//W3C//DTD SVG 1.1//EN" "http://www.w3.org/Graphics/SVG/1.1/DTD/svg11.dtd">

<svg width="200" height="200" viewBox="0 0 82.93 100" 
  xmlns="http://www.w3.org/2000/svg"
  xmlns:xlink="http://www.w3.org/1999/xlink">

<style type="text/css">
<![CDATA[

]]>
</style>

<path d="M70.818,12.09C54.61-4.117,28.422-3.986,12.214,12.222C-3.994,28.429-4.109,54.676,12.098,70.884L41.382,100l29.347-29.347  C86.937,54.445,87.026,28.298,70.818,12.09z M41.493,66.224c-13.789,0-24.968-11.179-24.968-24.968  c0-13.79,11.179-24.969,24.968-24.969c13.79,0,24.969,11.179,24.969,24.969C66.462,55.045,55.283,66.224,41.493,66.224z" fill="#58B2DC"/>
<path d="M 38.685567,70.969252 C 28.773585,69.88139 19.956662,63.806333 15.508531,54.999755 c -1.43267,-2.836453 -2.282674,-5.508735 -2.790863,-8.774051 -0.304664,-1.957591 -0.300777,-5.9005 0.0078,-7.907198 1.960537,-12.749659 11.937507,-22.535137 25.019861,-24.539644 2.028074,-0.310747 6.654478,-0.310747 8.682551,0 8.667702,1.328084 16.174101,6.145398 20.854735,13.383755 2.123142,3.283323 3.694928,7.670101 4.228229,11.800756 0.198615,1.538361 0.198062,5.13788 -0.0012,6.710666 -1.417708,11.199754 -9.268382,20.527416 -20.227822,24.033395 -1.826842,0.584417 -4.164212,1.080422 -6.009825,1.275319 -1.438445,0.151896 -5.148858,0.144293 -6.586598,-0.01348 l -1.8e-5,0 z" fill="#58B2DC"/>
<path transform="translate(17.0, 17.0) scale(0.390625)" d="M106.074 104.563c-4.845-6.726-18.246-24.474-29.248-39.078 4.454-6.394 8.006-11.616 9.632-14.349 9.888-16.602 5.594-27.264 0.141-36.288-5.466-9.030-6.33-14.246-22.598-14.246-16.275 0-17.139 5.216-22.598 14.253-5.466 9.024-9.754 19.686 0.134 36.288 1.626 2.726 5.178 7.955 9.638 14.349-11.008 14.598-24.41 32.352-29.254 39.078-1.126 1.562-1.024 4.25 0.058 6.925 0.832 2.061 4.032 11.277 4.813 13.21 0.998 2.49 4.25 4.288 6.925 0.589 1.542-2.138 16.525-22.56 30.285-41.741 13.754 19.174 28.742 39.603 30.285 41.741 2.669 3.699 5.926 1.901 6.925-0.589 0.781-1.939 3.981-11.149 4.813-13.21 1.069-2.682 1.178-5.37 0.051-6.931zM61.658 45.203c-6.835-9.498-11.725-20.55-11.725-20.55s2.688-4.851 14.067-4.851c11.379 0 14.067 4.851 14.067 4.851s-4.902 11.053-11.731 20.55c-0.563 0.774-1.395 1.901-2.336 3.181-0.954-1.28-1.786-2.406-2.342-3.181z" fill="#FFFFFF" transform-origin="0 0"/>

</svg>