<?xml version="1.0" standalone="no"?>
<!DOCTYPE svg PUBLIC "-//W3C//DTD SVG 1.1//EN" "http://www.w3.org/Graphics/SVG/1.1/DTD/svg11.dtd">

<svg width="200" height="200" viewBox="0 0 82.93 100" 
  xmlns="http://www.w3.org/2000/svg"
  xmlns:xlink="http://www.w3.org/1999/xlink">

<style type="text/css">
<![CDATA[

]]>
</style>

<path d="M70.818,12.09C54.61-4.117,28.422-3.986,12.214,12.222C-3.994,28.429-4.109,54.676,12.098,70.884L41.382,100l29.347-29.347  C86.937,54.445,87.026,28.298,70.818,12.09z M41.493,66.224c-13.789,0-24.968-11.179-24.968-24.968  c0-13.79,11.179-24.969,24.968-24.969c13.79,0,24.969,11.179,24.969,24.969C66.462,55.045,55.283,66.224,41.493,66.224z" fill="#58B2DC"/>
<path d="M 38.685567,70.969252 C 28.773585,69.88139 19.956662,63.806333 15.508531,54.999755 c -1.43267,-2.836453 -2.282674,-5.508735 -2.790863,-8.774051 -0.304664,-1.957591 -0.300777,-5.9005 0.0078,-7.907198 1.960537,-12.749659 11.937507,-22.535137 25.019861,-24.539644 2.028074,-0.310747 6.654478,-0.310747 8.682551,0 8.667702,1.328084 16.174101,6.145398 20.854735,13.383755 2.123142,3.283323 3.694928,7.670101 4.228229,11.800756 0.198615,1.538361 0.198062,5.13788 -0.0012,6.710666 -1.417708,11.199754 -9.268382,20.527416 -20.227822,24.033395 -1.826842,0.584417 -4.164212,1.080422 -6.009825,1.275319 -1.438445,0.151896 -5.148858,0.144293 -6.586598,-0.01348 l -1.8e-5,0 z" fill="#58B2DC"/>
<path transform="translate(17.0, 17.0) scale(0.390625)" d="M100.571 54.857c0 20.214-22.5 36.571-50.286 36.571-4.357 0-8.571-0.429-12.571-1.143-5.929 4.214-12.643 7.286-19.857 9.143-1.929 0.5-4 0.857-6.143 1.143h-0.214c-1.071 0-2.071-0.857-2.286-2.071v0c-0.286-1.357 0.643-2.214 1.429-3.143 2.786-3.143 5.929-5.929 8.357-11.857-11.571-6.714-19-17.071-19-28.643 0-20.214 22.5-36.571 50.286-36.571s50.286 16.357 50.286 36.571zM128 73.143c0 11.643-7.429 21.929-19 28.643 2.429 5.929 5.571 8.714 8.357 11.857 0.786 0.929 1.714 1.786 1.429 3.143v0c-0.286 1.286-1.357 2.214-2.5 2.071-2.143-0.286-4.214-0.643-6.143-1.143-7.214-1.857-13.929-4.929-19.857-9.143-4 0.714-8.214 1.143-12.571 1.143-12.929 0-24.786-3.571-33.714-9.429 2.071 0.143 4.214 0.286 6.286 0.286 15.357 0 29.857-4.429 40.929-12.429 11.929-8.714 18.5-20.5 18.5-33.286 0-3.714-0.571-7.357-1.643-10.857 12.071 6.643 19.929 17.214 19.929 29.143z" fill="#FFFFFF" transform-origin="0 0"/>

</svg>