<?xml version="1.0" standalone="no"?>
<!DOCTYPE svg PUBLIC "-//W3C//DTD SVG 1.1//EN" "http://www.w3.org/Graphics/SVG/1.1/DTD/svg11.dtd">

<svg width="200" height="200" viewBox="0 0 82.93 100" 
  xmlns="http://www.w3.org/2000/svg"
  xmlns:xlink="http://www.w3.org/1999/xlink">

<style type="text/css">
<![CDATA[

]]>
</style>

<path d="M70.818,12.09C54.61-4.117,28.422-3.986,12.214,12.222C-3.994,28.429-4.109,54.676,12.098,70.884L41.382,100l29.347-29.347  C86.937,54.445,87.026,28.298,70.818,12.09z M41.493,66.224c-13.789,0-24.968-11.179-24.968-24.968  c0-13.79,11.179-24.969,24.968-24.969c13.79,0,24.969,11.179,24.969,24.969C66.462,55.045,55.283,66.224,41.493,66.224z" fill="#58B2DC"/>
<path d="M 38.685567,70.969252 C 28.773585,69.88139 19.956662,63.806333 15.508531,54.999755 c -1.43267,-2.836453 -2.282674,-5.508735 -2.790863,-8.774051 -0.304664,-1.957591 -0.300777,-5.9005 0.0078,-7.907198 1.960537,-12.749659 11.937507,-22.535137 25.019861,-24.539644 2.028074,-0.310747 6.654478,-0.310747 8.682551,0 8.667702,1.328084 16.174101,6.145398 20.854735,13.383755 2.123142,3.283323 3.694928,7.670101 4.228229,11.800756 0.198615,1.538361 0.198062,5.13788 -0.0012,6.710666 -1.417708,11.199754 -9.268382,20.527416 -20.227822,24.033395 -1.826842,0.584417 -4.164212,1.080422 -6.009825,1.275319 -1.438445,0.151896 -5.148858,0.144293 -6.586598,-0.01348 l -1.8e-5,0 z" fill="#58B2DC"/>
<path transform="translate(17.0, 17.0) scale(0.390625)" d="M64 84h8v-12h-28v12h8c0 15.464 0 0 0 0 0 17.673 14.363 32 32 32 17.673 0 32-14.328 32-31.984v-68.016h-12v68.031c0 11.028-8.977 19.969-20 19.969-11.046 0-20-8.983-20-20 0 0 0 7.899 0 0v0zM108 36v-16h4v16h-4zM16 46v1.996c0 11.048 8.936 20.004 19.976 20.004h4.012c2.216 0 5.019-1.438 6.324-3.303l7.104-10.149c2.532-3.617 6.642-3.598 9.151 0l7.078 10.149c1.272 1.824 4.058 3.303 6.322 3.303h4.019c11.053 0 20.013-8.957 20.013-20.004v-1.996c0-12.15-9.883-22-21.96-22h-40.079c-12.128 0-21.96 9.874-21.96 22v0zM78.040 28c9.886 0 17.96 8.076 17.96 18v1.996c0 8.838-7.169 16.004-16.013 16.004h-4.019c-0.938 0-2.507-0.824-3.041-1.591l-7.078-10.149c-4.103-5.883-11.587-5.894-15.709-0.006l-7.104 10.149c-0.546 0.78-2.118 1.597-3.047 1.597h-4.012c-8.827 0-15.976-7.161-15.976-16.004v-1.996c0-9.927 8.052-18 17.96-18h40.079zM78.040 32c7.676 0 13.96 6.258 13.96 13.94v1.987c0 6.6-5.378 11.953-12.013 11.953h-4.019c0.374 0 0.028-0.181 0.239 0.121l-7.078-10.105c-5.693-8.127-16.55-8.143-22.267-0.011l-7.104 10.105c0.203-0.289-0.145-0.109 0.23-0.109h-4.012c-6.616 0-11.976-5.346-11.976-11.953v-1.987c0-7.687 6.263-13.94 13.96-13.94h40.079z" fill="#FFFFFF" transform-origin="0 0"/>

</svg>