<?xml version="1.0" standalone="no"?>
<!DOCTYPE svg PUBLIC "-//W3C//DTD SVG 1.1//EN" "http://www.w3.org/Graphics/SVG/1.1/DTD/svg11.dtd">

<svg width="200" height="200" viewBox="0 0 82.93 100" 
  xmlns="http://www.w3.org/2000/svg"
  xmlns:xlink="http://www.w3.org/1999/xlink">

<style type="text/css">
<![CDATA[

]]>
</style>

<path d="M70.818,12.09C54.61-4.117,28.422-3.986,12.214,12.222C-3.994,28.429-4.109,54.676,12.098,70.884L41.382,100l29.347-29.347  C86.937,54.445,87.026,28.298,70.818,12.09z M41.493,66.224c-13.789,0-24.968-11.179-24.968-24.968  c0-13.79,11.179-24.969,24.968-24.969c13.79,0,24.969,11.179,24.969,24.969C66.462,55.045,55.283,66.224,41.493,66.224z" fill="#58B2DC"/>
<path d="M 38.685567,70.969252 C 28.773585,69.88139 19.956662,63.806333 15.508531,54.999755 c -1.43267,-2.836453 -2.282674,-5.508735 -2.790863,-8.774051 -0.304664,-1.957591 -0.300777,-5.9005 0.0078,-7.907198 1.960537,-12.749659 11.937507,-22.535137 25.019861,-24.539644 2.028074,-0.310747 6.654478,-0.310747 8.682551,0 8.667702,1.328084 16.174101,6.145398 20.854735,13.383755 2.123142,3.283323 3.694928,7.670101 4.228229,11.800756 0.198615,1.538361 0.198062,5.13788 -0.0012,6.710666 -1.417708,11.199754 -9.268382,20.527416 -20.227822,24.033395 -1.826842,0.584417 -4.164212,1.080422 -6.009825,1.275319 -1.438445,0.151896 -5.148858,0.144293 -6.586598,-0.01348 l -1.8e-5,0 z" fill="#58B2DC"/>
<path transform="translate(17.0, 17.0) scale(0.390625)" d="M64 0c-35.346 0-64 28.654-64 64s28.654 64 64 64 64-28.654 64-64-28.654-64-64-64zM64 120c-7.87 0-15.359-1.626-22.154-4.556l29.144-32.786c0.651-0.732 1.010-1.678 1.010-2.657v-12c0-2.209-1.791-4-4-4-14.124 0-29.026-14.683-29.172-14.828-0.75-0.75-1.767-1.172-2.828-1.172h-16c-2.209 0-4 1.791-4 4v24c0 1.515 0.856 2.9 2.211 3.578l13.789 6.894v23.486c-14.507-10.12-24-26.929-24-45.958 0-8.589 1.936-16.726 5.392-24h14.608c1.061 0 2.078-0.422 2.828-1.172l16-16c0.75-0.75 1.172-1.767 1.172-2.828v-9.677c5.070-1.509 10.44-2.324 16-2.324 8.801 0 17.126 2.032 24.535 5.65-0.518 0.438-1.022 0.896-1.506 1.38-4.533 4.533-7.029 10.56-7.029 16.971s2.496 12.438 7.029 16.971c4.554 4.554 10.652 7.033 16.954 7.032 0.396 0 0.793-0.010 1.19-0.029 1.727 6.475 4.844 23.332-1.050 46.542-0.055 0.218-0.087 0.436-0.105 0.653-10.165 10.385-24.338 16.832-40.018 16.832z" fill="#FFFFFF" transform-origin="0 0"/>

</svg>