<?xml version="1.0" standalone="no"?>
<!DOCTYPE svg PUBLIC "-//W3C//DTD SVG 1.1//EN" "http://www.w3.org/Graphics/SVG/1.1/DTD/svg11.dtd">

<svg width="200" height="200" viewBox="0 0 82.93 100" 
  xmlns="http://www.w3.org/2000/svg"
  xmlns:xlink="http://www.w3.org/1999/xlink">

<style type="text/css">
<![CDATA[

]]>
</style>

<path d="M70.818,12.09C54.61-4.117,28.422-3.986,12.214,12.222C-3.994,28.429-4.109,54.676,12.098,70.884L41.382,100l29.347-29.347  C86.937,54.445,87.026,28.298,70.818,12.09z M41.493,66.224c-13.789,0-24.968-11.179-24.968-24.968  c0-13.79,11.179-24.969,24.968-24.969c13.79,0,24.969,11.179,24.969,24.969C66.462,55.045,55.283,66.224,41.493,66.224z" fill="#58B2DC"/>
<path d="M 38.685567,70.969252 C 28.773585,69.88139 19.956662,63.806333 15.508531,54.999755 c -1.43267,-2.836453 -2.282674,-5.508735 -2.790863,-8.774051 -0.304664,-1.957591 -0.300777,-5.9005 0.0078,-7.907198 1.960537,-12.749659 11.937507,-22.535137 25.019861,-24.539644 2.028074,-0.310747 6.654478,-0.310747 8.682551,0 8.667702,1.328084 16.174101,6.145398 20.854735,13.383755 2.123142,3.283323 3.694928,7.670101 4.228229,11.800756 0.198615,1.538361 0.198062,5.13788 -0.0012,6.710666 -1.417708,11.199754 -9.268382,20.527416 -20.227822,24.033395 -1.826842,0.584417 -4.164212,1.080422 -6.009825,1.275319 -1.438445,0.151896 -5.148858,0.144293 -6.586598,-0.01348 l -1.8e-5,0 z" fill="#58B2DC"/>
<path transform="translate(17.0, 22.606060606060606) scale(0.30303030303030304)" d="M32.357 116.929c0 2-1.786 3.857-3.786 3.857-0.286 0-0.643-0.143-0.929-0.214v0c-4-0.929-9.143-6.929-11.571-10-11.143-14.071-16.071-30.5-16.071-48.286 0-16.571 5-30.786 15.214-43.857 2.357-3.071 9.357-11.143 13.5-11.143 1.786 0 3.643 1.429 3.643 3.286 0 2.143-3.143 5.071-4.5 6.429-3.929 4.071-7.571 8.214-10.5 13.143-6.071 10.143-8.5 20.286-8.5 32.071 0 12.643 2.357 24.071 8.786 35.071 2.714 4.643 5.929 8.5 9.714 12.357 1.5 1.643 5 4.857 5 7.286zM128.286 107.357c0 2.643-1.786 4.857-4.571 4.857h-77.214c-2.5 0-4.571-2.071-4.571-4.571 0-2.643 1.786-4.857 4.571-4.857h77.214c2.5 0 4.571 2.071 4.571 4.571zM112.929 63.714c0 6-1.357 11.571-4.786 16.643-2.357 3.5-7.143 8-10.929 9.929-0.571 0.357-1.286 0.714-1.929 0.714-0.571 0-1.643-0.643-1.643-1.286 0-2.071 8.714-7 8.714-16.571 0-3.143-0.786-6.643-2.5-9.286-0.5-0.714-2.286-3-3.286-3-0.214 0-0.214 0.143-0.214 0.357 0 1.714 1.071 3.357 1.071 5.143 0 2.286-2.786 3.429-4.714 3.429-3.357 0-4.714-2.357-4.714-5.429 0-2.071 0.214-4.214 0.214-6.286 0-1.5-0.071-1.929-0.714-3.286-1-1.929-4.286-5.857-6.643-5.857-0.643 0-0.857 0-0.857 0.643 0 1 2.286 2.071 2.286 5.714 0 9.5-13.071 11.214-13.071 20.714 0 4.286 0.571 7.857 3 11.429 1.5 2.214 3.143 3.5 5.643 4.5 0.643 0.214 1.286 0.286 1.286 1.071s-0.643 1.143-1.286 1.143c-0.357 0-2-0.643-2.357-0.786v0c-11-4-19.357-13.571-19.357-25.571 0-14.214 17.071-26.643 17.071-40.286 0-2.643-0.429-4.5-1.786-6.714-0.786-1.286-2.714-3.786-4-4.571-0.571-0.286-1.357-0.786-1.357-1.5 0-1.214 2.071-1.429 2.929-1.429 2.571 0 5.5 0.929 7.857 2.071 9.929 4.714 12 11.929 13.714 21.929 0.429 2.357 1.286 9.857 4.714 9.857 2.214 0 3.643-1.5 3.643-3.643 0-3.214-2.857-6.714-2.857-8.5 0-0.5 0.286-0.714 0.714-0.714 1.786 0 5.5 3.786 6.643 5 6.929 7.357 9.5 14.5 9.5 24.429zM164.571 65.786c0 12.571-3.357 25.143-9.857 35.929-3 5-12.857 19-19.357 19-1.5 0-3.286-1.857-3.286-3.357 0-2.429 8.357-10.214 10.429-12.857 8.857-11.143 13.071-23.714 13.071-37.929 0-11.714-1.429-21.214-6.643-31.857-3.214-6.571-6.571-11-11.643-16.286-1.643-1.714-5.214-4.929-5.214-7.5 0-1.786 1.857-3.714 3.643-3.714 4.714 0 11.5 8.714 14 12.071 9.571 12.857 13.643 26.071 14.714 41.929 0.071 1.5 0.143 3.071 0.143 4.571z" fill="#FFFFFF" transform-origin="0 0"/>

</svg>