<?xml version="1.0" standalone="no"?>
<!DOCTYPE svg PUBLIC "-//W3C//DTD SVG 1.1//EN" "http://www.w3.org/Graphics/SVG/1.1/DTD/svg11.dtd">

<svg width="200" height="200" viewBox="0 0 82.93 100" 
  xmlns="http://www.w3.org/2000/svg"
  xmlns:xlink="http://www.w3.org/1999/xlink">

<style type="text/css">
<![CDATA[

]]>
</style>

<path d="M70.818,12.09C54.61-4.117,28.422-3.986,12.214,12.222C-3.994,28.429-4.109,54.676,12.098,70.884L41.382,100l29.347-29.347  C86.937,54.445,87.026,28.298,70.818,12.09z M41.493,66.224c-13.789,0-24.968-11.179-24.968-24.968  c0-13.79,11.179-24.969,24.968-24.969c13.79,0,24.969,11.179,24.969,24.969C66.462,55.045,55.283,66.224,41.493,66.224z" fill="#58B2DC"/>
<path d="M 38.685567,70.969252 C 28.773585,69.88139 19.956662,63.806333 15.508531,54.999755 c -1.43267,-2.836453 -2.282674,-5.508735 -2.790863,-8.774051 -0.304664,-1.957591 -0.300777,-5.9005 0.0078,-7.907198 1.960537,-12.749659 11.937507,-22.535137 25.019861,-24.539644 2.028074,-0.310747 6.654478,-0.310747 8.682551,0 8.667702,1.328084 16.174101,6.145398 20.854735,13.383755 2.123142,3.283323 3.694928,7.670101 4.228229,11.800756 0.198615,1.538361 0.198062,5.13788 -0.0012,6.710666 -1.417708,11.199754 -9.268382,20.527416 -20.227822,24.033395 -1.826842,0.584417 -4.164212,1.080422 -6.009825,1.275319 -1.438445,0.151896 -5.148858,0.144293 -6.586598,-0.01348 l -1.8e-5,0 z" fill="#58B2DC"/>
<path transform="translate(17.0, 17.0) scale(0.390625)" d="M92.214 34c-2.286-2.571-6 1.786-4 4.143 1.929 2.357 8.286 0.643 4-4.143zM63.929 51.571c-0.786 0.786-2 0.786-2.714 0-0.786-0.714-0.786-1.929 0-2.643 0.714-0.786 1.929-0.786 2.714 0 0.714 0.714 0.714 1.929 0 2.643zM75.714 56.857l-2.5 2.5c-1.143 1.214-3.071 1.214-4.286 0l-2.714-2.714c-1.143-1.214-1.143-3.071 0-4.286l2.5-2.5c1.143-1.143 3.071-1.143 4.286 0l2.714 2.786c1.143 1.143 1.143 3.071 0 4.214zM67.929 47.571c-0.714 0.714-1.929 0.714-2.714 0-0.714-0.786-0.714-2 0-2.714 0.786-0.786 2-0.786 2.714 0 0.786 0.714 0.786 1.929 0 2.714zM96.714 40.571c-3.214 6.071-11.643 8.571-16.786 4.929-5.143-3.714-8.714-11.143-3.071-17.571 5.571-6.429 10.5-4.429 15.429 0.214 3.071 2.929 7.571 6.429 4.429 12.429zM111.071 75c0.643-4.143-5.286-4.286-6.571-6.643-3.5-6.214-7.143-9.5-14.071-7.857 3-2.071 6.071-1.571 6.071-1.571 0.071-1.643 0-3.357-2.429-6.429 1-3.214 0.071-5.786 0.071-5.786 4-2.214 6.929-6.286 7.5-11.143 0.929-8-4.857-15.286-12.857-16.214-5.714-0.643-11.286 2-14 6.643-6 10.357 0.357 18.286 5.786 21-3.714-0.357-8.857-3.071-10.357-8.857-1.714-6.643 0.714-12.857 2.286-15.857 0 0-1.143-1.5-2.071-2.286 0 0-3.571 0-6.357 1.357 3.071-3.929 6.5-3.714 6.5-3.714 0-1.643-0.143-3.857-0.929-5.571-1.429-2.929-6.429-3.357-8.357 1.071 0.071-0.214 0.143-0.357 0.286-0.5-1.286 3.071-0.286 14.429 4.357 22.5-0.643 0.357-2.357 1.571-3.357 2.571-5.571 2.5-14.5 15.571-14.5 15.571-7.286 2.786-20 13.143-18.286 20.571v0c0.071 0.786 0.357 1.429 0.786 1.929-0.714 0.571-1.429 1.286-2.143 2.143-3.071 3.571-1.357 9.071 4.571 6.286 4.071-1.857 7.714-5.214 9.429-7.857 0 0-1.5-1.286-4.286-1.143 7.143-1.714 8.929-2.429 12-2.357 2.071 1 2.071-8.857 2.071-8.857 0-3.786-0.571-8-2.857-10.714 3.214 3.143 7.5 8.429 7.214 15.643-0.214 4.714-3.929 5.929-3.929 5.929-2.357 4.286-11.143 17-7.857 27.357 0 0-2.5-3.857-2.643-5.714-4.5 5-12.071 13.5-6.429 16.643 6.857 3.786 28.143-22.857 32.643-36.714 8.929-5.357 14.286-12.214 16.5-16.786 5.714 11.357 24.714 24.5 26.214 15.357zM128.143 64c0 35.357-28.714 64-64.071 64s-64.071-28.643-64.071-64 28.714-64 64.071-64 64.071 28.643 64.071 64z" fill="#FFFFFF" transform-origin="0 0"/>

</svg>