<?xml version="1.0" standalone="no"?>
<!DOCTYPE svg PUBLIC "-//W3C//DTD SVG 1.1//EN" "http://www.w3.org/Graphics/SVG/1.1/DTD/svg11.dtd">

<svg width="200" height="200" viewBox="0 0 82.93 100" 
  xmlns="http://www.w3.org/2000/svg"
  xmlns:xlink="http://www.w3.org/1999/xlink">

<style type="text/css">
<![CDATA[

]]>
</style>

<path d="M70.818,12.09C54.61-4.117,28.422-3.986,12.214,12.222C-3.994,28.429-4.109,54.676,12.098,70.884L41.382,100l29.347-29.347  C86.937,54.445,87.026,28.298,70.818,12.09z M41.493,66.224c-13.789,0-24.968-11.179-24.968-24.968  c0-13.79,11.179-24.969,24.968-24.969c13.79,0,24.969,11.179,24.969,24.969C66.462,55.045,55.283,66.224,41.493,66.224z" fill="#58B2DC"/>
<path d="M 38.685567,70.969252 C 28.773585,69.88139 19.956662,63.806333 15.508531,54.999755 c -1.43267,-2.836453 -2.282674,-5.508735 -2.790863,-8.774051 -0.304664,-1.957591 -0.300777,-5.9005 0.0078,-7.907198 1.960537,-12.749659 11.937507,-22.535137 25.019861,-24.539644 2.028074,-0.310747 6.654478,-0.310747 8.682551,0 8.667702,1.328084 16.174101,6.145398 20.854735,13.383755 2.123142,3.283323 3.694928,7.670101 4.228229,11.800756 0.198615,1.538361 0.198062,5.13788 -0.0012,6.710666 -1.417708,11.199754 -9.268382,20.527416 -20.227822,24.033395 -1.826842,0.584417 -4.164212,1.080422 -6.009825,1.275319 -1.438445,0.151896 -5.148858,0.144293 -6.586598,-0.01348 l -1.8e-5,0 z" fill="#58B2DC"/>
<path transform="translate(17.0, 10.316831683168317) scale(0.49504950495049505)" d="M27.429 93.714v4.571c0 1.214-1.071 2.286-2.286 2.286h-4.571c-1.214 0-2.286-1.071-2.286-2.286v-4.571c0-1.214 1.071-2.286 2.286-2.286h4.571c1.214 0 2.286 1.071 2.286 2.286zM27.429 75.429v4.571c0 1.214-1.071 2.286-2.286 2.286h-4.571c-1.214 0-2.286-1.071-2.286-2.286v-4.571c0-1.214 1.071-2.286 2.286-2.286h4.571c1.214 0 2.286 1.071 2.286 2.286zM45.714 75.429v4.571c0 1.214-1.071 2.286-2.286 2.286h-4.571c-1.214 0-2.286-1.071-2.286-2.286v-4.571c0-1.214 1.071-2.286 2.286-2.286h4.571c1.214 0 2.286 1.071 2.286 2.286zM27.429 57.143v4.571c0 1.214-1.071 2.286-2.286 2.286h-4.571c-1.214 0-2.286-1.071-2.286-2.286v-4.571c0-1.214 1.071-2.286 2.286-2.286h4.571c1.214 0 2.286 1.071 2.286 2.286zM82.286 93.714v4.571c0 1.214-1.071 2.286-2.286 2.286h-4.571c-1.214 0-2.286-1.071-2.286-2.286v-4.571c0-1.214 1.071-2.286 2.286-2.286h4.571c1.214 0 2.286 1.071 2.286 2.286zM64 75.429v4.571c0 1.214-1.071 2.286-2.286 2.286h-4.571c-1.214 0-2.286-1.071-2.286-2.286v-4.571c0-1.214 1.071-2.286 2.286-2.286h4.571c1.214 0 2.286 1.071 2.286 2.286zM45.714 57.143v4.571c0 1.214-1.071 2.286-2.286 2.286h-4.571c-1.214 0-2.286-1.071-2.286-2.286v-4.571c0-1.214 1.071-2.286 2.286-2.286h4.571c1.214 0 2.286 1.071 2.286 2.286zM82.286 75.429v4.571c0 1.214-1.071 2.286-2.286 2.286h-4.571c-1.214 0-2.286-1.071-2.286-2.286v-4.571c0-1.214 1.071-2.286 2.286-2.286h4.571c1.214 0 2.286 1.071 2.286 2.286zM64 57.143v4.571c0 1.214-1.071 2.286-2.286 2.286h-4.571c-1.214 0-2.286-1.071-2.286-2.286v-4.571c0-1.214 1.071-2.286 2.286-2.286h4.571c1.214 0 2.286 1.071 2.286 2.286zM82.286 57.143v4.571c0 1.214-1.071 2.286-2.286 2.286h-4.571c-1.214 0-2.286-1.071-2.286-2.286v-4.571c0-1.214 1.071-2.286 2.286-2.286h4.571c1.214 0 2.286 1.071 2.286 2.286zM64 118.857h27.429v-82.286h-18.286v2.286c0 3.786-3.071 6.857-6.857 6.857h-32c-3.786 0-6.857-3.071-6.857-6.857v-2.286h-18.286v82.286h27.429v-16c0-1.214 1.071-2.286 2.286-2.286h22.857c1.214 0 2.286 1.071 2.286 2.286v16zM64 34.286v-22.857c0-1.214-1.071-2.286-2.286-2.286h-4.571c-1.214 0-2.286 1.071-2.286 2.286v6.857h-9.143v-6.857c0-1.214-1.071-2.286-2.286-2.286h-4.571c-1.214 0-2.286 1.071-2.286 2.286v22.857c0 1.214 1.071 2.286 2.286 2.286h4.571c1.214 0 2.286-1.071 2.286-2.286v-6.857h9.143v6.857c0 1.214 1.071 2.286 2.286 2.286h4.571c1.214 0 2.286-1.071 2.286-2.286zM100.571 32v91.429c0 2.5-2.071 4.571-4.571 4.571h-91.429c-2.5 0-4.571-2.071-4.571-4.571v-91.429c0-2.5 2.071-4.571 4.571-4.571h22.857v-20.571c0-3.786 3.071-6.857 6.857-6.857h32c3.786 0 6.857 3.071 6.857 6.857v20.571h22.857c2.5 0 4.571 2.071 4.571 4.571z" fill="#FFFFFF" transform-origin="0 0"/>

</svg>