<?xml version="1.0" standalone="no"?>
<!DOCTYPE svg PUBLIC "-//W3C//DTD SVG 1.1//EN" "http://www.w3.org/Graphics/SVG/1.1/DTD/svg11.dtd">

<svg width="200" height="200" viewBox="0 0 82.93 100" 
  xmlns="http://www.w3.org/2000/svg"
  xmlns:xlink="http://www.w3.org/1999/xlink">

<style type="text/css">
<![CDATA[

]]>
</style>

<path d="M70.818,12.09C54.61-4.117,28.422-3.986,12.214,12.222C-3.994,28.429-4.109,54.676,12.098,70.884L41.382,100l29.347-29.347  C86.937,54.445,87.026,28.298,70.818,12.09z M41.493,66.224c-13.789,0-24.968-11.179-24.968-24.968  c0-13.79,11.179-24.969,24.968-24.969c13.79,0,24.969,11.179,24.969,24.969C66.462,55.045,55.283,66.224,41.493,66.224z" fill="#58B2DC"/>
<path d="M 38.685567,70.969252 C 28.773585,69.88139 19.956662,63.806333 15.508531,54.999755 c -1.43267,-2.836453 -2.282674,-5.508735 -2.790863,-8.774051 -0.304664,-1.957591 -0.300777,-5.9005 0.0078,-7.907198 1.960537,-12.749659 11.937507,-22.535137 25.019861,-24.539644 2.028074,-0.310747 6.654478,-0.310747 8.682551,0 8.667702,1.328084 16.174101,6.145398 20.854735,13.383755 2.123142,3.283323 3.694928,7.670101 4.228229,11.800756 0.198615,1.538361 0.198062,5.13788 -0.0012,6.710666 -1.417708,11.199754 -9.268382,20.527416 -20.227822,24.033395 -1.826842,0.584417 -4.164212,1.080422 -6.009825,1.275319 -1.438445,0.151896 -5.148858,0.144293 -6.586598,-0.01348 l -1.8e-5,0 z" fill="#58B2DC"/>
<path transform="translate(17.0, 17.0) scale(0.390625)" d="M64 0c-35.346 0-64 28.654-64 64s28.654 64 64 64 64-28.654 64-64-28.654-64-64-64zM40 64c0-13.255 10.745-24 24-24s24 10.745 24 24-10.745 24-24 24-24-10.745-24-24zM115.748 85.434v0l-22.177-9.186c1.565-3.773 2.43-7.909 2.43-12.248s-0.865-8.475-2.43-12.248l22.177-9.186c2.739 6.603 4.252 13.841 4.252 21.434s-1.514 14.832-4.252 21.434v0zM85.435 12.252v0 0l-9.186 22.178c-3.773-1.565-7.909-2.43-12.248-2.43s-8.475 0.865-12.248 2.43l-9.186-22.178c6.603-2.738 13.842-4.252 21.434-4.252s14.832 1.514 21.435 4.253zM12.252 42.566l22.178 9.186c-1.565 3.773-2.43 7.91-2.43 12.248s0.865 8.475 2.43 12.248l-22.177 9.186c-2.738-6.603-4.253-13.841-4.253-21.434s1.514-14.832 4.253-21.434zM42.566 115.748l9.186-22.177c3.773 1.565 7.91 2.43 12.248 2.43s8.475-0.865 12.248-2.43l9.186 22.177c-6.603 2.738-13.841 4.252-21.434 4.252s-14.832-1.514-21.434-4.252z" fill="#FFFFFF" transform-origin="0 0"/>

</svg>