<?xml version="1.0" standalone="no"?>
<!DOCTYPE svg PUBLIC "-//W3C//DTD SVG 1.1//EN" "http://www.w3.org/Graphics/SVG/1.1/DTD/svg11.dtd">

<svg width="200" height="200" viewBox="0 0 82.93 100" 
  xmlns="http://www.w3.org/2000/svg"
  xmlns:xlink="http://www.w3.org/1999/xlink">

<style type="text/css">
<![CDATA[

]]>
</style>

<path d="M70.818,12.09C54.61-4.117,28.422-3.986,12.214,12.222C-3.994,28.429-4.109,54.676,12.098,70.884L41.382,100l29.347-29.347  C86.937,54.445,87.026,28.298,70.818,12.09z M41.493,66.224c-13.789,0-24.968-11.179-24.968-24.968  c0-13.79,11.179-24.969,24.968-24.969c13.79,0,24.969,11.179,24.969,24.969C66.462,55.045,55.283,66.224,41.493,66.224z" fill="#58B2DC"/>
<path d="M 38.685567,70.969252 C 28.773585,69.88139 19.956662,63.806333 15.508531,54.999755 c -1.43267,-2.836453 -2.282674,-5.508735 -2.790863,-8.774051 -0.304664,-1.957591 -0.300777,-5.9005 0.0078,-7.907198 1.960537,-12.749659 11.937507,-22.535137 25.019861,-24.539644 2.028074,-0.310747 6.654478,-0.310747 8.682551,0 8.667702,1.328084 16.174101,6.145398 20.854735,13.383755 2.123142,3.283323 3.694928,7.670101 4.228229,11.800756 0.198615,1.538361 0.198062,5.13788 -0.0012,6.710666 -1.417708,11.199754 -9.268382,20.527416 -20.227822,24.033395 -1.826842,0.584417 -4.164212,1.080422 -6.009825,1.275319 -1.438445,0.151896 -5.148858,0.144293 -6.586598,-0.01348 l -1.8e-5,0 z" fill="#58B2DC"/>
<path transform="translate(17.0, 17.0) scale(0.390625)" d="M128 64c0-35.346-28.654-64-64-64s-64 28.654-64 64c0 27.507 17.355 50.958 41.711 60.008l-1.711 3.992h48l-1.711-3.992c24.356-9.050 41.711-32.502 41.711-60.008zM60.849 79.353c-2.851-1.224-4.849-4.055-4.849-7.353 0-4.418 3.582-8 8-8s8 3.582 8 8c0 3.299-1.997 6.13-4.848 7.354l-3.152-7.354-3.151 7.353zM67.284 79.662c7.261-1.515 12.716-7.95 12.716-15.662 0-8.837-7.163-16-16-16s-16 7.163-16 16c0 7.712 5.458 14.14 12.72 15.653l-9.328 21.765c-11.404-4.894-19.392-16.223-19.392-29.419 0-17.673 14.327-33.5 32-33.5s32 15.827 32 33.5c0 13.196-7.988 24.525-19.392 29.419l-9.325-21.757zM86.056 123.463l-9.24-21.561c15.806-5.342 27.184-20.293 27.184-37.903 0-22.091-17.909-40-40-40s-40 17.909-40 40c0 17.609 11.379 32.56 27.184 37.903l-9.24 21.561c-19.949-8.561-33.923-28.379-33.923-51.463 0-30.916 25.063-57.479 55.979-57.479s55.979 26.563 55.979 57.479c0 23.084-13.974 42.903-33.923 51.464z" fill="#FFFFFF" transform-origin="0 0"/>

</svg>