<?xml version="1.0" standalone="no"?>
<!DOCTYPE svg PUBLIC "-//W3C//DTD SVG 1.1//EN" "http://www.w3.org/Graphics/SVG/1.1/DTD/svg11.dtd">

<svg width="200" height="200" viewBox="0 0 82.93 100" 
  xmlns="http://www.w3.org/2000/svg"
  xmlns:xlink="http://www.w3.org/1999/xlink">

<style type="text/css">
<![CDATA[

]]>
</style>

<path d="M70.818,12.09C54.61-4.117,28.422-3.986,12.214,12.222C-3.994,28.429-4.109,54.676,12.098,70.884L41.382,100l29.347-29.347  C86.937,54.445,87.026,28.298,70.818,12.09z M41.493,66.224c-13.789,0-24.968-11.179-24.968-24.968  c0-13.79,11.179-24.969,24.968-24.969c13.79,0,24.969,11.179,24.969,24.969C66.462,55.045,55.283,66.224,41.493,66.224z" fill="#58B2DC"/>
<path d="M 38.685567,70.969252 C 28.773585,69.88139 19.956662,63.806333 15.508531,54.999755 c -1.43267,-2.836453 -2.282674,-5.508735 -2.790863,-8.774051 -0.304664,-1.957591 -0.300777,-5.9005 0.0078,-7.907198 1.960537,-12.749659 11.937507,-22.535137 25.019861,-24.539644 2.028074,-0.310747 6.654478,-0.310747 8.682551,0 8.667702,1.328084 16.174101,6.145398 20.854735,13.383755 2.123142,3.283323 3.694928,7.670101 4.228229,11.800756 0.198615,1.538361 0.198062,5.13788 -0.0012,6.710666 -1.417708,11.199754 -9.268382,20.527416 -20.227822,24.033395 -1.826842,0.584417 -4.164212,1.080422 -6.009825,1.275319 -1.438445,0.151896 -5.148858,0.144293 -6.586598,-0.01348 l -1.8e-5,0 z" fill="#58B2DC"/>
<path transform="translate(17.0, 17.93984962406015) scale(0.37593984962406013)" d="M0 83.452l44.548 44.548c0 0 10.636-25.244-4.332-40.212-14.804-14.804-40.216-4.336-40.216-4.336zM119.5 86.992l-22.624 22.624 2.828 2.828 22.624-22.624-2.828-2.828zM130.812 92.648l-25.452-25.46c-3.124-3.116-8.196-3.116-11.312 0l-2.232 2.232-6.24-6.24 11.188-11.188c3.124-3.124 2.772-8.544-0.352-11.668l-13.788-13.788c-3.124-3.124-8.188-3.124-11.312 0l-10.172 9.816-5.36-5.36 0.364-0.36c3.124-3.124 3.124-8.192 0-11.316l-25.456-25.46c-3.124-3.124-8.188-3.124-11.316 0l-16.968 16.972c-3.124 3.124-3.124 8.192 0 11.316l25.456 25.456c3.124 3.124 8.188 3.124 11.316 0l5.564-5.564 5.512 5.56-10.236 10.236c-3.124 3.124-1.944 20.512-1.944 20.512l6.892 6.892c0 0 17.384 1.18 20.508-1.944l8.856-8.852 6.24 6.24-3.496 3.496c-3.124 3.124-3.124 8.188 0 11.312l25.46 25.452c3.124 3.124 8.188 3.124 11.312 0l16.968-16.968c3.124-3.136 3.124-8.2 0-11.324zM5.232 13.656l16.972-16.972c1.56-1.564 4.092-1.564 5.656 0l-22.628 22.628c-1.564-1.56-1.564-4.096 0-5.656zM8.060 22.14l22.628-22.628 2.828 2.828-22.628 22.628-2.828-2.828zM13.716 27.796l22.628-22.628 2.828 2.832-22.624 22.624-2.832-2.828zM19.376 33.456l22.624-22.628 2.832 2.828-22.628 22.628-2.828-2.828zM25.032 39.112l22.628-22.628 2.828 2.828-22.628 22.628-2.828-2.828zM36.344 44.768c-1.56 1.564-4.092 1.564-5.656 0l22.628-22.628c1.564 1.564 1.564 4.096 0 5.656l-16.972 16.972zM47.632 65.992l-2.12-2.124 29.24-29.24 2.124 2.12-29.244 29.244zM79.9 86.992l16.976-16.976c1.564-1.556 4.092-1.556 5.656 0l-22.632 22.632c-1.564-1.564-1.564-4.092 0-5.656zM127.984 101.132l-16.968 16.968c-1.564 1.564-4.092 1.564-5.656 0l-16.972-16.972 22.624-22.624-2.828-2.828-22.632 22.624-2.828-2.828 22.632-22.632 22.624 22.632c1.568 1.568 1.568 4.1 0.004 5.66zM125.156 92.648l-22.624 22.624 2.828 2.828 22.624-22.624-2.828-2.828zM113.844 81.336l-22.624 22.624 2.828 2.828 22.624-22.624-2.828-2.828z" fill="#FFFFFF" transform-origin="0 0"/>

</svg>