<?xml version="1.0" standalone="no"?>
<!DOCTYPE svg PUBLIC "-//W3C//DTD SVG 1.1//EN" "http://www.w3.org/Graphics/SVG/1.1/DTD/svg11.dtd">

<svg width="200" height="200" viewBox="0 0 82.93 100" 
  xmlns="http://www.w3.org/2000/svg"
  xmlns:xlink="http://www.w3.org/1999/xlink">

<style type="text/css">
<![CDATA[

]]>
</style>

<path d="M70.818,12.09C54.61-4.117,28.422-3.986,12.214,12.222C-3.994,28.429-4.109,54.676,12.098,70.884L41.382,100l29.347-29.347  C86.937,54.445,87.026,28.298,70.818,12.09z M41.493,66.224c-13.789,0-24.968-11.179-24.968-24.968  c0-13.79,11.179-24.969,24.968-24.969c13.79,0,24.969,11.179,24.969,24.969C66.462,55.045,55.283,66.224,41.493,66.224z" fill="#58B2DC"/>
<path d="M 38.685567,70.969252 C 28.773585,69.88139 19.956662,63.806333 15.508531,54.999755 c -1.43267,-2.836453 -2.282674,-5.508735 -2.790863,-8.774051 -0.304664,-1.957591 -0.300777,-5.9005 0.0078,-7.907198 1.960537,-12.749659 11.937507,-22.535137 25.019861,-24.539644 2.028074,-0.310747 6.654478,-0.310747 8.682551,0 8.667702,1.328084 16.174101,6.145398 20.854735,13.383755 2.123142,3.283323 3.694928,7.670101 4.228229,11.800756 0.198615,1.538361 0.198062,5.13788 -0.0012,6.710666 -1.417708,11.199754 -9.268382,20.527416 -20.227822,24.033395 -1.826842,0.584417 -4.164212,1.080422 -6.009825,1.275319 -1.438445,0.151896 -5.148858,0.144293 -6.586598,-0.01348 l -1.8e-5,0 z" fill="#58B2DC"/>
<path transform="translate(17.0, 17.0) scale(0.390625)" d="M60 8c-33.137 0-60 26.863-60 60s26.863 60 60 60c33.137 0 60-26.863 60-60s-26.863-60-60-60zM93.949 88c1.073-5.057 1.749-10.424 1.97-16h15.931c-0.417 5.525-1.703 10.889-3.835 16h-14.066zM26.051 48c-1.073 5.057-1.75 10.424-1.97 16h-15.931c0.417-5.524 1.703-10.889 3.835-16h14.065zM85.754 48c1.202 5.12 1.925 10.482 2.16 16h-23.915v-16h21.754zM64 40v-23.417c1.824 0.531 3.63 1.421 5.403 2.671 3.323 2.343 6.502 5.951 9.192 10.436 1.86 3.1 3.469 6.552 4.812 10.31h-19.408zM41.404 29.689c2.691-4.485 5.87-8.094 9.193-10.436 1.773-1.25 3.58-2.14 5.404-2.671v23.418h-19.408c1.343-3.758 2.952-7.21 4.812-10.31zM56 48v16h-23.914c0.235-5.518 0.958-10.88 2.16-16h21.755zM11.986 88c-2.132-5.111-3.418-10.475-3.835-16h15.93c0.22 5.576 0.897 10.943 1.97 16h-14.066zM32.086 72h23.914v16h-21.755c-1.202-5.12-1.925-10.482-2.16-16zM56 96v23.418c-1.824-0.531-3.63-1.421-5.404-2.671-3.323-2.343-6.502-5.951-9.193-10.436-1.86-3.1-3.469-6.552-4.812-10.311h19.408zM78.596 106.311c-2.691 4.484-5.87 8.093-9.192 10.436-1.773 1.25-3.58 2.141-5.403 2.671v-23.418h19.408c-1.343 3.758-2.952 7.21-4.812 10.311zM64 88v-16h23.914c-0.235 5.518-0.958 10.88-2.16 16h-21.754zM95.918 64c-0.22-5.576-0.897-10.943-1.97-16h14.066c2.132 5.111 3.418 10.476 3.835 16h-15.931zM103.832 40h-11.987c-2.33-7.345-5.547-13.787-9.415-18.928 5.317 2.543 10.132 5.952 14.339 10.159 2.685 2.685 5.045 5.617 7.063 8.77zM23.23 31.23c4.207-4.207 9.023-7.617 14.339-10.159-3.868 5.142-7.084 11.583-9.415 18.928h-11.987c2.017-3.152 4.378-6.085 7.063-8.77zM16.168 96h11.987c2.33 7.345 5.547 13.787 9.415 18.929-5.317-2.543-10.132-5.952-14.339-10.159-2.685-2.685-5.046-5.617-7.063-8.77zM96.769 104.769c-4.207 4.207-9.023 7.617-14.339 10.159 3.868-5.142 7.085-11.584 9.415-18.929h11.987c-2.017 3.152-4.378 6.085-7.063 8.769z" fill="#FFFFFF" transform-origin="0 0"/>

</svg>