<?xml version="1.0" standalone="no"?>
<!DOCTYPE svg PUBLIC "-//W3C//DTD SVG 1.1//EN" "http://www.w3.org/Graphics/SVG/1.1/DTD/svg11.dtd">

<svg width="200" height="200" viewBox="0 0 82.93 100" 
  xmlns="http://www.w3.org/2000/svg"
  xmlns:xlink="http://www.w3.org/1999/xlink">

<style type="text/css">
<![CDATA[

]]>
</style>

<path d="M70.818,12.09C54.61-4.117,28.422-3.986,12.214,12.222C-3.994,28.429-4.109,54.676,12.098,70.884L41.382,100l29.347-29.347  C86.937,54.445,87.026,28.298,70.818,12.09z M41.493,66.224c-13.789,0-24.968-11.179-24.968-24.968  c0-13.79,11.179-24.969,24.968-24.969c13.79,0,24.969,11.179,24.969,24.969C66.462,55.045,55.283,66.224,41.493,66.224z" fill="#58B2DC"/>
<path d="M 38.685567,70.969252 C 28.773585,69.88139 19.956662,63.806333 15.508531,54.999755 c -1.43267,-2.836453 -2.282674,-5.508735 -2.790863,-8.774051 -0.304664,-1.957591 -0.300777,-5.9005 0.0078,-7.907198 1.960537,-12.749659 11.937507,-22.535137 25.019861,-24.539644 2.028074,-0.310747 6.654478,-0.310747 8.682551,0 8.667702,1.328084 16.174101,6.145398 20.854735,13.383755 2.123142,3.283323 3.694928,7.670101 4.228229,11.800756 0.198615,1.538361 0.198062,5.13788 -0.0012,6.710666 -1.417708,11.199754 -9.268382,20.527416 -20.227822,24.033395 -1.826842,0.584417 -4.164212,1.080422 -6.009825,1.275319 -1.438445,0.151896 -5.148858,0.144293 -6.586598,-0.01348 l -1.8e-5,0 z" fill="#58B2DC"/>
<path transform="translate(17.0, 17.0) scale(0.390625)" d="M64 11.936c-28.804 0-52.060 23.26-52.060 52.064 0 28.796 23.256 52.064 52.060 52.064 28.8 0 52.064-23.264 52.064-52.064 0-28.804-23.268-52.064-52.064-52.064zM63.816 32.756c3.724 0 6.748 3.020 6.748 6.752 0 3.728-3.024 6.752-6.748 6.752-3.732 0-6.752-3.024-6.752-6.752-0.004-3.732 3.020-6.752 6.752-6.752zM64.728 112.564c-14.164 0-25.040-10.576-25.040-24.26 0-13.22 10.008-24.268 23.428-24.256 0 0 25.192-1.24 25.192-24.332 0-13.88-8.4-22.268-24.34-24.332 28.692 1.592 48.592 21.492 48.592 48.588 0.004 26.44-21.756 48.592-47.832 48.592zM64.060 81.256c-3.728 0-6.752 3.020-6.752 6.752 0 3.728 3.024 6.752 6.752 6.752s6.752-3.024 6.752-6.752c0-3.732-3.024-6.752-6.752-6.752z" fill="#FFFFFF" transform-origin="0 0"/>

</svg>